<mxfile modified="2024-07-18T13:56:01.815Z" host="Electron" agent="Mozilla/5.0 (Macintosh; Intel Mac OS X 10_15_7) AppleWebKit/537.36 (KHTML, like Gecko) draw.io/24.6.4 Chrome/124.0.6367.207 Electron/30.0.6 Safari/537.36" etag="u6cBvnezYINhXOdHAwq7" version="24.6.4" type="device" pages="11">
  <diagram id="ok3Fue_GERzNOS1jIokR" name="content-status">
    <mxGraphModel dx="1106" dy="773" grid="1" gridSize="10" guides="0" tooltips="1" connect="1" arrows="1" fold="1" page="1" pageScale="1" pageWidth="827" pageHeight="1169" math="0" shadow="0">
      <root>
        <mxCell id="HgMUiWggFTWnRNtM9n6i-0" />
        <mxCell id="HgMUiWggFTWnRNtM9n6i-1" parent="HgMUiWggFTWnRNtM9n6i-0" />
        <mxCell id="HgMUiWggFTWnRNtM9n6i-2" value="" style="rounded=1;whiteSpace=wrap;html=1;shadow=0;strokeWidth=1;fillColor=#1ba1e2;fontSize=20;fontColor=#ffffff;align=left;strokeColor=#006EAF;" parent="HgMUiWggFTWnRNtM9n6i-1" vertex="1">
          <mxGeometry x="60" y="390" width="630" height="60" as="geometry" />
        </mxCell>
        <mxCell id="HgMUiWggFTWnRNtM9n6i-3" value="" style="verticalLabelPosition=bottom;verticalAlign=top;html=1;shape=mxgraph.basic.tick;shadow=0;strokeWidth=1;fillColor=#d5e8d4;fontSize=20;align=left;strokeColor=#82b366;gradientColor=#97d077;" parent="HgMUiWggFTWnRNtM9n6i-1" vertex="1">
          <mxGeometry x="593" y="360" width="85" height="100" as="geometry" />
        </mxCell>
        <mxCell id="HgMUiWggFTWnRNtM9n6i-4" value="" style="rounded=1;whiteSpace=wrap;html=1;shadow=0;strokeWidth=1;fillColor=#1ba1e2;fontSize=20;fontColor=#ffffff;align=left;strokeColor=#006EAF;" parent="HgMUiWggFTWnRNtM9n6i-1" vertex="1">
          <mxGeometry x="60" y="639" width="630" height="60" as="geometry" />
        </mxCell>
        <mxCell id="HgMUiWggFTWnRNtM9n6i-7" value="" style="rounded=1;whiteSpace=wrap;html=1;shadow=0;strokeWidth=1;fillColor=#1ba1e2;fontSize=20;fontColor=#ffffff;align=left;strokeColor=#006EAF;" parent="HgMUiWggFTWnRNtM9n6i-1" vertex="1">
          <mxGeometry x="60" y="510" width="630" height="60" as="geometry" />
        </mxCell>
        <mxCell id="HgMUiWggFTWnRNtM9n6i-13" value="" style="verticalLabelPosition=bottom;verticalAlign=top;html=1;shape=mxgraph.basic.drop;shadow=0;strokeWidth=1;fillColor=#f8cecc;fontSize=20;align=left;flipV=1;gradientColor=#ea6b66;strokeColor=#b85450;" parent="HgMUiWggFTWnRNtM9n6i-1" vertex="1">
          <mxGeometry x="620.5" y="620" width="30" height="70" as="geometry" />
        </mxCell>
        <mxCell id="HgMUiWggFTWnRNtM9n6i-14" value="" style="ellipse;whiteSpace=wrap;html=1;aspect=fixed;shadow=0;strokeWidth=1;fillColor=#f8cecc;fontSize=20;align=left;gradientColor=#ea6b66;strokeColor=#b85450;" parent="HgMUiWggFTWnRNtM9n6i-1" vertex="1">
          <mxGeometry x="625.5" y="691" width="20" height="20" as="geometry" />
        </mxCell>
        <mxCell id="YITxevlzK-7fVkt1fmrn-0" value="" style="rounded=1;whiteSpace=wrap;html=1;shadow=0;strokeWidth=1;fillColor=#1ba1e2;fontSize=20;fontColor=#ffffff;align=left;strokeColor=#006EAF;" parent="HgMUiWggFTWnRNtM9n6i-1" vertex="1">
          <mxGeometry x="60" y="259" width="630" height="60" as="geometry" />
        </mxCell>
        <mxCell id="YITxevlzK-7fVkt1fmrn-22" value="" style="group" parent="HgMUiWggFTWnRNtM9n6i-1" vertex="1" connectable="0">
          <mxGeometry x="598" y="236" width="60" height="94" as="geometry" />
        </mxCell>
        <mxCell id="YITxevlzK-7fVkt1fmrn-21" value="" style="group" parent="YITxevlzK-7fVkt1fmrn-22" vertex="1" connectable="0">
          <mxGeometry width="60" height="94" as="geometry" />
        </mxCell>
        <mxCell id="YITxevlzK-7fVkt1fmrn-17" value="" style="verticalLabelPosition=bottom;verticalAlign=top;html=1;shape=mxgraph.basic.cone;shadow=0;strokeWidth=1;fillColor=#f5f5f5;fontSize=20;align=left;gradientColor=#b3b3b3;strokeColor=#666666;" parent="YITxevlzK-7fVkt1fmrn-21" vertex="1">
          <mxGeometry y="47" width="60" height="47" as="geometry" />
        </mxCell>
        <mxCell id="YITxevlzK-7fVkt1fmrn-18" value="" style="verticalLabelPosition=bottom;verticalAlign=top;html=1;shape=mxgraph.basic.cone;shadow=0;strokeWidth=1;fillColor=#f5f5f5;fontSize=20;align=left;gradientColor=#b3b3b3;strokeColor=#666666;flipV=1;" parent="YITxevlzK-7fVkt1fmrn-21" vertex="1">
          <mxGeometry y="1" width="60" height="47" as="geometry" />
        </mxCell>
        <mxCell id="YITxevlzK-7fVkt1fmrn-19" value="" style="verticalLabelPosition=bottom;verticalAlign=top;html=1;shape=mxgraph.basic.acute_triangle;dx=0.5;shadow=0;strokeWidth=1;fillColor=#e6d0de;fontSize=20;align=left;gradientColor=#d5739d;strokeColor=#996185;flipH=1;flipV=1;" parent="YITxevlzK-7fVkt1fmrn-21" vertex="1">
          <mxGeometry x="18" y="25.849999999999998" width="24" height="18.799999999999997" as="geometry" />
        </mxCell>
        <mxCell id="YITxevlzK-7fVkt1fmrn-20" value="" style="verticalLabelPosition=bottom;verticalAlign=top;html=1;shape=mxgraph.basic.cone;shadow=0;strokeWidth=1;fillColor=#e6d0de;fontSize=20;align=left;gradientColor=#d5739d;strokeColor=#996185;" parent="YITxevlzK-7fVkt1fmrn-21" vertex="1">
          <mxGeometry x="5.3999999999999995" y="64.8" width="49.199999999999996" height="26.32" as="geometry" />
        </mxCell>
        <mxCell id="YITxevlzK-7fVkt1fmrn-25" value="" style="ellipse;whiteSpace=wrap;html=1;aspect=fixed;shadow=0;strokeWidth=1;fillColor=#ffcd28;fontSize=20;align=left;gradientColor=#ffa500;strokeColor=#d79b00;" parent="HgMUiWggFTWnRNtM9n6i-1" vertex="1">
          <mxGeometry x="625.2818555490311" y="566.6494341773182" width="18.018581071260385" height="18.018581071260385" as="geometry" />
        </mxCell>
        <mxCell id="YITxevlzK-7fVkt1fmrn-27" value="" style="rounded=1;whiteSpace=wrap;html=1;shadow=0;strokeWidth=1;fillColor=#ffcd28;fontSize=20;align=left;gradientColor=#ffa500;strokeColor=#d79b00;" parent="HgMUiWggFTWnRNtM9n6i-1" vertex="1">
          <mxGeometry x="627" y="543" width="15.34" height="20" as="geometry" />
        </mxCell>
        <mxCell id="YITxevlzK-7fVkt1fmrn-23" value="" style="verticalLabelPosition=bottom;verticalAlign=top;html=1;shape=mxgraph.basic.partConcEllipse;startAngle=0.43533625222777034;endAngle=0.06491420323189465;arcWidth=0.53;shadow=0;strokeWidth=1;fillColor=#ffcd28;fontSize=20;align=left;gradientColor=#ffa500;strokeColor=#d79b00;rotation=-30;flipH=1;" parent="HgMUiWggFTWnRNtM9n6i-1" vertex="1">
          <mxGeometry x="591.33" y="501.49" width="74" height="49" as="geometry" />
        </mxCell>
        <mxCell id="y1LZhmEWjltZK9aJjxxZ-0" value="EGERIA Content Status:&amp;nbsp; &amp;nbsp; &amp;nbsp; &amp;nbsp; &amp;nbsp; &amp;nbsp; &amp;nbsp; &amp;nbsp; &amp;nbsp; &amp;nbsp; &amp;nbsp; &amp;nbsp;DEPRECATED" style="text;html=1;fontSize=20;fontColor=#FFFFFF;" parent="HgMUiWggFTWnRNtM9n6i-1" vertex="1">
          <mxGeometry x="80" y="273" width="510" height="30" as="geometry" />
        </mxCell>
        <mxCell id="y1LZhmEWjltZK9aJjxxZ-2" value="EGERIA Content Status:&amp;nbsp; &amp;nbsp; &amp;nbsp; &amp;nbsp; &amp;nbsp; &amp;nbsp; &amp;nbsp; &amp;nbsp; &amp;nbsp; &amp;nbsp; &amp;nbsp; &amp;nbsp; &amp;nbsp; &amp;nbsp; &amp;nbsp; &amp;nbsp; &amp;nbsp;STABLE" style="text;html=1;fontSize=20;fontColor=#FFFFFF;" parent="HgMUiWggFTWnRNtM9n6i-1" vertex="1">
          <mxGeometry x="80" y="403" width="510" height="40" as="geometry" />
        </mxCell>
        <mxCell id="y1LZhmEWjltZK9aJjxxZ-3" value="EGERIA Content Status:         TECHNICAL PREVIEW" style="text;html=1;fontSize=20;fontColor=#FFFFFF;" parent="HgMUiWggFTWnRNtM9n6i-1" vertex="1">
          <mxGeometry x="80" y="523" width="500" height="40" as="geometry" />
        </mxCell>
        <mxCell id="y1LZhmEWjltZK9aJjxxZ-4" value="EGERIA Content Status:               IN DEVELOPMENT" style="text;html=1;fontSize=20;fontColor=#FFFFFF;" parent="HgMUiWggFTWnRNtM9n6i-1" vertex="1">
          <mxGeometry x="80" y="650" width="500" height="40" as="geometry" />
        </mxCell>
      </root>
    </mxGraphModel>
  </diagram>
  <diagram name="egeria-distributed-operation" id="2Hlk_9TTMVKivneDpeGb">
    <mxGraphModel dx="1877" dy="2261" grid="1" gridSize="10" guides="1" tooltips="1" connect="1" arrows="1" fold="1" page="1" pageScale="1" pageWidth="827" pageHeight="1169" math="0" shadow="0">
      <root>
        <mxCell id="zLcWubZs0hETRzuIiiNO-0" />
        <mxCell id="zLcWubZs0hETRzuIiiNO-1" parent="zLcWubZs0hETRzuIiiNO-0" />
        <mxCell id="zLcWubZs0hETRzuIiiNO-51" value="" style="ellipse;shape=cloud;whiteSpace=wrap;html=1;shadow=1;fillColor=#60a917;fontSize=20;strokeColor=#2D7600;fontColor=#ffffff;opacity=50;" parent="zLcWubZs0hETRzuIiiNO-1" vertex="1">
          <mxGeometry x="-150" y="20" width="430" height="330" as="geometry" />
        </mxCell>
        <mxCell id="G09VUovqqsdC9S2jJERM-0" value="" style="rounded=1;whiteSpace=wrap;html=1;shadow=1;fillColor=#1ba1e2;fontSize=20;strokeColor=#006EAF;fontColor=#ffffff;" parent="zLcWubZs0hETRzuIiiNO-1" vertex="1">
          <mxGeometry x="113.75" y="180" width="136.25" height="110" as="geometry" />
        </mxCell>
        <mxCell id="ESOe_HJXDSnwAcuelSkz-2" value="" style="ellipse;shape=cloud;whiteSpace=wrap;html=1;shadow=1;fillColor=#60a917;fontSize=20;strokeColor=#2D7600;fontColor=#ffffff;opacity=50;" parent="zLcWubZs0hETRzuIiiNO-1" vertex="1">
          <mxGeometry x="100" y="-185" width="280" height="260" as="geometry" />
        </mxCell>
        <mxCell id="ESOe_HJXDSnwAcuelSkz-7" value="" style="rounded=1;whiteSpace=wrap;html=1;shadow=1;fillColor=#1ba1e2;fontSize=20;strokeColor=#006EAF;fontColor=#ffffff;" parent="zLcWubZs0hETRzuIiiNO-1" vertex="1">
          <mxGeometry x="227.75" y="-15" width="98.5" height="90" as="geometry" />
        </mxCell>
        <mxCell id="ESOe_HJXDSnwAcuelSkz-1" value="" style="ellipse;shape=cloud;whiteSpace=wrap;html=1;shadow=1;fillColor=#60a917;fontSize=20;strokeColor=#2D7600;fontColor=#ffffff;opacity=50;" parent="zLcWubZs0hETRzuIiiNO-1" vertex="1">
          <mxGeometry x="397" y="-160" width="240" height="270" as="geometry" />
        </mxCell>
        <mxCell id="ESOe_HJXDSnwAcuelSkz-6" value="" style="rounded=1;whiteSpace=wrap;html=1;shadow=1;fillColor=#1ba1e2;fontSize=20;strokeColor=#006EAF;fontColor=#ffffff;" parent="zLcWubZs0hETRzuIiiNO-1" vertex="1">
          <mxGeometry x="450.75" y="10" width="98.5" height="90" as="geometry" />
        </mxCell>
        <mxCell id="ESOe_HJXDSnwAcuelSkz-0" value="" style="ellipse;shape=cloud;whiteSpace=wrap;html=1;shadow=1;fillColor=#60a917;fontSize=20;strokeColor=#2D7600;fontColor=#ffffff;opacity=50;" parent="zLcWubZs0hETRzuIiiNO-1" vertex="1">
          <mxGeometry x="610" y="-6.29" width="310" height="236.29" as="geometry" />
        </mxCell>
        <mxCell id="ESOe_HJXDSnwAcuelSkz-5" value="" style="rounded=1;whiteSpace=wrap;html=1;shadow=1;fillColor=#1ba1e2;fontSize=20;strokeColor=#006EAF;fontColor=#ffffff;" parent="zLcWubZs0hETRzuIiiNO-1" vertex="1">
          <mxGeometry x="630" y="100" width="98.5" height="90" as="geometry" />
        </mxCell>
        <mxCell id="okorPUwSJHV5rKYItbnV-1" value="" style="ellipse;shape=cloud;whiteSpace=wrap;html=1;shadow=1;fillColor=#60a917;fontSize=20;strokeColor=#2D7600;fontColor=#ffffff;opacity=50;" parent="zLcWubZs0hETRzuIiiNO-1" vertex="1">
          <mxGeometry x="500" y="180" width="470" height="400" as="geometry" />
        </mxCell>
        <mxCell id="ESOe_HJXDSnwAcuelSkz-4" value="" style="rounded=1;whiteSpace=wrap;html=1;shadow=1;fillColor=#1ba1e2;fontSize=20;strokeColor=#006EAF;fontColor=#ffffff;" parent="zLcWubZs0hETRzuIiiNO-1" vertex="1">
          <mxGeometry x="540" y="274" width="178.5" height="126" as="geometry" />
        </mxCell>
        <mxCell id="zLcWubZs0hETRzuIiiNO-52" value="" style="ellipse;shape=cloud;whiteSpace=wrap;html=1;shadow=1;fillColor=#60a917;fontSize=20;strokeColor=#2D7600;fontColor=#ffffff;opacity=50;" parent="zLcWubZs0hETRzuIiiNO-1" vertex="1">
          <mxGeometry x="-30" y="274" width="590" height="446" as="geometry" />
        </mxCell>
        <mxCell id="ESOe_HJXDSnwAcuelSkz-3" value="" style="rounded=1;whiteSpace=wrap;html=1;shadow=1;fillColor=#1ba1e2;fontSize=20;strokeColor=#006EAF;fontColor=#ffffff;" parent="zLcWubZs0hETRzuIiiNO-1" vertex="1">
          <mxGeometry x="210" y="350" width="203" height="120" as="geometry" />
        </mxCell>
        <mxCell id="zLcWubZs0hETRzuIiiNO-3" value="ETL Engine" style="rounded=1;whiteSpace=wrap;html=1;fillColor=#647687;strokeColor=#314354;fontColor=#ffffff;shadow=1;" parent="zLcWubZs0hETRzuIiiNO-1" vertex="1">
          <mxGeometry x="98" y="510" width="120" height="60" as="geometry" />
        </mxCell>
        <mxCell id="zLcWubZs0hETRzuIiiNO-4" value="Data Science Tool" style="rounded=1;whiteSpace=wrap;html=1;fillColor=#647687;strokeColor=#314354;fontColor=#ffffff;shadow=1;" parent="zLcWubZs0hETRzuIiiNO-1" vertex="1">
          <mxGeometry x="750" y="60" width="120" height="60" as="geometry" />
        </mxCell>
        <mxCell id="zLcWubZs0hETRzuIiiNO-5" value="BI Platform" style="rounded=1;whiteSpace=wrap;html=1;fillColor=#647687;strokeColor=#314354;fontColor=#ffffff;shadow=1;" parent="zLcWubZs0hETRzuIiiNO-1" vertex="1">
          <mxGeometry x="227.75" y="570" width="120" height="60" as="geometry" />
        </mxCell>
        <mxCell id="zLcWubZs0hETRzuIiiNO-6" value="Governance&lt;br&gt;Tool" style="rounded=1;whiteSpace=wrap;html=1;fillColor=#647687;strokeColor=#314354;fontColor=#ffffff;" parent="zLcWubZs0hETRzuIiiNO-1" vertex="1">
          <mxGeometry x="470" y="-85" width="120" height="60" as="geometry" />
        </mxCell>
        <mxCell id="zLcWubZs0hETRzuIiiNO-7" value="Data Catalog Tool" style="rounded=1;whiteSpace=wrap;html=1;fillColor=#647687;strokeColor=#314354;fontColor=#ffffff;shadow=1;" parent="zLcWubZs0hETRzuIiiNO-1" vertex="1">
          <mxGeometry x="50" y="100" width="120" height="60" as="geometry" />
        </mxCell>
        <mxCell id="zLcWubZs0hETRzuIiiNO-8" value="Enterprise&lt;br&gt;Architecture&lt;br&gt;Tool" style="rounded=1;whiteSpace=wrap;html=1;fillColor=#647687;strokeColor=#314354;fontColor=#ffffff;shadow=1;" parent="zLcWubZs0hETRzuIiiNO-1" vertex="1">
          <mxGeometry x="750" y="267" width="120" height="60" as="geometry" />
        </mxCell>
        <mxCell id="zLcWubZs0hETRzuIiiNO-9" value="DevOps Pipeline" style="rounded=1;whiteSpace=wrap;html=1;fillColor=#647687;strokeColor=#314354;fontColor=#ffffff;shadow=1;" parent="zLcWubZs0hETRzuIiiNO-1" vertex="1">
          <mxGeometry x="750" y="370" width="120" height="60" as="geometry" />
        </mxCell>
        <mxCell id="zLcWubZs0hETRzuIiiNO-10" value="ITIL Platform" style="rounded=1;whiteSpace=wrap;html=1;fillColor=#647687;strokeColor=#314354;fontColor=#ffffff;shadow=1;" parent="zLcWubZs0hETRzuIiiNO-1" vertex="1">
          <mxGeometry x="608.5" y="430" width="120" height="60" as="geometry" />
        </mxCell>
        <mxCell id="zLcWubZs0hETRzuIiiNO-11" value="Ontology&lt;br&gt;Tool" style="rounded=1;whiteSpace=wrap;html=1;fillColor=#647687;strokeColor=#314354;fontColor=#ffffff;shadow=1;" parent="zLcWubZs0hETRzuIiiNO-1" vertex="1">
          <mxGeometry x="180" y="-115" width="120" height="60" as="geometry" />
        </mxCell>
        <mxCell id="zLcWubZs0hETRzuIiiNO-12" value="" style="shape=flexArrow;endArrow=classic;startArrow=classic;html=1;exitX=0.667;exitY=-0.05;exitDx=0;exitDy=0;exitPerimeter=0;fillColor=#e3c800;strokeColor=#B09500;" parent="zLcWubZs0hETRzuIiiNO-1" source="zLcWubZs0hETRzuIiiNO-3" target="zLcWubZs0hETRzuIiiNO-47" edge="1">
          <mxGeometry width="50" height="50" relative="1" as="geometry">
            <mxPoint x="20" y="650" as="sourcePoint" />
            <mxPoint x="236.79999999999973" y="397" as="targetPoint" />
          </mxGeometry>
        </mxCell>
        <mxCell id="zLcWubZs0hETRzuIiiNO-13" value="" style="shape=flexArrow;endArrow=classic;startArrow=classic;html=1;entryX=0.142;entryY=0.286;entryDx=0;entryDy=0;entryPerimeter=0;exitX=0.75;exitY=1;exitDx=0;exitDy=0;fillColor=#e3c800;strokeColor=#B09500;" parent="zLcWubZs0hETRzuIiiNO-1" source="zLcWubZs0hETRzuIiiNO-7" edge="1">
          <mxGeometry width="50" height="50" relative="1" as="geometry">
            <mxPoint x="20" y="650" as="sourcePoint" />
            <mxPoint x="185.19999999999982" y="210.10000000000014" as="targetPoint" />
          </mxGeometry>
        </mxCell>
        <mxCell id="zLcWubZs0hETRzuIiiNO-14" value="" style="shape=flexArrow;endArrow=classic;startArrow=classic;html=1;entryX=0.5;entryY=1;entryDx=0;entryDy=0;exitX=0.35;exitY=0.114;exitDx=0;exitDy=0;exitPerimeter=0;fillColor=#e3c800;strokeColor=#B09500;" parent="zLcWubZs0hETRzuIiiNO-1" target="zLcWubZs0hETRzuIiiNO-11" edge="1">
          <mxGeometry width="50" height="50" relative="1" as="geometry">
            <mxPoint x="270" y="4.899999999999864" as="sourcePoint" />
            <mxPoint x="60" y="455" as="targetPoint" />
          </mxGeometry>
        </mxCell>
        <mxCell id="zLcWubZs0hETRzuIiiNO-15" value="" style="shape=flexArrow;endArrow=classic;startArrow=classic;html=1;entryX=0.5;entryY=1;entryDx=0;entryDy=0;fillColor=#e3c800;strokeColor=#B09500;exitX=1;exitY=0;exitDx=0;exitDy=0;" parent="zLcWubZs0hETRzuIiiNO-1" source="zLcWubZs0hETRzuIiiNO-38" target="zLcWubZs0hETRzuIiiNO-6" edge="1">
          <mxGeometry width="50" height="50" relative="1" as="geometry">
            <mxPoint x="480" y="45" as="sourcePoint" />
            <mxPoint x="140" y="485" as="targetPoint" />
          </mxGeometry>
        </mxCell>
        <mxCell id="zLcWubZs0hETRzuIiiNO-16" value="" style="shape=flexArrow;endArrow=classic;startArrow=classic;html=1;entryX=0;entryY=0.75;entryDx=0;entryDy=0;exitX=1;exitY=0.5;exitDx=0;exitDy=0;fillColor=#e3c800;strokeColor=#B09500;" parent="zLcWubZs0hETRzuIiiNO-1" source="zLcWubZs0hETRzuIiiNO-36" target="zLcWubZs0hETRzuIiiNO-4" edge="1">
          <mxGeometry width="50" height="50" relative="1" as="geometry">
            <mxPoint x="654.1999999999998" y="168.85000000000014" as="sourcePoint" />
            <mxPoint x="155" y="585" as="targetPoint" />
          </mxGeometry>
        </mxCell>
        <mxCell id="zLcWubZs0hETRzuIiiNO-17" value="" style="shape=flexArrow;endArrow=classic;startArrow=classic;html=1;entryX=0;entryY=0.5;entryDx=0;entryDy=0;exitX=0.915;exitY=0.354;exitDx=0;exitDy=0;exitPerimeter=0;fillColor=#e3c800;strokeColor=#B09500;" parent="zLcWubZs0hETRzuIiiNO-1" target="zLcWubZs0hETRzuIiiNO-8" edge="1">
          <mxGeometry width="50" height="50" relative="1" as="geometry">
            <mxPoint x="649" y="300.9000000000001" as="sourcePoint" />
            <mxPoint x="100" y="667" as="targetPoint" />
          </mxGeometry>
        </mxCell>
        <mxCell id="zLcWubZs0hETRzuIiiNO-18" value="Data Platform" style="rounded=1;whiteSpace=wrap;html=1;fillColor=#647687;strokeColor=#314354;fontColor=#ffffff;shadow=1;" parent="zLcWubZs0hETRzuIiiNO-1" vertex="1">
          <mxGeometry x="377" y="518" width="120" height="60" as="geometry" />
        </mxCell>
        <mxCell id="zLcWubZs0hETRzuIiiNO-19" value="" style="shape=flexArrow;endArrow=classic;startArrow=classic;html=1;entryX=0.5;entryY=1;entryDx=0;entryDy=0;exitX=0.5;exitY=0;exitDx=0;exitDy=0;fillColor=#e3c800;strokeColor=#B09500;" parent="zLcWubZs0hETRzuIiiNO-1" source="zLcWubZs0hETRzuIiiNO-5" target="zLcWubZs0hETRzuIiiNO-45" edge="1">
          <mxGeometry width="50" height="50" relative="1" as="geometry">
            <mxPoint x="-3" y="640" as="sourcePoint" />
            <mxPoint x="329" y="437.95000000000005" as="targetPoint" />
          </mxGeometry>
        </mxCell>
        <mxCell id="zLcWubZs0hETRzuIiiNO-20" value="" style="shape=flexArrow;endArrow=classic;startArrow=classic;html=1;entryX=1;entryY=1;entryDx=0;entryDy=0;exitX=0.5;exitY=0;exitDx=0;exitDy=0;fillColor=#e3c800;strokeColor=#B09500;" parent="zLcWubZs0hETRzuIiiNO-1" source="zLcWubZs0hETRzuIiiNO-18" target="zLcWubZs0hETRzuIiiNO-43" edge="1">
          <mxGeometry width="50" height="50" relative="1" as="geometry">
            <mxPoint x="-43" y="648" as="sourcePoint" />
            <mxPoint x="418" y="440" as="targetPoint" />
          </mxGeometry>
        </mxCell>
        <mxCell id="zLcWubZs0hETRzuIiiNO-21" value="" style="shape=flexArrow;endArrow=classic;startArrow=classic;html=1;entryX=0.872;entryY=0.786;entryDx=0;entryDy=0;entryPerimeter=0;exitX=0.5;exitY=0;exitDx=0;exitDy=0;fillColor=#e3c800;strokeColor=#B09500;" parent="zLcWubZs0hETRzuIiiNO-1" source="zLcWubZs0hETRzuIiiNO-10" edge="1">
          <mxGeometry width="50" height="50" relative="1" as="geometry">
            <mxPoint x="50" y="640" as="sourcePoint" />
            <mxPoint x="623.1999999999998" y="385.10000000000014" as="targetPoint" />
          </mxGeometry>
        </mxCell>
        <mxCell id="zLcWubZs0hETRzuIiiNO-22" value="" style="shape=flexArrow;endArrow=classic;startArrow=classic;html=1;entryX=0.96;entryY=0.7;entryDx=0;entryDy=0;entryPerimeter=0;fillColor=#e3c800;strokeColor=#B09500;" parent="zLcWubZs0hETRzuIiiNO-1" source="zLcWubZs0hETRzuIiiNO-9" edge="1">
          <mxGeometry width="50" height="50" relative="1" as="geometry">
            <mxPoint x="50" y="640" as="sourcePoint" />
            <mxPoint x="676" y="355" as="targetPoint" />
          </mxGeometry>
        </mxCell>
        <mxCell id="zLcWubZs0hETRzuIiiNO-23" value="Discovery Tool" style="rounded=1;whiteSpace=wrap;html=1;fillColor=#647687;strokeColor=#314354;fontColor=#ffffff;shadow=1;" parent="zLcWubZs0hETRzuIiiNO-1" vertex="1">
          <mxGeometry x="-40" y="220" width="120" height="60" as="geometry" />
        </mxCell>
        <mxCell id="zLcWubZs0hETRzuIiiNO-24" value="" style="shape=flexArrow;endArrow=classic;startArrow=classic;html=1;entryX=0.07;entryY=0.4;entryDx=0;entryDy=0;entryPerimeter=0;exitX=1;exitY=0.5;exitDx=0;exitDy=0;fillColor=#e3c800;strokeColor=#B09500;" parent="zLcWubZs0hETRzuIiiNO-1" source="zLcWubZs0hETRzuIiiNO-23" edge="1">
          <mxGeometry width="50" height="50" relative="1" as="geometry">
            <mxPoint x="-40" y="640" as="sourcePoint" />
            <mxPoint x="142" y="250" as="targetPoint" />
          </mxGeometry>
        </mxCell>
        <mxCell id="zLcWubZs0hETRzuIiiNO-25" value="Security&lt;br&gt;Enforcement&lt;br&gt;Engine" style="rounded=1;whiteSpace=wrap;html=1;fillColor=#647687;strokeColor=#314354;fontColor=#ffffff;shadow=1;" parent="zLcWubZs0hETRzuIiiNO-1" vertex="1">
          <mxGeometry x="40" y="420" width="120" height="60" as="geometry" />
        </mxCell>
        <mxCell id="zLcWubZs0hETRzuIiiNO-26" value="" style="shape=flexArrow;endArrow=classic;startArrow=classic;html=1;entryX=0;entryY=0.5;entryDx=0;entryDy=0;exitX=1;exitY=0.25;exitDx=0;exitDy=0;fillColor=#e3c800;strokeColor=#B09500;" parent="zLcWubZs0hETRzuIiiNO-1" source="zLcWubZs0hETRzuIiiNO-25" target="zLcWubZs0hETRzuIiiNO-50" edge="1">
          <mxGeometry width="50" height="50" relative="1" as="geometry">
            <mxPoint x="-25" y="626" as="sourcePoint" />
            <mxPoint x="176" y="364" as="targetPoint" />
          </mxGeometry>
        </mxCell>
        <mxCell id="zLcWubZs0hETRzuIiiNO-27" value="" style="ellipse;whiteSpace=wrap;html=1;aspect=fixed;fillColor=#f0a30a;strokeColor=#BD7000;fontColor=#ffffff;shadow=1;" parent="zLcWubZs0hETRzuIiiNO-1" vertex="1">
          <mxGeometry x="140" y="234" width="40" height="40" as="geometry" />
        </mxCell>
        <mxCell id="zLcWubZs0hETRzuIiiNO-30" value="" style="ellipse;whiteSpace=wrap;html=1;aspect=fixed;fillColor=#f0a30a;strokeColor=#BD7000;fontColor=#ffffff;shadow=1;" parent="zLcWubZs0hETRzuIiiNO-1" vertex="1">
          <mxGeometry x="178" y="205" width="40" height="40" as="geometry" />
        </mxCell>
        <mxCell id="zLcWubZs0hETRzuIiiNO-32" value="" style="ellipse;whiteSpace=wrap;html=1;aspect=fixed;fillColor=#f0a30a;strokeColor=#BD7000;fontColor=#ffffff;shadow=1;" parent="zLcWubZs0hETRzuIiiNO-1" vertex="1">
          <mxGeometry x="610" y="284" width="40" height="40" as="geometry" />
        </mxCell>
        <mxCell id="zLcWubZs0hETRzuIiiNO-36" value="" style="ellipse;whiteSpace=wrap;html=1;aspect=fixed;fillColor=#f0a30a;strokeColor=#BD7000;fontColor=#ffffff;shadow=1;" parent="zLcWubZs0hETRzuIiiNO-1" vertex="1">
          <mxGeometry x="650" y="130" width="40" height="40" as="geometry" />
        </mxCell>
        <mxCell id="zLcWubZs0hETRzuIiiNO-38" value="" style="ellipse;whiteSpace=wrap;html=1;aspect=fixed;fillColor=#f0a30a;strokeColor=#BD7000;fontColor=#ffffff;shadow=1;" parent="zLcWubZs0hETRzuIiiNO-1" vertex="1">
          <mxGeometry x="480" y="25" width="40" height="40" as="geometry" />
        </mxCell>
        <mxCell id="zLcWubZs0hETRzuIiiNO-41" value="" style="ellipse;whiteSpace=wrap;html=1;aspect=fixed;fillColor=#f0a30a;strokeColor=#BD7000;fontColor=#ffffff;shadow=1;" parent="zLcWubZs0hETRzuIiiNO-1" vertex="1">
          <mxGeometry x="257" y="-0.28999999999999204" width="40" height="40" as="geometry" />
        </mxCell>
        <mxCell id="zLcWubZs0hETRzuIiiNO-42" value="" style="ellipse;whiteSpace=wrap;html=1;aspect=fixed;fillColor=#f0a30a;strokeColor=#BD7000;fontColor=#ffffff;shadow=1;" parent="zLcWubZs0hETRzuIiiNO-1" vertex="1">
          <mxGeometry x="597" y="347" width="40" height="40" as="geometry" />
        </mxCell>
        <mxCell id="zLcWubZs0hETRzuIiiNO-43" value="" style="ellipse;whiteSpace=wrap;html=1;aspect=fixed;fillColor=#f0a30a;strokeColor=#BD7000;fontColor=#ffffff;shadow=1;" parent="zLcWubZs0hETRzuIiiNO-1" vertex="1">
          <mxGeometry x="337" y="410" width="40" height="40" as="geometry" />
        </mxCell>
        <mxCell id="zLcWubZs0hETRzuIiiNO-45" value="" style="ellipse;whiteSpace=wrap;html=1;aspect=fixed;fillColor=#f0a30a;strokeColor=#BD7000;fontColor=#ffffff;shadow=1;" parent="zLcWubZs0hETRzuIiiNO-1" vertex="1">
          <mxGeometry x="297" y="410" width="40" height="40" as="geometry" />
        </mxCell>
        <mxCell id="zLcWubZs0hETRzuIiiNO-47" value="" style="ellipse;whiteSpace=wrap;html=1;aspect=fixed;fillColor=#f0a30a;strokeColor=#BD7000;fontColor=#ffffff;shadow=1;" parent="zLcWubZs0hETRzuIiiNO-1" vertex="1">
          <mxGeometry x="257" y="400" width="40" height="40" as="geometry" />
        </mxCell>
        <mxCell id="zLcWubZs0hETRzuIiiNO-49" value="" style="ellipse;whiteSpace=wrap;html=1;aspect=fixed;fillColor=#f0a30a;strokeColor=#BD7000;fontColor=#ffffff;shadow=1;" parent="zLcWubZs0hETRzuIiiNO-1" vertex="1">
          <mxGeometry x="637" y="330" width="40" height="40" as="geometry" />
        </mxCell>
        <mxCell id="zLcWubZs0hETRzuIiiNO-50" value="" style="ellipse;whiteSpace=wrap;html=1;aspect=fixed;fillColor=#f0a30a;strokeColor=#BD7000;fontColor=#ffffff;shadow=1;" parent="zLcWubZs0hETRzuIiiNO-1" vertex="1">
          <mxGeometry x="237" y="360" width="40" height="40" as="geometry" />
        </mxCell>
        <mxCell id="G09VUovqqsdC9S2jJERM-1" value="" style="shape=flexArrow;endArrow=classic;startArrow=classic;html=1;fontSize=20;entryX=0.5;entryY=1;entryDx=0;entryDy=0;fillColor=#1ba1e2;strokeColor=none;" parent="zLcWubZs0hETRzuIiiNO-1" source="ESOe_HJXDSnwAcuelSkz-3" target="ESOe_HJXDSnwAcuelSkz-6" edge="1">
          <mxGeometry width="50" height="50" relative="1" as="geometry">
            <mxPoint x="-150" y="800" as="sourcePoint" />
            <mxPoint x="-100" y="750" as="targetPoint" />
            <Array as="points">
              <mxPoint x="500" y="190" />
            </Array>
          </mxGeometry>
        </mxCell>
        <mxCell id="G09VUovqqsdC9S2jJERM-3" value="" style="shape=flexArrow;endArrow=classic;startArrow=classic;html=1;fontSize=20;entryX=0.5;entryY=1;entryDx=0;entryDy=0;fillColor=#1ba1e2;strokeColor=none;exitX=1;exitY=0.5;exitDx=0;exitDy=0;" parent="zLcWubZs0hETRzuIiiNO-1" source="G09VUovqqsdC9S2jJERM-0" target="ESOe_HJXDSnwAcuelSkz-7" edge="1">
          <mxGeometry width="50" height="50" relative="1" as="geometry">
            <mxPoint x="375.35714285714266" y="350" as="sourcePoint" />
            <mxPoint x="510" y="110" as="targetPoint" />
            <Array as="points">
              <mxPoint x="440" y="260" />
            </Array>
          </mxGeometry>
        </mxCell>
        <mxCell id="G09VUovqqsdC9S2jJERM-4" value="" style="shape=flexArrow;endArrow=classic;startArrow=classic;html=1;fontSize=20;entryX=0;entryY=0.5;entryDx=0;entryDy=0;fillColor=#1ba1e2;strokeColor=none;exitX=0.25;exitY=0;exitDx=0;exitDy=0;" parent="zLcWubZs0hETRzuIiiNO-1" source="ESOe_HJXDSnwAcuelSkz-4" target="ESOe_HJXDSnwAcuelSkz-5" edge="1">
          <mxGeometry width="50" height="50" relative="1" as="geometry">
            <mxPoint x="385.35714285714266" y="360" as="sourcePoint" />
            <mxPoint x="520" y="120" as="targetPoint" />
            <Array as="points">
              <mxPoint x="500" y="190" />
            </Array>
          </mxGeometry>
        </mxCell>
      </root>
    </mxGraphModel>
  </diagram>
  <diagram name="server-ecosystem" id="scHvXZjUH4Ml979ubyJB">
    <mxGraphModel dx="1106" dy="789" grid="0" gridSize="10" guides="1" tooltips="1" connect="1" arrows="1" fold="1" page="1" pageScale="1" pageWidth="1169" pageHeight="827" math="0" shadow="0">
      <root>
        <mxCell id="EQFh07a-m8H78MCFVT7a-0" />
        <mxCell id="EQFh07a-m8H78MCFVT7a-1" parent="EQFh07a-m8H78MCFVT7a-0" />
        <mxCell id="vLfjGMtQfGntNjxPCS8r-70" style="edgeStyle=orthogonalEdgeStyle;rounded=0;orthogonalLoop=1;jettySize=auto;html=1;exitX=0.75;exitY=1;exitDx=0;exitDy=0;entryX=0.25;entryY=0;entryDx=0;entryDy=0;startArrow=classic;startFill=1;endArrow=classic;endFill=1;" parent="EQFh07a-m8H78MCFVT7a-1" source="vLfjGMtQfGntNjxPCS8r-0" target="vLfjGMtQfGntNjxPCS8r-3" edge="1">
          <mxGeometry relative="1" as="geometry" />
        </mxCell>
        <mxCell id="vLfjGMtQfGntNjxPCS8r-91" style="edgeStyle=orthogonalEdgeStyle;rounded=0;orthogonalLoop=1;jettySize=auto;html=1;exitX=0.25;exitY=1;exitDx=0;exitDy=0;startArrow=classic;startFill=1;endArrow=classic;endFill=1;entryX=0.75;entryY=0;entryDx=0;entryDy=0;" parent="EQFh07a-m8H78MCFVT7a-1" source="vLfjGMtQfGntNjxPCS8r-0" target="vLfjGMtQfGntNjxPCS8r-12" edge="1">
          <mxGeometry relative="1" as="geometry">
            <mxPoint x="480" y="732" as="targetPoint" />
          </mxGeometry>
        </mxCell>
        <mxCell id="vLfjGMtQfGntNjxPCS8r-0" value="" style="rounded=1;whiteSpace=wrap;html=1;fillColor=#1ba1e2;strokeColor=#006EAF;fontColor=#ffffff;" parent="EQFh07a-m8H78MCFVT7a-1" vertex="1">
          <mxGeometry x="506" y="601" width="116" height="70" as="geometry" />
        </mxCell>
        <mxCell id="vLfjGMtQfGntNjxPCS8r-1" value="Egeria User&lt;br&gt;Interface&lt;br&gt;" style="rounded=1;whiteSpace=wrap;html=1;" parent="EQFh07a-m8H78MCFVT7a-1" vertex="1">
          <mxGeometry x="512" y="606" width="104" height="60" as="geometry" />
        </mxCell>
        <mxCell id="vLfjGMtQfGntNjxPCS8r-2" value="Metadata&lt;br&gt;Repository&lt;br&gt;" style="shape=cylinder;whiteSpace=wrap;html=1;boundedLbl=1;backgroundOutline=1;fillColor=#1ba1e2;strokeColor=#006EAF;fontColor=#ffffff;" parent="EQFh07a-m8H78MCFVT7a-1" vertex="1">
          <mxGeometry x="575" y="877.5" width="90" height="65" as="geometry" />
        </mxCell>
        <mxCell id="vLfjGMtQfGntNjxPCS8r-5" style="edgeStyle=orthogonalEdgeStyle;rounded=0;orthogonalLoop=1;jettySize=auto;html=1;exitX=0.25;exitY=1;exitDx=0;exitDy=0;endArrow=none;endFill=0;entryX=0.5;entryY=0;entryDx=0;entryDy=0;" parent="EQFh07a-m8H78MCFVT7a-1" source="vLfjGMtQfGntNjxPCS8r-3" target="vLfjGMtQfGntNjxPCS8r-2" edge="1">
          <mxGeometry relative="1" as="geometry">
            <mxPoint x="657" y="830" as="targetPoint" />
          </mxGeometry>
        </mxCell>
        <mxCell id="vLfjGMtQfGntNjxPCS8r-28" style="edgeStyle=orthogonalEdgeStyle;rounded=0;orthogonalLoop=1;jettySize=auto;html=1;exitX=0.75;exitY=0;exitDx=0;exitDy=0;entryX=0.5;entryY=1;entryDx=0;entryDy=0;endArrow=classic;endFill=1;" parent="EQFh07a-m8H78MCFVT7a-1" source="vLfjGMtQfGntNjxPCS8r-3" target="vLfjGMtQfGntNjxPCS8r-18" edge="1">
          <mxGeometry relative="1" as="geometry" />
        </mxCell>
        <mxCell id="vLfjGMtQfGntNjxPCS8r-29" style="edgeStyle=orthogonalEdgeStyle;rounded=0;orthogonalLoop=1;jettySize=auto;html=1;exitX=0;exitY=0.25;exitDx=0;exitDy=0;entryX=1;entryY=0.5;entryDx=0;entryDy=0;endArrow=classic;endFill=1;" parent="EQFh07a-m8H78MCFVT7a-1" source="vLfjGMtQfGntNjxPCS8r-3" target="vLfjGMtQfGntNjxPCS8r-25" edge="1">
          <mxGeometry relative="1" as="geometry" />
        </mxCell>
        <mxCell id="vLfjGMtQfGntNjxPCS8r-90" style="edgeStyle=orthogonalEdgeStyle;rounded=0;orthogonalLoop=1;jettySize=auto;html=1;entryX=0;entryY=0.25;entryDx=0;entryDy=0;startArrow=classic;startFill=1;endArrow=classic;endFill=1;exitX=1;exitY=0.25;exitDx=0;exitDy=0;" parent="EQFh07a-m8H78MCFVT7a-1" source="vLfjGMtQfGntNjxPCS8r-3" target="vLfjGMtQfGntNjxPCS8r-66" edge="1">
          <mxGeometry relative="1" as="geometry" />
        </mxCell>
        <mxCell id="vLfjGMtQfGntNjxPCS8r-93" style="edgeStyle=orthogonalEdgeStyle;rounded=0;orthogonalLoop=1;jettySize=auto;html=1;exitX=0.75;exitY=0;exitDx=0;exitDy=0;entryX=0.5;entryY=1;entryDx=0;entryDy=0;startArrow=classic;startFill=1;endArrow=none;endFill=0;" parent="EQFh07a-m8H78MCFVT7a-1" source="vLfjGMtQfGntNjxPCS8r-3" target="vLfjGMtQfGntNjxPCS8r-92" edge="1">
          <mxGeometry relative="1" as="geometry">
            <Array as="points">
              <mxPoint x="695" y="720" />
              <mxPoint x="687" y="720" />
            </Array>
          </mxGeometry>
        </mxCell>
        <mxCell id="vLfjGMtQfGntNjxPCS8r-3" value="Metadata Server" style="rounded=1;whiteSpace=wrap;html=1;fillColor=#1ba1e2;strokeColor=#006EAF;fontColor=#ffffff;" parent="EQFh07a-m8H78MCFVT7a-1" vertex="1">
          <mxGeometry x="582" y="730" width="150" height="110" as="geometry" />
        </mxCell>
        <mxCell id="vLfjGMtQfGntNjxPCS8r-32" style="edgeStyle=orthogonalEdgeStyle;rounded=0;orthogonalLoop=1;jettySize=auto;html=1;exitX=1;exitY=0.5;exitDx=0;exitDy=0;entryX=0;entryY=0.5;entryDx=0;entryDy=0;endArrow=classic;endFill=1;" parent="EQFh07a-m8H78MCFVT7a-1" source="vLfjGMtQfGntNjxPCS8r-12" target="vLfjGMtQfGntNjxPCS8r-31" edge="1">
          <mxGeometry relative="1" as="geometry" />
        </mxCell>
        <mxCell id="vLfjGMtQfGntNjxPCS8r-34" style="edgeStyle=orthogonalEdgeStyle;rounded=0;orthogonalLoop=1;jettySize=auto;html=1;exitX=1;exitY=0.75;exitDx=0;exitDy=0;entryX=0;entryY=0.75;entryDx=0;entryDy=0;endArrow=classic;endFill=1;" parent="EQFh07a-m8H78MCFVT7a-1" source="vLfjGMtQfGntNjxPCS8r-12" target="vLfjGMtQfGntNjxPCS8r-3" edge="1">
          <mxGeometry relative="1" as="geometry" />
        </mxCell>
        <mxCell id="vLfjGMtQfGntNjxPCS8r-85" style="edgeStyle=orthogonalEdgeStyle;rounded=0;orthogonalLoop=1;jettySize=auto;html=1;exitX=0.25;exitY=0;exitDx=0;exitDy=0;entryX=0.5;entryY=1;entryDx=0;entryDy=0;startArrow=classic;startFill=1;endArrow=classic;endFill=1;" parent="EQFh07a-m8H78MCFVT7a-1" source="vLfjGMtQfGntNjxPCS8r-12" target="vLfjGMtQfGntNjxPCS8r-83" edge="1">
          <mxGeometry relative="1" as="geometry" />
        </mxCell>
        <mxCell id="vLfjGMtQfGntNjxPCS8r-12" value="Governance&lt;br&gt;Server" style="rounded=1;whiteSpace=wrap;html=1;fillColor=#1ba1e2;strokeColor=#006EAF;fontColor=#ffffff;" parent="EQFh07a-m8H78MCFVT7a-1" vertex="1">
          <mxGeometry x="420" y="730" width="75" height="110" as="geometry" />
        </mxCell>
        <mxCell id="vLfjGMtQfGntNjxPCS8r-71" style="edgeStyle=orthogonalEdgeStyle;rounded=0;orthogonalLoop=1;jettySize=auto;html=1;exitX=0.25;exitY=1;exitDx=0;exitDy=0;entryX=0.25;entryY=0;entryDx=0;entryDy=0;startArrow=classic;startFill=1;endArrow=classic;endFill=1;" parent="EQFh07a-m8H78MCFVT7a-1" source="vLfjGMtQfGntNjxPCS8r-14" target="vLfjGMtQfGntNjxPCS8r-3" edge="1">
          <mxGeometry relative="1" as="geometry" />
        </mxCell>
        <mxCell id="vLfjGMtQfGntNjxPCS8r-94" style="edgeStyle=orthogonalEdgeStyle;rounded=0;orthogonalLoop=1;jettySize=auto;html=1;exitX=0.5;exitY=1;exitDx=0;exitDy=0;entryX=0.5;entryY=0;entryDx=0;entryDy=0;startArrow=none;startFill=0;endArrow=classic;endFill=1;" parent="EQFh07a-m8H78MCFVT7a-1" source="vLfjGMtQfGntNjxPCS8r-14" target="vLfjGMtQfGntNjxPCS8r-92" edge="1">
          <mxGeometry relative="1" as="geometry" />
        </mxCell>
        <mxCell id="vLfjGMtQfGntNjxPCS8r-14" value="" style="rounded=1;whiteSpace=wrap;html=1;gradientColor=#ffa500;fillColor=#ffcd28;strokeColor=#d79b00;" parent="EQFh07a-m8H78MCFVT7a-1" vertex="1">
          <mxGeometry x="629" y="601" width="116" height="70" as="geometry" />
        </mxCell>
        <mxCell id="vLfjGMtQfGntNjxPCS8r-15" value="Another Tool&lt;br&gt;" style="rounded=1;whiteSpace=wrap;html=1;" parent="EQFh07a-m8H78MCFVT7a-1" vertex="1">
          <mxGeometry x="635" y="606" width="104" height="60" as="geometry" />
        </mxCell>
        <mxCell id="vLfjGMtQfGntNjxPCS8r-27" style="edgeStyle=orthogonalEdgeStyle;rounded=0;orthogonalLoop=1;jettySize=auto;html=1;exitX=0.5;exitY=0;exitDx=0;exitDy=0;entryX=0.75;entryY=1;entryDx=0;entryDy=0;endArrow=classic;endFill=1;" parent="EQFh07a-m8H78MCFVT7a-1" source="vLfjGMtQfGntNjxPCS8r-18" target="vLfjGMtQfGntNjxPCS8r-14" edge="1">
          <mxGeometry relative="1" as="geometry" />
        </mxCell>
        <mxCell id="vLfjGMtQfGntNjxPCS8r-18" value="" style="shape=partialRectangle;whiteSpace=wrap;html=1;bottom=1;right=1;left=1;top=0;fillColor=none;routingCenterX=-0.5;" parent="EQFh07a-m8H78MCFVT7a-1" vertex="1">
          <mxGeometry x="706" y="691" width="20" height="20" as="geometry" />
        </mxCell>
        <mxCell id="vLfjGMtQfGntNjxPCS8r-30" style="edgeStyle=orthogonalEdgeStyle;rounded=0;orthogonalLoop=1;jettySize=auto;html=1;exitX=0;exitY=0.5;exitDx=0;exitDy=0;entryX=1;entryY=0.25;entryDx=0;entryDy=0;endArrow=classic;endFill=1;" parent="EQFh07a-m8H78MCFVT7a-1" source="vLfjGMtQfGntNjxPCS8r-25" target="vLfjGMtQfGntNjxPCS8r-12" edge="1">
          <mxGeometry relative="1" as="geometry" />
        </mxCell>
        <mxCell id="vLfjGMtQfGntNjxPCS8r-25" value="" style="shape=partialRectangle;whiteSpace=wrap;html=1;bottom=1;right=1;left=1;top=0;fillColor=none;routingCenterX=-0.5;" parent="EQFh07a-m8H78MCFVT7a-1" vertex="1">
          <mxGeometry x="528" y="748" width="20" height="20" as="geometry" />
        </mxCell>
        <mxCell id="vLfjGMtQfGntNjxPCS8r-33" style="edgeStyle=orthogonalEdgeStyle;rounded=0;orthogonalLoop=1;jettySize=auto;html=1;exitX=1;exitY=0.5;exitDx=0;exitDy=0;endArrow=classic;endFill=1;" parent="EQFh07a-m8H78MCFVT7a-1" source="vLfjGMtQfGntNjxPCS8r-31" target="vLfjGMtQfGntNjxPCS8r-3" edge="1">
          <mxGeometry relative="1" as="geometry" />
        </mxCell>
        <mxCell id="vLfjGMtQfGntNjxPCS8r-31" value="" style="shape=partialRectangle;whiteSpace=wrap;html=1;bottom=1;right=1;left=1;top=0;fillColor=none;routingCenterX=-0.5;" parent="EQFh07a-m8H78MCFVT7a-1" vertex="1">
          <mxGeometry x="528" y="775" width="20" height="20" as="geometry" />
        </mxCell>
        <mxCell id="vLfjGMtQfGntNjxPCS8r-35" value="" style="ellipse;shape=doubleEllipse;whiteSpace=wrap;html=1;aspect=fixed;fillColor=#1ba1e2;strokeColor=#006EAF;fontColor=#ffffff;" parent="EQFh07a-m8H78MCFVT7a-1" vertex="1">
          <mxGeometry x="823" y="763" width="80" height="80" as="geometry" />
        </mxCell>
        <mxCell id="vLfjGMtQfGntNjxPCS8r-67" style="edgeStyle=orthogonalEdgeStyle;rounded=0;orthogonalLoop=1;jettySize=auto;html=1;exitX=1;exitY=0.5;exitDx=0;exitDy=0;entryX=0;entryY=0.75;entryDx=0;entryDy=0;startArrow=classic;startFill=1;endArrow=classic;endFill=1;" parent="EQFh07a-m8H78MCFVT7a-1" source="vLfjGMtQfGntNjxPCS8r-36" target="vLfjGMtQfGntNjxPCS8r-66" edge="1">
          <mxGeometry relative="1" as="geometry" />
        </mxCell>
        <mxCell id="vLfjGMtQfGntNjxPCS8r-36" value="" style="shape=partialRectangle;whiteSpace=wrap;html=1;bottom=1;right=1;left=1;top=0;routingCenterX=-0.5;" parent="EQFh07a-m8H78MCFVT7a-1" vertex="1">
          <mxGeometry x="853" y="802" width="20" height="20" as="geometry" />
        </mxCell>
        <mxCell id="vLfjGMtQfGntNjxPCS8r-37" style="edgeStyle=orthogonalEdgeStyle;rounded=0;orthogonalLoop=1;jettySize=auto;html=1;exitX=1;exitY=0.75;exitDx=0;exitDy=0;entryX=0;entryY=0.5;entryDx=0;entryDy=0;endArrow=classic;endFill=1;startArrow=classic;startFill=1;" parent="EQFh07a-m8H78MCFVT7a-1" source="vLfjGMtQfGntNjxPCS8r-3" target="vLfjGMtQfGntNjxPCS8r-36" edge="1">
          <mxGeometry relative="1" as="geometry" />
        </mxCell>
        <mxCell id="vLfjGMtQfGntNjxPCS8r-38" value="&lt;div style=&quot;text-align: center&quot;&gt;&lt;span&gt;Cohort&lt;/span&gt;&lt;/div&gt;&lt;div style=&quot;text-align: center&quot;&gt;&lt;span&gt;Topic&lt;/span&gt;&lt;/div&gt;" style="text;html=1;resizable=0;points=[];autosize=1;align=center;verticalAlign=top;spacingTop=-4;fontColor=#FFFFFF;" parent="EQFh07a-m8H78MCFVT7a-1" vertex="1">
          <mxGeometry x="838" y="770" width="50" height="30" as="geometry" />
        </mxCell>
        <mxCell id="vLfjGMtQfGntNjxPCS8r-41" value="" style="rounded=1;whiteSpace=wrap;html=1;fillColor=#d80073;strokeColor=#A50040;fontColor=#ffffff;" parent="EQFh07a-m8H78MCFVT7a-1" vertex="1">
          <mxGeometry x="1147" y="601" width="116" height="70" as="geometry" />
        </mxCell>
        <mxCell id="vLfjGMtQfGntNjxPCS8r-42" value="Another&lt;br&gt;UI&lt;br&gt;" style="rounded=1;whiteSpace=wrap;html=1;" parent="EQFh07a-m8H78MCFVT7a-1" vertex="1">
          <mxGeometry x="1153" y="606" width="104" height="60" as="geometry" />
        </mxCell>
        <mxCell id="vLfjGMtQfGntNjxPCS8r-43" value="External&lt;br&gt;Technology&lt;br&gt;" style="rounded=1;whiteSpace=wrap;html=1;fillColor=#60a917;strokeColor=#2D7600;fontColor=#ffffff;" parent="EQFh07a-m8H78MCFVT7a-1" vertex="1">
          <mxGeometry x="240" y="730" width="93" height="110" as="geometry" />
        </mxCell>
        <mxCell id="vLfjGMtQfGntNjxPCS8r-72" style="edgeStyle=orthogonalEdgeStyle;rounded=0;orthogonalLoop=1;jettySize=auto;html=1;exitX=1;exitY=0.5;exitDx=0;exitDy=0;startArrow=classic;startFill=1;endArrow=classic;endFill=1;" parent="EQFh07a-m8H78MCFVT7a-1" source="vLfjGMtQfGntNjxPCS8r-66" target="vLfjGMtQfGntNjxPCS8r-68" edge="1">
          <mxGeometry relative="1" as="geometry" />
        </mxCell>
        <mxCell id="vLfjGMtQfGntNjxPCS8r-66" value="Repository&lt;br&gt;Proxy&lt;br&gt;" style="rounded=1;whiteSpace=wrap;html=1;fillColor=#1ba1e2;strokeColor=#006EAF;fontColor=#ffffff;" parent="EQFh07a-m8H78MCFVT7a-1" vertex="1">
          <mxGeometry x="990" y="730" width="75" height="110" as="geometry" />
        </mxCell>
        <mxCell id="vLfjGMtQfGntNjxPCS8r-69" style="edgeStyle=orthogonalEdgeStyle;rounded=0;orthogonalLoop=1;jettySize=auto;html=1;exitX=0.5;exitY=0;exitDx=0;exitDy=0;entryX=0.5;entryY=1;entryDx=0;entryDy=0;startArrow=classic;startFill=1;endArrow=classic;endFill=1;" parent="EQFh07a-m8H78MCFVT7a-1" source="vLfjGMtQfGntNjxPCS8r-68" target="vLfjGMtQfGntNjxPCS8r-41" edge="1">
          <mxGeometry relative="1" as="geometry" />
        </mxCell>
        <mxCell id="vLfjGMtQfGntNjxPCS8r-68" value="Another&lt;br&gt;Metadata Server" style="rounded=1;whiteSpace=wrap;html=1;fillColor=#d80073;strokeColor=#A50040;fontColor=#ffffff;" parent="EQFh07a-m8H78MCFVT7a-1" vertex="1">
          <mxGeometry x="1130" y="730" width="150" height="110" as="geometry" />
        </mxCell>
        <mxCell id="vLfjGMtQfGntNjxPCS8r-74" style="edgeStyle=orthogonalEdgeStyle;rounded=0;orthogonalLoop=1;jettySize=auto;html=1;exitX=0.5;exitY=0;exitDx=0;exitDy=0;entryX=0.5;entryY=1;entryDx=0;entryDy=0;startArrow=classic;startFill=1;endArrow=classic;endFill=1;" parent="EQFh07a-m8H78MCFVT7a-1" source="vLfjGMtQfGntNjxPCS8r-73" target="vLfjGMtQfGntNjxPCS8r-68" edge="1">
          <mxGeometry relative="1" as="geometry" />
        </mxCell>
        <mxCell id="vLfjGMtQfGntNjxPCS8r-79" style="edgeStyle=orthogonalEdgeStyle;rounded=0;orthogonalLoop=1;jettySize=auto;html=1;exitX=0;exitY=0.5;exitDx=0;exitDy=0;entryX=1;entryY=0.5;entryDx=0;entryDy=0;startArrow=none;startFill=0;endArrow=classic;endFill=1;" parent="EQFh07a-m8H78MCFVT7a-1" source="vLfjGMtQfGntNjxPCS8r-73" target="vLfjGMtQfGntNjxPCS8r-77" edge="1">
          <mxGeometry relative="1" as="geometry" />
        </mxCell>
        <mxCell id="vLfjGMtQfGntNjxPCS8r-73" value="Metadata&lt;br&gt;Repository&lt;br&gt;" style="shape=cylinder;whiteSpace=wrap;html=1;boundedLbl=1;backgroundOutline=1;fillColor=#d80073;strokeColor=#A50040;fontColor=#ffffff;" parent="EQFh07a-m8H78MCFVT7a-1" vertex="1">
          <mxGeometry x="1160" y="875" width="90" height="65" as="geometry" />
        </mxCell>
        <mxCell id="vLfjGMtQfGntNjxPCS8r-80" style="edgeStyle=orthogonalEdgeStyle;rounded=0;orthogonalLoop=1;jettySize=auto;html=1;exitX=0;exitY=0.5;exitDx=0;exitDy=0;entryX=0.75;entryY=1;entryDx=0;entryDy=0;startArrow=none;startFill=0;endArrow=classic;endFill=1;" parent="EQFh07a-m8H78MCFVT7a-1" source="vLfjGMtQfGntNjxPCS8r-77" target="vLfjGMtQfGntNjxPCS8r-66" edge="1">
          <mxGeometry relative="1" as="geometry" />
        </mxCell>
        <mxCell id="vLfjGMtQfGntNjxPCS8r-77" value="" style="shape=partialRectangle;whiteSpace=wrap;html=1;bottom=1;right=1;left=1;top=0;fillColor=none;routingCenterX=-0.5;" parent="EQFh07a-m8H78MCFVT7a-1" vertex="1">
          <mxGeometry x="1080" y="897.5" width="20" height="20" as="geometry" />
        </mxCell>
        <mxCell id="vLfjGMtQfGntNjxPCS8r-83" value="" style="rounded=1;whiteSpace=wrap;html=1;gradientColor=#ffa500;fillColor=#ffcd28;strokeColor=#d79b00;" parent="EQFh07a-m8H78MCFVT7a-1" vertex="1">
          <mxGeometry x="381" y="601" width="116" height="70" as="geometry" />
        </mxCell>
        <mxCell id="vLfjGMtQfGntNjxPCS8r-84" value="Another Tool&lt;br&gt;" style="rounded=1;whiteSpace=wrap;html=1;" parent="EQFh07a-m8H78MCFVT7a-1" vertex="1">
          <mxGeometry x="387" y="606" width="104" height="60" as="geometry" />
        </mxCell>
        <mxCell id="vLfjGMtQfGntNjxPCS8r-87" style="edgeStyle=orthogonalEdgeStyle;rounded=0;orthogonalLoop=1;jettySize=auto;html=1;exitX=0.5;exitY=0;exitDx=0;exitDy=0;entryX=0.5;entryY=1;entryDx=0;entryDy=0;startArrow=classic;startFill=1;endArrow=classic;endFill=1;" parent="EQFh07a-m8H78MCFVT7a-1" source="vLfjGMtQfGntNjxPCS8r-86" target="vLfjGMtQfGntNjxPCS8r-36" edge="1">
          <mxGeometry relative="1" as="geometry" />
        </mxCell>
        <mxCell id="vLfjGMtQfGntNjxPCS8r-88" style="edgeStyle=orthogonalEdgeStyle;rounded=0;orthogonalLoop=1;jettySize=auto;html=1;exitX=1;exitY=0.5;exitDx=0;exitDy=0;entryX=0.25;entryY=1;entryDx=0;entryDy=0;startArrow=classic;startFill=1;endArrow=classic;endFill=1;" parent="EQFh07a-m8H78MCFVT7a-1" source="vLfjGMtQfGntNjxPCS8r-86" target="vLfjGMtQfGntNjxPCS8r-66" edge="1">
          <mxGeometry relative="1" as="geometry" />
        </mxCell>
        <mxCell id="vLfjGMtQfGntNjxPCS8r-89" style="edgeStyle=orthogonalEdgeStyle;rounded=0;orthogonalLoop=1;jettySize=auto;html=1;exitX=0;exitY=0.5;exitDx=0;exitDy=0;entryX=0.75;entryY=1;entryDx=0;entryDy=0;startArrow=classic;startFill=1;endArrow=classic;endFill=1;" parent="EQFh07a-m8H78MCFVT7a-1" source="vLfjGMtQfGntNjxPCS8r-86" target="vLfjGMtQfGntNjxPCS8r-3" edge="1">
          <mxGeometry relative="1" as="geometry" />
        </mxCell>
        <mxCell id="vLfjGMtQfGntNjxPCS8r-86" value="Open Metadata Conformance&lt;br&gt;Server" style="rounded=1;whiteSpace=wrap;html=1;fillColor=#1ba1e2;strokeColor=#006EAF;fontColor=#ffffff;" parent="EQFh07a-m8H78MCFVT7a-1" vertex="1">
          <mxGeometry x="788" y="900" width="150" height="85" as="geometry" />
        </mxCell>
        <mxCell id="vLfjGMtQfGntNjxPCS8r-92" value="" style="shape=partialRectangle;whiteSpace=wrap;html=1;bottom=1;right=1;left=1;top=0;fillColor=none;routingCenterX=-0.5;" parent="EQFh07a-m8H78MCFVT7a-1" vertex="1">
          <mxGeometry x="677" y="691" width="20" height="20" as="geometry" />
        </mxCell>
        <mxCell id="vLfjGMtQfGntNjxPCS8r-58" style="edgeStyle=orthogonalEdgeStyle;rounded=0;orthogonalLoop=1;jettySize=auto;html=1;exitX=0;exitY=0.25;exitDx=0;exitDy=0;entryX=1;entryY=0.5;entryDx=0;entryDy=0;endArrow=classic;endFill=1;" parent="EQFh07a-m8H78MCFVT7a-1" target="vLfjGMtQfGntNjxPCS8r-62" edge="1">
          <mxGeometry relative="1" as="geometry">
            <mxPoint x="420" y="758.5" as="sourcePoint" />
          </mxGeometry>
        </mxCell>
        <mxCell id="vLfjGMtQfGntNjxPCS8r-59" style="edgeStyle=orthogonalEdgeStyle;rounded=0;orthogonalLoop=1;jettySize=auto;html=1;exitX=1;exitY=0.5;exitDx=0;exitDy=0;entryX=0;entryY=0.5;entryDx=0;entryDy=0;endArrow=classic;endFill=1;" parent="EQFh07a-m8H78MCFVT7a-1" target="vLfjGMtQfGntNjxPCS8r-64" edge="1">
          <mxGeometry relative="1" as="geometry">
            <mxPoint x="333" y="785.5" as="sourcePoint" />
          </mxGeometry>
        </mxCell>
        <mxCell id="vLfjGMtQfGntNjxPCS8r-60" style="edgeStyle=orthogonalEdgeStyle;rounded=0;orthogonalLoop=1;jettySize=auto;html=1;exitX=1;exitY=0.75;exitDx=0;exitDy=0;entryX=0;entryY=0.75;entryDx=0;entryDy=0;endArrow=none;endFill=0;startArrow=classic;startFill=1;" parent="EQFh07a-m8H78MCFVT7a-1" edge="1">
          <mxGeometry relative="1" as="geometry">
            <mxPoint x="333" y="812.5" as="sourcePoint" />
            <mxPoint x="420" y="812.5" as="targetPoint" />
          </mxGeometry>
        </mxCell>
        <mxCell id="vLfjGMtQfGntNjxPCS8r-61" style="edgeStyle=orthogonalEdgeStyle;rounded=0;orthogonalLoop=1;jettySize=auto;html=1;exitX=0;exitY=0.5;exitDx=0;exitDy=0;entryX=1;entryY=0.25;entryDx=0;entryDy=0;endArrow=classic;endFill=1;" parent="EQFh07a-m8H78MCFVT7a-1" source="vLfjGMtQfGntNjxPCS8r-62" edge="1">
          <mxGeometry relative="1" as="geometry">
            <mxPoint x="333" y="758.5" as="targetPoint" />
          </mxGeometry>
        </mxCell>
        <mxCell id="vLfjGMtQfGntNjxPCS8r-62" value="" style="shape=partialRectangle;whiteSpace=wrap;html=1;bottom=1;right=1;left=1;top=0;fillColor=none;routingCenterX=-0.5;" parent="EQFh07a-m8H78MCFVT7a-1" vertex="1">
          <mxGeometry x="366" y="748.5" width="20" height="20" as="geometry" />
        </mxCell>
        <mxCell id="vLfjGMtQfGntNjxPCS8r-63" style="edgeStyle=orthogonalEdgeStyle;rounded=0;orthogonalLoop=1;jettySize=auto;html=1;exitX=1;exitY=0.5;exitDx=0;exitDy=0;endArrow=classic;endFill=1;" parent="EQFh07a-m8H78MCFVT7a-1" source="vLfjGMtQfGntNjxPCS8r-64" edge="1">
          <mxGeometry relative="1" as="geometry">
            <mxPoint x="420" y="785.5" as="targetPoint" />
          </mxGeometry>
        </mxCell>
        <mxCell id="vLfjGMtQfGntNjxPCS8r-64" value="" style="shape=partialRectangle;whiteSpace=wrap;html=1;bottom=1;right=1;left=1;top=0;fillColor=none;routingCenterX=-0.5;" parent="EQFh07a-m8H78MCFVT7a-1" vertex="1">
          <mxGeometry x="366" y="775.5" width="20" height="20" as="geometry" />
        </mxCell>
        <mxCell id="26eYyT7p3p_8_t_nS2mh-0" style="edgeStyle=orthogonalEdgeStyle;rounded=0;orthogonalLoop=1;jettySize=auto;html=1;entryX=0.25;entryY=0;entryDx=0;entryDy=0;startArrow=classic;startFill=1;endArrow=classic;endFill=1;exitX=0.75;exitY=1;exitDx=0;exitDy=0;" parent="EQFh07a-m8H78MCFVT7a-1" source="12DMMVYVFWtL2pc7QRex-6" target="26eYyT7p3p_8_t_nS2mh-10" edge="1">
          <mxGeometry relative="1" as="geometry" />
        </mxCell>
        <mxCell id="26eYyT7p3p_8_t_nS2mh-1" style="edgeStyle=orthogonalEdgeStyle;rounded=0;orthogonalLoop=1;jettySize=auto;html=1;exitX=0.25;exitY=1;exitDx=0;exitDy=0;startArrow=classic;startFill=1;endArrow=classic;endFill=1;entryX=0.75;entryY=0;entryDx=0;entryDy=0;" parent="EQFh07a-m8H78MCFVT7a-1" source="12DMMVYVFWtL2pc7QRex-6" target="26eYyT7p3p_8_t_nS2mh-14" edge="1">
          <mxGeometry relative="1" as="geometry">
            <mxPoint x="470" y="1581" as="targetPoint" />
          </mxGeometry>
        </mxCell>
        <mxCell id="26eYyT7p3p_8_t_nS2mh-2" value="Presentation&lt;br&gt;Server" style="rounded=1;whiteSpace=wrap;html=1;fillColor=#aa00ff;strokeColor=#7700CC;fontColor=#ffffff;" parent="EQFh07a-m8H78MCFVT7a-1" vertex="1">
          <mxGeometry x="494.5" y="1350" width="116" height="70" as="geometry" />
        </mxCell>
        <mxCell id="26eYyT7p3p_8_t_nS2mh-4" value="Metadata&lt;br&gt;Repository&lt;br&gt;" style="shape=cylinder;whiteSpace=wrap;html=1;boundedLbl=1;backgroundOutline=1;fillColor=#1ba1e2;strokeColor=#006EAF;fontColor=#ffffff;" parent="EQFh07a-m8H78MCFVT7a-1" vertex="1">
          <mxGeometry x="565" y="1726.5" width="90" height="65" as="geometry" />
        </mxCell>
        <mxCell id="26eYyT7p3p_8_t_nS2mh-5" style="edgeStyle=orthogonalEdgeStyle;rounded=0;orthogonalLoop=1;jettySize=auto;html=1;exitX=0.25;exitY=1;exitDx=0;exitDy=0;endArrow=none;endFill=0;entryX=0.5;entryY=0;entryDx=0;entryDy=0;" parent="EQFh07a-m8H78MCFVT7a-1" source="26eYyT7p3p_8_t_nS2mh-10" target="26eYyT7p3p_8_t_nS2mh-4" edge="1">
          <mxGeometry relative="1" as="geometry">
            <mxPoint x="647" y="1679" as="targetPoint" />
          </mxGeometry>
        </mxCell>
        <mxCell id="26eYyT7p3p_8_t_nS2mh-6" style="edgeStyle=orthogonalEdgeStyle;rounded=0;orthogonalLoop=1;jettySize=auto;html=1;exitX=0.75;exitY=0;exitDx=0;exitDy=0;entryX=0.5;entryY=1;entryDx=0;entryDy=0;endArrow=classic;endFill=1;" parent="EQFh07a-m8H78MCFVT7a-1" source="26eYyT7p3p_8_t_nS2mh-10" target="26eYyT7p3p_8_t_nS2mh-20" edge="1">
          <mxGeometry relative="1" as="geometry" />
        </mxCell>
        <mxCell id="26eYyT7p3p_8_t_nS2mh-7" style="edgeStyle=orthogonalEdgeStyle;rounded=0;orthogonalLoop=1;jettySize=auto;html=1;exitX=0;exitY=0.25;exitDx=0;exitDy=0;entryX=1;entryY=0.5;entryDx=0;entryDy=0;endArrow=classic;endFill=1;" parent="EQFh07a-m8H78MCFVT7a-1" source="26eYyT7p3p_8_t_nS2mh-10" target="26eYyT7p3p_8_t_nS2mh-22" edge="1">
          <mxGeometry relative="1" as="geometry" />
        </mxCell>
        <mxCell id="26eYyT7p3p_8_t_nS2mh-8" style="edgeStyle=orthogonalEdgeStyle;rounded=0;orthogonalLoop=1;jettySize=auto;html=1;entryX=0;entryY=0.25;entryDx=0;entryDy=0;startArrow=classic;startFill=1;endArrow=classic;endFill=1;exitX=1;exitY=0.25;exitDx=0;exitDy=0;" parent="EQFh07a-m8H78MCFVT7a-1" source="26eYyT7p3p_8_t_nS2mh-10" target="26eYyT7p3p_8_t_nS2mh-34" edge="1">
          <mxGeometry relative="1" as="geometry" />
        </mxCell>
        <mxCell id="26eYyT7p3p_8_t_nS2mh-9" style="edgeStyle=orthogonalEdgeStyle;rounded=0;orthogonalLoop=1;jettySize=auto;html=1;exitX=0.7;exitY=0.006;exitDx=0;exitDy=0;entryX=0.5;entryY=1;entryDx=0;entryDy=0;startArrow=classic;startFill=1;endArrow=none;endFill=0;exitPerimeter=0;" parent="EQFh07a-m8H78MCFVT7a-1" source="26eYyT7p3p_8_t_nS2mh-10" target="26eYyT7p3p_8_t_nS2mh-48" edge="1">
          <mxGeometry relative="1" as="geometry">
            <Array as="points">
              <mxPoint x="677" y="1569" />
              <mxPoint x="677" y="1569" />
            </Array>
          </mxGeometry>
        </mxCell>
        <mxCell id="26eYyT7p3p_8_t_nS2mh-10" value="Metadata Server /&lt;br&gt;Metadata Access Point" style="rounded=1;whiteSpace=wrap;html=1;fillColor=#1ba1e2;strokeColor=#006EAF;fontColor=#ffffff;" parent="EQFh07a-m8H78MCFVT7a-1" vertex="1">
          <mxGeometry x="572" y="1579" width="150" height="110" as="geometry" />
        </mxCell>
        <mxCell id="26eYyT7p3p_8_t_nS2mh-11" style="edgeStyle=orthogonalEdgeStyle;rounded=0;orthogonalLoop=1;jettySize=auto;html=1;exitX=1;exitY=0.5;exitDx=0;exitDy=0;entryX=0;entryY=0.5;entryDx=0;entryDy=0;endArrow=classic;endFill=1;" parent="EQFh07a-m8H78MCFVT7a-1" source="26eYyT7p3p_8_t_nS2mh-14" target="26eYyT7p3p_8_t_nS2mh-24" edge="1">
          <mxGeometry relative="1" as="geometry" />
        </mxCell>
        <mxCell id="26eYyT7p3p_8_t_nS2mh-12" style="edgeStyle=orthogonalEdgeStyle;rounded=0;orthogonalLoop=1;jettySize=auto;html=1;exitX=1;exitY=0.75;exitDx=0;exitDy=0;entryX=0;entryY=0.75;entryDx=0;entryDy=0;endArrow=classic;endFill=1;" parent="EQFh07a-m8H78MCFVT7a-1" source="26eYyT7p3p_8_t_nS2mh-14" target="26eYyT7p3p_8_t_nS2mh-10" edge="1">
          <mxGeometry relative="1" as="geometry" />
        </mxCell>
        <mxCell id="26eYyT7p3p_8_t_nS2mh-13" style="edgeStyle=orthogonalEdgeStyle;rounded=0;orthogonalLoop=1;jettySize=auto;html=1;exitX=0.25;exitY=0;exitDx=0;exitDy=0;entryX=0.5;entryY=1;entryDx=0;entryDy=0;startArrow=classic;startFill=1;endArrow=classic;endFill=1;" parent="EQFh07a-m8H78MCFVT7a-1" source="26eYyT7p3p_8_t_nS2mh-14" target="26eYyT7p3p_8_t_nS2mh-42" edge="1">
          <mxGeometry relative="1" as="geometry" />
        </mxCell>
        <mxCell id="26eYyT7p3p_8_t_nS2mh-14" value="Governance&lt;br&gt;Server" style="rounded=1;whiteSpace=wrap;html=1;fillColor=#1ba1e2;strokeColor=#006EAF;fontColor=#ffffff;" parent="EQFh07a-m8H78MCFVT7a-1" vertex="1">
          <mxGeometry x="410" y="1579" width="75" height="110" as="geometry" />
        </mxCell>
        <mxCell id="26eYyT7p3p_8_t_nS2mh-15" style="edgeStyle=orthogonalEdgeStyle;rounded=0;orthogonalLoop=1;jettySize=auto;html=1;exitX=0.25;exitY=1;exitDx=0;exitDy=0;entryX=0.25;entryY=0;entryDx=0;entryDy=0;startArrow=classic;startFill=1;endArrow=classic;endFill=1;" parent="EQFh07a-m8H78MCFVT7a-1" source="26eYyT7p3p_8_t_nS2mh-17" target="26eYyT7p3p_8_t_nS2mh-10" edge="1">
          <mxGeometry relative="1" as="geometry" />
        </mxCell>
        <mxCell id="26eYyT7p3p_8_t_nS2mh-16" style="edgeStyle=orthogonalEdgeStyle;rounded=0;orthogonalLoop=1;jettySize=auto;html=1;exitX=0.5;exitY=1;exitDx=0;exitDy=0;entryX=0.5;entryY=0;entryDx=0;entryDy=0;startArrow=none;startFill=0;endArrow=classic;endFill=1;" parent="EQFh07a-m8H78MCFVT7a-1" source="26eYyT7p3p_8_t_nS2mh-17" target="26eYyT7p3p_8_t_nS2mh-48" edge="1">
          <mxGeometry relative="1" as="geometry" />
        </mxCell>
        <mxCell id="26eYyT7p3p_8_t_nS2mh-17" value="Another Tool" style="rounded=1;whiteSpace=wrap;html=1;gradientColor=#b3b3b3;fillColor=#f5f5f5;strokeColor=#666666;" parent="EQFh07a-m8H78MCFVT7a-1" vertex="1">
          <mxGeometry x="619" y="1450" width="116" height="70" as="geometry" />
        </mxCell>
        <mxCell id="26eYyT7p3p_8_t_nS2mh-19" style="edgeStyle=orthogonalEdgeStyle;rounded=0;orthogonalLoop=1;jettySize=auto;html=1;exitX=0.5;exitY=0;exitDx=0;exitDy=0;entryX=0.75;entryY=1;entryDx=0;entryDy=0;endArrow=classic;endFill=1;" parent="EQFh07a-m8H78MCFVT7a-1" source="26eYyT7p3p_8_t_nS2mh-20" target="26eYyT7p3p_8_t_nS2mh-17" edge="1">
          <mxGeometry relative="1" as="geometry" />
        </mxCell>
        <mxCell id="26eYyT7p3p_8_t_nS2mh-20" value="" style="shape=partialRectangle;whiteSpace=wrap;html=1;bottom=1;right=1;left=1;top=0;fillColor=none;routingCenterX=-0.5;" parent="EQFh07a-m8H78MCFVT7a-1" vertex="1">
          <mxGeometry x="696" y="1540" width="20" height="20" as="geometry" />
        </mxCell>
        <mxCell id="26eYyT7p3p_8_t_nS2mh-21" style="edgeStyle=orthogonalEdgeStyle;rounded=0;orthogonalLoop=1;jettySize=auto;html=1;exitX=0;exitY=0.5;exitDx=0;exitDy=0;entryX=1;entryY=0.25;entryDx=0;entryDy=0;endArrow=classic;endFill=1;" parent="EQFh07a-m8H78MCFVT7a-1" source="26eYyT7p3p_8_t_nS2mh-22" target="26eYyT7p3p_8_t_nS2mh-14" edge="1">
          <mxGeometry relative="1" as="geometry" />
        </mxCell>
        <mxCell id="26eYyT7p3p_8_t_nS2mh-22" value="" style="shape=partialRectangle;whiteSpace=wrap;html=1;bottom=1;right=1;left=1;top=0;fillColor=none;routingCenterX=-0.5;" parent="EQFh07a-m8H78MCFVT7a-1" vertex="1">
          <mxGeometry x="518" y="1597" width="20" height="20" as="geometry" />
        </mxCell>
        <mxCell id="26eYyT7p3p_8_t_nS2mh-23" style="edgeStyle=orthogonalEdgeStyle;rounded=0;orthogonalLoop=1;jettySize=auto;html=1;exitX=1;exitY=0.5;exitDx=0;exitDy=0;endArrow=classic;endFill=1;" parent="EQFh07a-m8H78MCFVT7a-1" source="26eYyT7p3p_8_t_nS2mh-24" target="26eYyT7p3p_8_t_nS2mh-10" edge="1">
          <mxGeometry relative="1" as="geometry" />
        </mxCell>
        <mxCell id="26eYyT7p3p_8_t_nS2mh-24" value="" style="shape=partialRectangle;whiteSpace=wrap;html=1;bottom=1;right=1;left=1;top=0;fillColor=none;routingCenterX=-0.5;" parent="EQFh07a-m8H78MCFVT7a-1" vertex="1">
          <mxGeometry x="518" y="1624" width="20" height="20" as="geometry" />
        </mxCell>
        <mxCell id="26eYyT7p3p_8_t_nS2mh-25" value="" style="ellipse;shape=doubleEllipse;whiteSpace=wrap;html=1;aspect=fixed;fillColor=#1ba1e2;strokeColor=#006EAF;fontColor=#ffffff;" parent="EQFh07a-m8H78MCFVT7a-1" vertex="1">
          <mxGeometry x="813" y="1613" width="80" height="80" as="geometry" />
        </mxCell>
        <mxCell id="26eYyT7p3p_8_t_nS2mh-26" style="edgeStyle=orthogonalEdgeStyle;rounded=0;orthogonalLoop=1;jettySize=auto;html=1;exitX=1;exitY=0.5;exitDx=0;exitDy=0;entryX=0;entryY=0.75;entryDx=0;entryDy=0;startArrow=classic;startFill=1;endArrow=classic;endFill=1;" parent="EQFh07a-m8H78MCFVT7a-1" source="26eYyT7p3p_8_t_nS2mh-27" target="26eYyT7p3p_8_t_nS2mh-34" edge="1">
          <mxGeometry relative="1" as="geometry" />
        </mxCell>
        <mxCell id="26eYyT7p3p_8_t_nS2mh-27" value="" style="shape=partialRectangle;whiteSpace=wrap;html=1;bottom=1;right=1;left=1;top=0;routingCenterX=-0.5;" parent="EQFh07a-m8H78MCFVT7a-1" vertex="1">
          <mxGeometry x="843" y="1652" width="20" height="20" as="geometry" />
        </mxCell>
        <mxCell id="26eYyT7p3p_8_t_nS2mh-28" style="edgeStyle=orthogonalEdgeStyle;rounded=0;orthogonalLoop=1;jettySize=auto;html=1;exitX=1;exitY=0.75;exitDx=0;exitDy=0;entryX=0;entryY=0.5;entryDx=0;entryDy=0;endArrow=classic;endFill=1;startArrow=classic;startFill=1;" parent="EQFh07a-m8H78MCFVT7a-1" source="26eYyT7p3p_8_t_nS2mh-10" target="26eYyT7p3p_8_t_nS2mh-27" edge="1">
          <mxGeometry relative="1" as="geometry" />
        </mxCell>
        <mxCell id="26eYyT7p3p_8_t_nS2mh-29" value="&lt;div style=&quot;text-align: center&quot;&gt;&lt;span&gt;Cohort&lt;/span&gt;&lt;/div&gt;&lt;div style=&quot;text-align: center&quot;&gt;&lt;span&gt;Topic&lt;/span&gt;&lt;/div&gt;" style="text;html=1;resizable=0;points=[];autosize=1;align=center;verticalAlign=top;spacingTop=-4;fontColor=#FFFFFF;" parent="EQFh07a-m8H78MCFVT7a-1" vertex="1">
          <mxGeometry x="828" y="1620" width="50" height="30" as="geometry" />
        </mxCell>
        <mxCell id="26eYyT7p3p_8_t_nS2mh-30" value="" style="rounded=1;whiteSpace=wrap;html=1;fillColor=#d80073;strokeColor=#A50040;fontColor=#ffffff;" parent="EQFh07a-m8H78MCFVT7a-1" vertex="1">
          <mxGeometry x="1137" y="1450" width="116" height="70" as="geometry" />
        </mxCell>
        <mxCell id="26eYyT7p3p_8_t_nS2mh-31" value="Another&lt;br&gt;UI&lt;br&gt;" style="rounded=1;whiteSpace=wrap;html=1;" parent="EQFh07a-m8H78MCFVT7a-1" vertex="1">
          <mxGeometry x="1143" y="1455" width="104" height="60" as="geometry" />
        </mxCell>
        <mxCell id="26eYyT7p3p_8_t_nS2mh-32" value="External&lt;br&gt;Technology&lt;br&gt;" style="rounded=1;whiteSpace=wrap;html=1;fillColor=#60a917;strokeColor=#2D7600;fontColor=#ffffff;" parent="EQFh07a-m8H78MCFVT7a-1" vertex="1">
          <mxGeometry x="230" y="1579" width="93" height="110" as="geometry" />
        </mxCell>
        <mxCell id="26eYyT7p3p_8_t_nS2mh-33" style="edgeStyle=orthogonalEdgeStyle;rounded=0;orthogonalLoop=1;jettySize=auto;html=1;exitX=1;exitY=0.5;exitDx=0;exitDy=0;startArrow=classic;startFill=1;endArrow=classic;endFill=1;" parent="EQFh07a-m8H78MCFVT7a-1" source="26eYyT7p3p_8_t_nS2mh-34" target="26eYyT7p3p_8_t_nS2mh-36" edge="1">
          <mxGeometry relative="1" as="geometry" />
        </mxCell>
        <mxCell id="26eYyT7p3p_8_t_nS2mh-34" value="Repository&lt;br&gt;Proxy&lt;br&gt;" style="rounded=1;whiteSpace=wrap;html=1;fillColor=#1ba1e2;strokeColor=#006EAF;fontColor=#ffffff;" parent="EQFh07a-m8H78MCFVT7a-1" vertex="1">
          <mxGeometry x="980" y="1579" width="75" height="110" as="geometry" />
        </mxCell>
        <mxCell id="26eYyT7p3p_8_t_nS2mh-35" style="edgeStyle=orthogonalEdgeStyle;rounded=0;orthogonalLoop=1;jettySize=auto;html=1;exitX=0.5;exitY=0;exitDx=0;exitDy=0;entryX=0.5;entryY=1;entryDx=0;entryDy=0;startArrow=classic;startFill=1;endArrow=classic;endFill=1;" parent="EQFh07a-m8H78MCFVT7a-1" source="26eYyT7p3p_8_t_nS2mh-36" target="26eYyT7p3p_8_t_nS2mh-30" edge="1">
          <mxGeometry relative="1" as="geometry" />
        </mxCell>
        <mxCell id="26eYyT7p3p_8_t_nS2mh-36" value="Another&lt;br&gt;Metadata Server" style="rounded=1;whiteSpace=wrap;html=1;fillColor=#d80073;strokeColor=#A50040;fontColor=#ffffff;" parent="EQFh07a-m8H78MCFVT7a-1" vertex="1">
          <mxGeometry x="1120" y="1579" width="150" height="110" as="geometry" />
        </mxCell>
        <mxCell id="26eYyT7p3p_8_t_nS2mh-37" style="edgeStyle=orthogonalEdgeStyle;rounded=0;orthogonalLoop=1;jettySize=auto;html=1;exitX=0.5;exitY=0;exitDx=0;exitDy=0;entryX=0.5;entryY=1;entryDx=0;entryDy=0;startArrow=classic;startFill=1;endArrow=classic;endFill=1;" parent="EQFh07a-m8H78MCFVT7a-1" source="26eYyT7p3p_8_t_nS2mh-39" target="26eYyT7p3p_8_t_nS2mh-36" edge="1">
          <mxGeometry relative="1" as="geometry" />
        </mxCell>
        <mxCell id="26eYyT7p3p_8_t_nS2mh-38" style="edgeStyle=orthogonalEdgeStyle;rounded=0;orthogonalLoop=1;jettySize=auto;html=1;exitX=0;exitY=0.5;exitDx=0;exitDy=0;entryX=1;entryY=0.5;entryDx=0;entryDy=0;startArrow=none;startFill=0;endArrow=classic;endFill=1;" parent="EQFh07a-m8H78MCFVT7a-1" source="26eYyT7p3p_8_t_nS2mh-39" target="26eYyT7p3p_8_t_nS2mh-41" edge="1">
          <mxGeometry relative="1" as="geometry" />
        </mxCell>
        <mxCell id="26eYyT7p3p_8_t_nS2mh-39" value="Metadata&lt;br&gt;Repository&lt;br&gt;" style="shape=cylinder;whiteSpace=wrap;html=1;boundedLbl=1;backgroundOutline=1;fillColor=#d80073;strokeColor=#A50040;fontColor=#ffffff;" parent="EQFh07a-m8H78MCFVT7a-1" vertex="1">
          <mxGeometry x="1150" y="1724" width="90" height="65" as="geometry" />
        </mxCell>
        <mxCell id="26eYyT7p3p_8_t_nS2mh-40" style="edgeStyle=orthogonalEdgeStyle;rounded=0;orthogonalLoop=1;jettySize=auto;html=1;exitX=0;exitY=0.5;exitDx=0;exitDy=0;entryX=0.75;entryY=1;entryDx=0;entryDy=0;startArrow=none;startFill=0;endArrow=classic;endFill=1;" parent="EQFh07a-m8H78MCFVT7a-1" source="26eYyT7p3p_8_t_nS2mh-41" target="26eYyT7p3p_8_t_nS2mh-34" edge="1">
          <mxGeometry relative="1" as="geometry" />
        </mxCell>
        <mxCell id="26eYyT7p3p_8_t_nS2mh-41" value="" style="shape=partialRectangle;whiteSpace=wrap;html=1;bottom=1;right=1;left=1;top=0;fillColor=none;routingCenterX=-0.5;" parent="EQFh07a-m8H78MCFVT7a-1" vertex="1">
          <mxGeometry x="1070" y="1746.5" width="20" height="20" as="geometry" />
        </mxCell>
        <mxCell id="26eYyT7p3p_8_t_nS2mh-42" value="Another Tool" style="rounded=1;whiteSpace=wrap;html=1;gradientColor=#b3b3b3;fillColor=#f5f5f5;strokeColor=#666666;" parent="EQFh07a-m8H78MCFVT7a-1" vertex="1">
          <mxGeometry x="371" y="1450" width="116" height="70" as="geometry" />
        </mxCell>
        <mxCell id="26eYyT7p3p_8_t_nS2mh-44" style="edgeStyle=orthogonalEdgeStyle;rounded=0;orthogonalLoop=1;jettySize=auto;html=1;exitX=0.5;exitY=0;exitDx=0;exitDy=0;entryX=0.5;entryY=1;entryDx=0;entryDy=0;startArrow=classic;startFill=1;endArrow=classic;endFill=1;" parent="EQFh07a-m8H78MCFVT7a-1" source="26eYyT7p3p_8_t_nS2mh-47" target="26eYyT7p3p_8_t_nS2mh-27" edge="1">
          <mxGeometry relative="1" as="geometry" />
        </mxCell>
        <mxCell id="26eYyT7p3p_8_t_nS2mh-45" style="edgeStyle=orthogonalEdgeStyle;rounded=0;orthogonalLoop=1;jettySize=auto;html=1;exitX=1;exitY=0.5;exitDx=0;exitDy=0;entryX=0.25;entryY=1;entryDx=0;entryDy=0;startArrow=classic;startFill=1;endArrow=classic;endFill=1;" parent="EQFh07a-m8H78MCFVT7a-1" source="26eYyT7p3p_8_t_nS2mh-47" target="26eYyT7p3p_8_t_nS2mh-34" edge="1">
          <mxGeometry relative="1" as="geometry" />
        </mxCell>
        <mxCell id="26eYyT7p3p_8_t_nS2mh-46" style="edgeStyle=orthogonalEdgeStyle;rounded=0;orthogonalLoop=1;jettySize=auto;html=1;exitX=0;exitY=0.5;exitDx=0;exitDy=0;entryX=0.75;entryY=1;entryDx=0;entryDy=0;startArrow=classic;startFill=1;endArrow=classic;endFill=1;" parent="EQFh07a-m8H78MCFVT7a-1" source="26eYyT7p3p_8_t_nS2mh-47" target="26eYyT7p3p_8_t_nS2mh-10" edge="1">
          <mxGeometry relative="1" as="geometry" />
        </mxCell>
        <mxCell id="26eYyT7p3p_8_t_nS2mh-47" value="Conformance&lt;br&gt;Test Server" style="rounded=1;whiteSpace=wrap;html=1;fillColor=#1ba1e2;strokeColor=#006EAF;fontColor=#ffffff;" parent="EQFh07a-m8H78MCFVT7a-1" vertex="1">
          <mxGeometry x="778" y="1749" width="150" height="85" as="geometry" />
        </mxCell>
        <mxCell id="26eYyT7p3p_8_t_nS2mh-48" value="" style="shape=partialRectangle;whiteSpace=wrap;html=1;bottom=1;right=1;left=1;top=0;fillColor=none;routingCenterX=-0.5;" parent="EQFh07a-m8H78MCFVT7a-1" vertex="1">
          <mxGeometry x="667" y="1540" width="20" height="20" as="geometry" />
        </mxCell>
        <mxCell id="26eYyT7p3p_8_t_nS2mh-49" style="edgeStyle=orthogonalEdgeStyle;rounded=0;orthogonalLoop=1;jettySize=auto;html=1;exitX=0;exitY=0.25;exitDx=0;exitDy=0;entryX=1;entryY=0.5;entryDx=0;entryDy=0;endArrow=classic;endFill=1;" parent="EQFh07a-m8H78MCFVT7a-1" target="26eYyT7p3p_8_t_nS2mh-53" edge="1">
          <mxGeometry relative="1" as="geometry">
            <mxPoint x="410" y="1607.5" as="sourcePoint" />
          </mxGeometry>
        </mxCell>
        <mxCell id="26eYyT7p3p_8_t_nS2mh-50" style="edgeStyle=orthogonalEdgeStyle;rounded=0;orthogonalLoop=1;jettySize=auto;html=1;exitX=1;exitY=0.5;exitDx=0;exitDy=0;entryX=0;entryY=0.5;entryDx=0;entryDy=0;endArrow=classic;endFill=1;" parent="EQFh07a-m8H78MCFVT7a-1" target="26eYyT7p3p_8_t_nS2mh-55" edge="1">
          <mxGeometry relative="1" as="geometry">
            <mxPoint x="323" y="1634.5" as="sourcePoint" />
          </mxGeometry>
        </mxCell>
        <mxCell id="26eYyT7p3p_8_t_nS2mh-51" style="edgeStyle=orthogonalEdgeStyle;rounded=0;orthogonalLoop=1;jettySize=auto;html=1;exitX=1;exitY=0.75;exitDx=0;exitDy=0;entryX=0;entryY=0.75;entryDx=0;entryDy=0;endArrow=none;endFill=0;startArrow=classic;startFill=1;" parent="EQFh07a-m8H78MCFVT7a-1" edge="1">
          <mxGeometry relative="1" as="geometry">
            <mxPoint x="323" y="1661.5" as="sourcePoint" />
            <mxPoint x="410" y="1661.5" as="targetPoint" />
          </mxGeometry>
        </mxCell>
        <mxCell id="26eYyT7p3p_8_t_nS2mh-52" style="edgeStyle=orthogonalEdgeStyle;rounded=0;orthogonalLoop=1;jettySize=auto;html=1;exitX=0;exitY=0.5;exitDx=0;exitDy=0;entryX=1;entryY=0.25;entryDx=0;entryDy=0;endArrow=classic;endFill=1;" parent="EQFh07a-m8H78MCFVT7a-1" source="26eYyT7p3p_8_t_nS2mh-53" edge="1">
          <mxGeometry relative="1" as="geometry">
            <mxPoint x="323" y="1608" as="targetPoint" />
          </mxGeometry>
        </mxCell>
        <mxCell id="26eYyT7p3p_8_t_nS2mh-53" value="" style="shape=partialRectangle;whiteSpace=wrap;html=1;bottom=1;right=1;left=1;top=0;fillColor=none;routingCenterX=-0.5;" parent="EQFh07a-m8H78MCFVT7a-1" vertex="1">
          <mxGeometry x="356" y="1597.5" width="20" height="20" as="geometry" />
        </mxCell>
        <mxCell id="26eYyT7p3p_8_t_nS2mh-54" style="edgeStyle=orthogonalEdgeStyle;rounded=0;orthogonalLoop=1;jettySize=auto;html=1;exitX=1;exitY=0.5;exitDx=0;exitDy=0;endArrow=classic;endFill=1;" parent="EQFh07a-m8H78MCFVT7a-1" source="26eYyT7p3p_8_t_nS2mh-55" edge="1">
          <mxGeometry relative="1" as="geometry">
            <mxPoint x="410" y="1635" as="targetPoint" />
          </mxGeometry>
        </mxCell>
        <mxCell id="26eYyT7p3p_8_t_nS2mh-55" value="" style="shape=partialRectangle;whiteSpace=wrap;html=1;bottom=1;right=1;left=1;top=0;fillColor=none;routingCenterX=-0.5;" parent="EQFh07a-m8H78MCFVT7a-1" vertex="1">
          <mxGeometry x="356" y="1624.5" width="20" height="20" as="geometry" />
        </mxCell>
        <mxCell id="26eYyT7p3p_8_t_nS2mh-61" style="edgeStyle=orthogonalEdgeStyle;rounded=0;orthogonalLoop=1;jettySize=auto;html=1;entryX=0.5;entryY=0;entryDx=0;entryDy=0;" parent="EQFh07a-m8H78MCFVT7a-1" source="26eYyT7p3p_8_t_nS2mh-57" target="26eYyT7p3p_8_t_nS2mh-2" edge="1">
          <mxGeometry relative="1" as="geometry" />
        </mxCell>
        <mxCell id="26eYyT7p3p_8_t_nS2mh-57" value="" style="rounded=1;whiteSpace=wrap;html=1;fillColor=#6a00ff;strokeColor=#3700CC;fontColor=#ffffff;" parent="EQFh07a-m8H78MCFVT7a-1" vertex="1">
          <mxGeometry x="431.5" y="1240" width="116" height="70" as="geometry" />
        </mxCell>
        <mxCell id="26eYyT7p3p_8_t_nS2mh-58" value="Browser" style="rounded=1;whiteSpace=wrap;html=1;" parent="EQFh07a-m8H78MCFVT7a-1" vertex="1">
          <mxGeometry x="437.5" y="1245" width="104" height="60" as="geometry" />
        </mxCell>
        <mxCell id="26eYyT7p3p_8_t_nS2mh-62" style="edgeStyle=orthogonalEdgeStyle;rounded=0;orthogonalLoop=1;jettySize=auto;html=1;exitX=0.5;exitY=1;exitDx=0;exitDy=0;" parent="EQFh07a-m8H78MCFVT7a-1" source="26eYyT7p3p_8_t_nS2mh-59" target="26eYyT7p3p_8_t_nS2mh-2" edge="1">
          <mxGeometry relative="1" as="geometry" />
        </mxCell>
        <mxCell id="26eYyT7p3p_8_t_nS2mh-59" value="" style="rounded=1;whiteSpace=wrap;html=1;gradientColor=#b3b3b3;fillColor=#f5f5f5;strokeColor=#666666;" parent="EQFh07a-m8H78MCFVT7a-1" vertex="1">
          <mxGeometry x="562.5" y="1240" width="116" height="70" as="geometry" />
        </mxCell>
        <mxCell id="26eYyT7p3p_8_t_nS2mh-60" value="Another UI" style="rounded=1;whiteSpace=wrap;html=1;" parent="EQFh07a-m8H78MCFVT7a-1" vertex="1">
          <mxGeometry x="568.5" y="1245" width="104" height="60" as="geometry" />
        </mxCell>
        <mxCell id="12DMMVYVFWtL2pc7QRex-9" style="edgeStyle=orthogonalEdgeStyle;rounded=0;orthogonalLoop=1;jettySize=auto;html=1;exitX=0.5;exitY=0;exitDx=0;exitDy=0;startArrow=classic;startFill=1;endArrow=classic;endFill=1;" parent="EQFh07a-m8H78MCFVT7a-1" source="12DMMVYVFWtL2pc7QRex-6" target="26eYyT7p3p_8_t_nS2mh-2" edge="1">
          <mxGeometry relative="1" as="geometry" />
        </mxCell>
        <mxCell id="12DMMVYVFWtL2pc7QRex-6" value="View Server" style="rounded=1;whiteSpace=wrap;html=1;fillColor=#1ba1e2;strokeColor=#006EAF;fontColor=#ffffff;" parent="EQFh07a-m8H78MCFVT7a-1" vertex="1">
          <mxGeometry x="495" y="1450" width="116" height="70" as="geometry" />
        </mxCell>
      </root>
    </mxGraphModel>
  </diagram>
  <diagram id="FlGEEeDFaf4hGC9qBiIr" name="use-of-connectors">
    <mxGraphModel dx="1106" dy="789" grid="1" gridSize="10" guides="1" tooltips="1" connect="1" arrows="1" fold="1" page="1" pageScale="1" pageWidth="827" pageHeight="1169" math="0" shadow="0">
      <root>
        <mxCell id="A2IfuRbfCRBGZR7-fPr9-0" />
        <mxCell id="A2IfuRbfCRBGZR7-fPr9-1" parent="A2IfuRbfCRBGZR7-fPr9-0" />
        <mxCell id="A2IfuRbfCRBGZR7-fPr9-3" value="Application" style="rounded=0;whiteSpace=wrap;html=1;shadow=0;strokeWidth=1;fillColor=#ffff88;fontSize=20;verticalAlign=top;strokeColor=#36393d;opacity=60;" parent="A2IfuRbfCRBGZR7-fPr9-1" vertex="1">
          <mxGeometry x="1114.29" y="70" width="410" height="180" as="geometry" />
        </mxCell>
        <mxCell id="A2IfuRbfCRBGZR7-fPr9-5" value="" style="shape=cylinder;whiteSpace=wrap;html=1;boundedLbl=1;backgroundOutline=1;shadow=0;strokeWidth=1;fillColor=#60a917;fontSize=20;strokeColor=#2D7600;fontColor=#ffffff;" parent="A2IfuRbfCRBGZR7-fPr9-1" vertex="1">
          <mxGeometry x="1204.29" y="290" width="60" height="80" as="geometry" />
        </mxCell>
        <mxCell id="A2IfuRbfCRBGZR7-fPr9-6" value="OCF Connector" style="rounded=1;whiteSpace=wrap;html=1;shadow=1;strokeWidth=1;fillColor=#008a00;fontSize=20;verticalAlign=top;strokeColor=#005700;fontColor=#ffffff;" parent="A2IfuRbfCRBGZR7-fPr9-1" vertex="1">
          <mxGeometry x="1144.29" y="160" width="340" height="80" as="geometry" />
        </mxCell>
        <mxCell id="A2IfuRbfCRBGZR7-fPr9-7" style="edgeStyle=none;rounded=0;orthogonalLoop=1;jettySize=auto;html=1;exitX=0.5;exitY=1;exitDx=0;exitDy=0;startArrow=classic;startFill=1;endArrow=classic;endFill=1;strokeWidth=4;fontSize=20;" parent="A2IfuRbfCRBGZR7-fPr9-1" source="A2IfuRbfCRBGZR7-fPr9-4" target="A2IfuRbfCRBGZR7-fPr9-5" edge="1">
          <mxGeometry relative="1" as="geometry" />
        </mxCell>
        <mxCell id="A2IfuRbfCRBGZR7-fPr9-4" value="Client Library" style="rounded=0;whiteSpace=wrap;html=1;shadow=1;strokeWidth=1;fillColor=#60a917;fontSize=20;strokeColor=#2D7600;fontColor=#ffffff;" parent="A2IfuRbfCRBGZR7-fPr9-1" vertex="1">
          <mxGeometry x="1169.29" y="200" width="130" height="40" as="geometry" />
        </mxCell>
        <mxCell id="A2IfuRbfCRBGZR7-fPr9-8" value="Data Source&lt;br&gt;or Service" style="text;html=1;align=center;verticalAlign=middle;resizable=0;points=[];;autosize=1;fontSize=20;" parent="A2IfuRbfCRBGZR7-fPr9-1" vertex="1">
          <mxGeometry x="1064.29" y="305" width="130" height="50" as="geometry" />
        </mxCell>
        <mxCell id="A2IfuRbfCRBGZR7-fPr9-9" value="" style="shape=cylinder;whiteSpace=wrap;html=1;boundedLbl=1;backgroundOutline=1;shadow=0;strokeWidth=1;fillColor=#1ba1e2;fontSize=20;strokeColor=#006EAF;fontColor=#ffffff;" parent="A2IfuRbfCRBGZR7-fPr9-1" vertex="1">
          <mxGeometry x="1369.29" y="290" width="60" height="80" as="geometry" />
        </mxCell>
        <mxCell id="A2IfuRbfCRBGZR7-fPr9-10" style="edgeStyle=none;rounded=0;orthogonalLoop=1;jettySize=auto;html=1;exitX=0.5;exitY=1;exitDx=0;exitDy=0;startArrow=classic;startFill=1;endArrow=classic;endFill=1;strokeWidth=4;fontSize=20;fillColor=#1ba1e2;strokeColor=#006EAF;" parent="A2IfuRbfCRBGZR7-fPr9-1" source="A2IfuRbfCRBGZR7-fPr9-11" target="A2IfuRbfCRBGZR7-fPr9-9" edge="1">
          <mxGeometry relative="1" as="geometry" />
        </mxCell>
        <mxCell id="A2IfuRbfCRBGZR7-fPr9-11" value="Egeria" style="rounded=0;whiteSpace=wrap;html=1;shadow=1;strokeWidth=1;fillColor=#1ba1e2;fontSize=20;strokeColor=#006EAF;fontColor=#ffffff;" parent="A2IfuRbfCRBGZR7-fPr9-1" vertex="1">
          <mxGeometry x="1334.29" y="200" width="130" height="40" as="geometry" />
        </mxCell>
        <mxCell id="A2IfuRbfCRBGZR7-fPr9-12" value="Open&lt;br&gt;Metadata" style="text;html=1;align=center;verticalAlign=middle;resizable=0;points=[];;autosize=1;fontSize=20;" parent="A2IfuRbfCRBGZR7-fPr9-1" vertex="1">
          <mxGeometry x="1444.29" y="305" width="100" height="50" as="geometry" />
        </mxCell>
        <mxCell id="A2IfuRbfCRBGZR7-fPr9-13" value="Egeria" style="rounded=0;whiteSpace=wrap;html=1;shadow=0;strokeWidth=1;fillColor=#1ba1e2;fontSize=20;verticalAlign=top;strokeColor=#006EAF;opacity=60;fontColor=#000000;" parent="A2IfuRbfCRBGZR7-fPr9-1" vertex="1">
          <mxGeometry x="640" y="70" width="410" height="180" as="geometry" />
        </mxCell>
        <mxCell id="A2IfuRbfCRBGZR7-fPr9-14" value="" style="shape=cylinder;whiteSpace=wrap;html=1;boundedLbl=1;backgroundOutline=1;shadow=0;strokeWidth=1;fillColor=#60a917;fontSize=20;strokeColor=#2D7600;fontColor=#ffffff;" parent="A2IfuRbfCRBGZR7-fPr9-1" vertex="1">
          <mxGeometry x="806.71" y="290" width="60" height="80" as="geometry" />
        </mxCell>
        <mxCell id="A2IfuRbfCRBGZR7-fPr9-15" value="OCF Connector" style="rounded=1;whiteSpace=wrap;html=1;shadow=1;strokeWidth=1;fillColor=#1ba1e2;fontSize=20;verticalAlign=top;strokeColor=#006EAF;fontColor=#ffffff;" parent="A2IfuRbfCRBGZR7-fPr9-1" vertex="1">
          <mxGeometry x="670" y="160" width="340" height="80" as="geometry" />
        </mxCell>
        <mxCell id="A2IfuRbfCRBGZR7-fPr9-16" style="edgeStyle=none;rounded=0;orthogonalLoop=1;jettySize=auto;html=1;exitX=0.5;exitY=1;exitDx=0;exitDy=0;startArrow=classic;startFill=1;endArrow=classic;endFill=1;strokeWidth=4;fontSize=20;" parent="A2IfuRbfCRBGZR7-fPr9-1" source="A2IfuRbfCRBGZR7-fPr9-17" target="A2IfuRbfCRBGZR7-fPr9-14" edge="1">
          <mxGeometry relative="1" as="geometry" />
        </mxCell>
        <mxCell id="A2IfuRbfCRBGZR7-fPr9-17" value="Third Party Integration Logic" style="rounded=0;whiteSpace=wrap;html=1;shadow=1;strokeWidth=1;fillColor=#60a917;fontSize=20;strokeColor=#2D7600;fontColor=#ffffff;" parent="A2IfuRbfCRBGZR7-fPr9-1" vertex="1">
          <mxGeometry x="695" y="200" width="285" height="40" as="geometry" />
        </mxCell>
        <mxCell id="A2IfuRbfCRBGZR7-fPr9-18" value="Third Party&lt;br&gt;Technology" style="text;html=1;align=center;verticalAlign=middle;resizable=0;points=[];;autosize=1;fontSize=20;" parent="A2IfuRbfCRBGZR7-fPr9-1" vertex="1">
          <mxGeometry x="680" y="305" width="120" height="50" as="geometry" />
        </mxCell>
        <mxCell id="A2IfuRbfCRBGZR7-fPr9-23" value="1" style="ellipse;whiteSpace=wrap;html=1;aspect=fixed;shadow=1;strokeWidth=1;fillColor=#f5f5f5;fontSize=20;fontColor=#333333;opacity=60;strokeColor=#666666;fontStyle=1" parent="A2IfuRbfCRBGZR7-fPr9-1" vertex="1">
          <mxGeometry x="610" y="40" width="50" height="50" as="geometry" />
        </mxCell>
        <mxCell id="A2IfuRbfCRBGZR7-fPr9-24" value="2" style="ellipse;whiteSpace=wrap;html=1;aspect=fixed;shadow=1;strokeWidth=1;fillColor=#f5f5f5;fontSize=20;fontColor=#333333;opacity=60;strokeColor=#666666;fontStyle=1" parent="A2IfuRbfCRBGZR7-fPr9-1" vertex="1">
          <mxGeometry x="1085.29" y="40" width="50" height="50" as="geometry" />
        </mxCell>
      </root>
    </mxGraphModel>
  </diagram>
  <diagram id="1Qur7MrZbDl86bG-KSRV" name="connector-methods">
    <mxGraphModel dx="1106" dy="789" grid="0" gridSize="10" guides="0" tooltips="1" connect="1" arrows="1" fold="1" page="1" pageScale="1" pageWidth="827" pageHeight="1169" math="0" shadow="0">
      <root>
        <mxCell id="gc_Eygd9cRCRuSLFuLqq-0" />
        <mxCell id="gc_Eygd9cRCRuSLFuLqq-1" parent="gc_Eygd9cRCRuSLFuLqq-0" />
        <mxCell id="C4a_kqTlIIZG8EVP_tb--0" value="MyConnector" style="rounded=0;whiteSpace=wrap;html=1;shadow=1;strokeWidth=1;fillColor=#ffffff;fontSize=14;fontColor=#000000;align=center;verticalAlign=top;" parent="gc_Eygd9cRCRuSLFuLqq-1" vertex="1">
          <mxGeometry x="210" y="90" width="251" height="350" as="geometry" />
        </mxCell>
        <mxCell id="C4a_kqTlIIZG8EVP_tb--1" value="initialize()" style="rounded=0;whiteSpace=wrap;html=1;shadow=0;strokeWidth=1;fillColor=#fff2cc;fontSize=14;align=left;strokeColor=#d6b656;" parent="gc_Eygd9cRCRuSLFuLqq-1" vertex="1">
          <mxGeometry x="210" y="150" width="250" height="30" as="geometry" />
        </mxCell>
        <mxCell id="C4a_kqTlIIZG8EVP_tb--2" value="start()" style="rounded=0;whiteSpace=wrap;html=1;shadow=0;strokeWidth=1;fillColor=#fff2cc;fontSize=14;align=left;strokeColor=#d6b656;" parent="gc_Eygd9cRCRuSLFuLqq-1" vertex="1">
          <mxGeometry x="210" y="290" width="250" height="30" as="geometry" />
        </mxCell>
        <mxCell id="C4a_kqTlIIZG8EVP_tb--3" value="disconnect()" style="rounded=0;whiteSpace=wrap;html=1;shadow=0;strokeWidth=1;fillColor=#fff2cc;fontSize=14;align=left;strokeColor=#d6b656;" parent="gc_Eygd9cRCRuSLFuLqq-1" vertex="1">
          <mxGeometry x="210" y="410" width="250" height="30" as="geometry" />
        </mxCell>
        <mxCell id="C4a_kqTlIIZG8EVP_tb--4" value="MyConnector()" style="rounded=0;whiteSpace=wrap;html=1;shadow=0;strokeWidth=1;fontSize=14;align=left;" parent="gc_Eygd9cRCRuSLFuLqq-1" vertex="1">
          <mxGeometry x="210" y="120" width="251" height="30" as="geometry" />
        </mxCell>
        <mxCell id="C4a_kqTlIIZG8EVP_tb--5" value="initializeConnectedAssetProperties()" style="rounded=0;whiteSpace=wrap;html=1;shadow=0;strokeWidth=1;fillColor=#dae8fc;fontSize=14;align=left;strokeColor=#6c8ebf;" parent="gc_Eygd9cRCRuSLFuLqq-1" vertex="1">
          <mxGeometry x="210" y="180" width="250" height="30" as="geometry" />
        </mxCell>
        <mxCell id="C4a_kqTlIIZG8EVP_tb--6" value="" style="shape=flexArrow;endArrow=classic;html=1;strokeWidth=4;fontSize=14;fontColor=#000000;entryX=0.004;entryY=0.417;entryDx=0;entryDy=0;entryPerimeter=0;" parent="gc_Eygd9cRCRuSLFuLqq-1" target="C4a_kqTlIIZG8EVP_tb--0" edge="1">
          <mxGeometry width="50" height="50" relative="1" as="geometry">
            <mxPoint x="120" y="236" as="sourcePoint" />
            <mxPoint x="260" y="460" as="targetPoint" />
          </mxGeometry>
        </mxCell>
      </root>
    </mxGraphModel>
  </diagram>
  <diagram id="bjTxhtsOuMXdcATvAXh6" name="egeria-overview">
    <mxGraphModel dx="1933" dy="789" grid="1" gridSize="10" guides="1" tooltips="1" connect="1" arrows="1" fold="1" page="1" pageScale="1" pageWidth="827" pageHeight="1169" math="0" shadow="0">
      <root>
        <mxCell id="4H7qlk7V3E9ICv7X_ewr-0" />
        <mxCell id="4H7qlk7V3E9ICv7X_ewr-1" parent="4H7qlk7V3E9ICv7X_ewr-0" />
        <mxCell id="wlO6Tk5KwwG-XIpMtfAB-0" value="Egeria" style="ellipse;shape=cloud;whiteSpace=wrap;html=1;fillColor=#1ba1e2;strokeColor=#006EAF;fontSize=20;fontColor=#ffffff;" parent="4H7qlk7V3E9ICv7X_ewr-1" vertex="1">
          <mxGeometry x="100" y="110" width="600" height="350" as="geometry" />
        </mxCell>
        <mxCell id="wlO6Tk5KwwG-XIpMtfAB-1" value="ETL Engine" style="rounded=1;whiteSpace=wrap;html=1;fillColor=#647687;strokeColor=#314354;fontColor=#ffffff;" parent="4H7qlk7V3E9ICv7X_ewr-1" vertex="1">
          <mxGeometry x="100" y="480" width="120" height="60" as="geometry" />
        </mxCell>
        <mxCell id="wlO6Tk5KwwG-XIpMtfAB-2" value="Data Science Tool" style="rounded=1;whiteSpace=wrap;html=1;fillColor=#647687;strokeColor=#314354;fontColor=#ffffff;" parent="4H7qlk7V3E9ICv7X_ewr-1" vertex="1">
          <mxGeometry x="600" y="60" width="120" height="60" as="geometry" />
        </mxCell>
        <mxCell id="wlO6Tk5KwwG-XIpMtfAB-4" value="BI Platform" style="rounded=1;whiteSpace=wrap;html=1;fillColor=#647687;strokeColor=#314354;fontColor=#ffffff;" parent="4H7qlk7V3E9ICv7X_ewr-1" vertex="1">
          <mxGeometry x="290" y="510" width="120" height="60" as="geometry" />
        </mxCell>
        <mxCell id="wlO6Tk5KwwG-XIpMtfAB-5" value="Governance&lt;br&gt;Tool" style="rounded=1;whiteSpace=wrap;html=1;fillColor=#647687;strokeColor=#314354;fontColor=#ffffff;" parent="4H7qlk7V3E9ICv7X_ewr-1" vertex="1">
          <mxGeometry x="430" y="30" width="120" height="60" as="geometry" />
        </mxCell>
        <mxCell id="wlO6Tk5KwwG-XIpMtfAB-6" value="Data Catalog Tool" style="rounded=1;whiteSpace=wrap;html=1;fillColor=#647687;strokeColor=#314354;fontColor=#ffffff;" parent="4H7qlk7V3E9ICv7X_ewr-1" vertex="1">
          <mxGeometry x="50" y="100" width="120" height="60" as="geometry" />
        </mxCell>
        <mxCell id="wlO6Tk5KwwG-XIpMtfAB-7" value="Enterprise&lt;br&gt;Architecture&lt;br&gt;Tool" style="rounded=1;whiteSpace=wrap;html=1;fillColor=#647687;strokeColor=#314354;fontColor=#ffffff;" parent="4H7qlk7V3E9ICv7X_ewr-1" vertex="1">
          <mxGeometry x="750" y="200" width="120" height="60" as="geometry" />
        </mxCell>
        <mxCell id="wlO6Tk5KwwG-XIpMtfAB-8" value="DevOps Pipeline" style="rounded=1;whiteSpace=wrap;html=1;fillColor=#647687;strokeColor=#314354;fontColor=#ffffff;" parent="4H7qlk7V3E9ICv7X_ewr-1" vertex="1">
          <mxGeometry x="750" y="370" width="120" height="60" as="geometry" />
        </mxCell>
        <mxCell id="wlO6Tk5KwwG-XIpMtfAB-9" value="ITIL Platform" style="rounded=1;whiteSpace=wrap;html=1;fillColor=#647687;strokeColor=#314354;fontColor=#ffffff;" parent="4H7qlk7V3E9ICv7X_ewr-1" vertex="1">
          <mxGeometry x="640" y="500" width="120" height="60" as="geometry" />
        </mxCell>
        <mxCell id="wlO6Tk5KwwG-XIpMtfAB-10" value="Ontology&lt;br&gt;Tool" style="rounded=1;whiteSpace=wrap;html=1;fillColor=#647687;strokeColor=#314354;fontColor=#ffffff;" parent="4H7qlk7V3E9ICv7X_ewr-1" vertex="1">
          <mxGeometry x="220" y="30" width="120" height="60" as="geometry" />
        </mxCell>
        <mxCell id="wlO6Tk5KwwG-XIpMtfAB-11" value="" style="shape=flexArrow;endArrow=classic;startArrow=classic;html=1;entryX=0.228;entryY=0.82;entryDx=0;entryDy=0;entryPerimeter=0;exitX=0.667;exitY=-0.05;exitDx=0;exitDy=0;exitPerimeter=0;fillColor=#e3c800;strokeColor=#B09500;" parent="4H7qlk7V3E9ICv7X_ewr-1" source="wlO6Tk5KwwG-XIpMtfAB-1" target="wlO6Tk5KwwG-XIpMtfAB-0" edge="1">
          <mxGeometry width="50" height="50" relative="1" as="geometry">
            <mxPoint x="20" y="650" as="sourcePoint" />
            <mxPoint x="70" y="600" as="targetPoint" />
          </mxGeometry>
        </mxCell>
        <mxCell id="wlO6Tk5KwwG-XIpMtfAB-12" value="" style="shape=flexArrow;endArrow=classic;startArrow=classic;html=1;entryX=0.142;entryY=0.286;entryDx=0;entryDy=0;entryPerimeter=0;exitX=0.75;exitY=1;exitDx=0;exitDy=0;fillColor=#e3c800;strokeColor=#B09500;" parent="4H7qlk7V3E9ICv7X_ewr-1" source="wlO6Tk5KwwG-XIpMtfAB-6" target="wlO6Tk5KwwG-XIpMtfAB-0" edge="1">
          <mxGeometry width="50" height="50" relative="1" as="geometry">
            <mxPoint x="20" y="650" as="sourcePoint" />
            <mxPoint x="70" y="600" as="targetPoint" />
          </mxGeometry>
        </mxCell>
        <mxCell id="wlO6Tk5KwwG-XIpMtfAB-13" value="" style="shape=flexArrow;endArrow=classic;startArrow=classic;html=1;entryX=0.5;entryY=1;entryDx=0;entryDy=0;exitX=0.35;exitY=0.114;exitDx=0;exitDy=0;exitPerimeter=0;fillColor=#e3c800;strokeColor=#B09500;" parent="4H7qlk7V3E9ICv7X_ewr-1" source="wlO6Tk5KwwG-XIpMtfAB-0" target="wlO6Tk5KwwG-XIpMtfAB-10" edge="1">
          <mxGeometry width="50" height="50" relative="1" as="geometry">
            <mxPoint x="50" y="650" as="sourcePoint" />
            <mxPoint x="100" y="600" as="targetPoint" />
          </mxGeometry>
        </mxCell>
        <mxCell id="wlO6Tk5KwwG-XIpMtfAB-14" value="" style="shape=flexArrow;endArrow=classic;startArrow=classic;html=1;entryX=0.5;entryY=1;entryDx=0;entryDy=0;fillColor=#e3c800;strokeColor=#B09500;" parent="4H7qlk7V3E9ICv7X_ewr-1" target="wlO6Tk5KwwG-XIpMtfAB-5" edge="1">
          <mxGeometry width="50" height="50" relative="1" as="geometry">
            <mxPoint x="440" y="160" as="sourcePoint" />
            <mxPoint x="100" y="600" as="targetPoint" />
          </mxGeometry>
        </mxCell>
        <mxCell id="wlO6Tk5KwwG-XIpMtfAB-15" value="" style="shape=flexArrow;endArrow=classic;startArrow=classic;html=1;entryX=0.425;entryY=1;entryDx=0;entryDy=0;entryPerimeter=0;exitX=0.832;exitY=0.211;exitDx=0;exitDy=0;exitPerimeter=0;fillColor=#e3c800;strokeColor=#B09500;" parent="4H7qlk7V3E9ICv7X_ewr-1" source="wlO6Tk5KwwG-XIpMtfAB-0" target="wlO6Tk5KwwG-XIpMtfAB-2" edge="1">
          <mxGeometry width="50" height="50" relative="1" as="geometry">
            <mxPoint x="50" y="650" as="sourcePoint" />
            <mxPoint x="100" y="600" as="targetPoint" />
          </mxGeometry>
        </mxCell>
        <mxCell id="wlO6Tk5KwwG-XIpMtfAB-16" value="" style="shape=flexArrow;endArrow=classic;startArrow=classic;html=1;entryX=0;entryY=0.5;entryDx=0;entryDy=0;exitX=0.915;exitY=0.354;exitDx=0;exitDy=0;exitPerimeter=0;fillColor=#e3c800;strokeColor=#B09500;" parent="4H7qlk7V3E9ICv7X_ewr-1" source="wlO6Tk5KwwG-XIpMtfAB-0" target="wlO6Tk5KwwG-XIpMtfAB-7" edge="1">
          <mxGeometry width="50" height="50" relative="1" as="geometry">
            <mxPoint x="50" y="650" as="sourcePoint" />
            <mxPoint x="100" y="600" as="targetPoint" />
          </mxGeometry>
        </mxCell>
        <mxCell id="wlO6Tk5KwwG-XIpMtfAB-17" value="Data Platform" style="rounded=1;whiteSpace=wrap;html=1;fillColor=#647687;strokeColor=#314354;fontColor=#ffffff;" parent="4H7qlk7V3E9ICv7X_ewr-1" vertex="1">
          <mxGeometry x="470" y="510" width="120" height="60" as="geometry" />
        </mxCell>
        <mxCell id="wlO6Tk5KwwG-XIpMtfAB-18" value="" style="shape=flexArrow;endArrow=classic;startArrow=classic;html=1;entryX=0.47;entryY=0.937;entryDx=0;entryDy=0;entryPerimeter=0;exitX=0.5;exitY=0;exitDx=0;exitDy=0;fillColor=#e3c800;strokeColor=#B09500;" parent="4H7qlk7V3E9ICv7X_ewr-1" source="wlO6Tk5KwwG-XIpMtfAB-4" target="wlO6Tk5KwwG-XIpMtfAB-0" edge="1">
          <mxGeometry width="50" height="50" relative="1" as="geometry">
            <mxPoint x="50" y="640" as="sourcePoint" />
            <mxPoint x="100" y="590" as="targetPoint" />
          </mxGeometry>
        </mxCell>
        <mxCell id="wlO6Tk5KwwG-XIpMtfAB-19" value="" style="shape=flexArrow;endArrow=classic;startArrow=classic;html=1;entryX=0.685;entryY=0.92;entryDx=0;entryDy=0;entryPerimeter=0;exitX=0.5;exitY=0;exitDx=0;exitDy=0;fillColor=#e3c800;strokeColor=#B09500;" parent="4H7qlk7V3E9ICv7X_ewr-1" source="wlO6Tk5KwwG-XIpMtfAB-17" target="wlO6Tk5KwwG-XIpMtfAB-0" edge="1">
          <mxGeometry width="50" height="50" relative="1" as="geometry">
            <mxPoint x="50" y="640" as="sourcePoint" />
            <mxPoint x="100" y="590" as="targetPoint" />
          </mxGeometry>
        </mxCell>
        <mxCell id="wlO6Tk5KwwG-XIpMtfAB-20" value="" style="shape=flexArrow;endArrow=classic;startArrow=classic;html=1;entryX=0.872;entryY=0.786;entryDx=0;entryDy=0;entryPerimeter=0;exitX=0.5;exitY=0;exitDx=0;exitDy=0;fillColor=#e3c800;strokeColor=#B09500;" parent="4H7qlk7V3E9ICv7X_ewr-1" source="wlO6Tk5KwwG-XIpMtfAB-9" target="wlO6Tk5KwwG-XIpMtfAB-0" edge="1">
          <mxGeometry width="50" height="50" relative="1" as="geometry">
            <mxPoint x="50" y="640" as="sourcePoint" />
            <mxPoint x="100" y="590" as="targetPoint" />
          </mxGeometry>
        </mxCell>
        <mxCell id="wlO6Tk5KwwG-XIpMtfAB-21" value="" style="shape=flexArrow;endArrow=classic;startArrow=classic;html=1;entryX=0.96;entryY=0.7;entryDx=0;entryDy=0;entryPerimeter=0;fillColor=#e3c800;strokeColor=#B09500;" parent="4H7qlk7V3E9ICv7X_ewr-1" source="wlO6Tk5KwwG-XIpMtfAB-8" target="wlO6Tk5KwwG-XIpMtfAB-0" edge="1">
          <mxGeometry width="50" height="50" relative="1" as="geometry">
            <mxPoint x="50" y="640" as="sourcePoint" />
            <mxPoint x="100" y="590" as="targetPoint" />
          </mxGeometry>
        </mxCell>
        <mxCell id="wlO6Tk5KwwG-XIpMtfAB-22" value="Discovery Tool" style="rounded=1;whiteSpace=wrap;html=1;fillColor=#647687;strokeColor=#314354;fontColor=#ffffff;" parent="4H7qlk7V3E9ICv7X_ewr-1" vertex="1">
          <mxGeometry x="-40" y="220" width="120" height="60" as="geometry" />
        </mxCell>
        <mxCell id="wlO6Tk5KwwG-XIpMtfAB-23" value="" style="shape=flexArrow;endArrow=classic;startArrow=classic;html=1;entryX=0.07;entryY=0.4;entryDx=0;entryDy=0;entryPerimeter=0;exitX=1;exitY=0.5;exitDx=0;exitDy=0;fillColor=#e3c800;strokeColor=#B09500;" parent="4H7qlk7V3E9ICv7X_ewr-1" source="wlO6Tk5KwwG-XIpMtfAB-22" target="wlO6Tk5KwwG-XIpMtfAB-0" edge="1">
          <mxGeometry width="50" height="50" relative="1" as="geometry">
            <mxPoint x="-40" y="640" as="sourcePoint" />
            <mxPoint x="10" y="590" as="targetPoint" />
          </mxGeometry>
        </mxCell>
        <mxCell id="-Hu_KarzQUF6cEsmlc-b-0" value="Security&lt;br&gt;Enforcement&lt;br&gt;Engine" style="rounded=1;whiteSpace=wrap;html=1;fillColor=#647687;strokeColor=#314354;fontColor=#ffffff;" parent="4H7qlk7V3E9ICv7X_ewr-1" vertex="1">
          <mxGeometry x="-20" y="372" width="120" height="60" as="geometry" />
        </mxCell>
        <mxCell id="-Hu_KarzQUF6cEsmlc-b-1" value="" style="shape=flexArrow;endArrow=classic;startArrow=classic;html=1;entryX=0;entryY=0.7;entryDx=0;entryDy=0;entryPerimeter=0;exitX=1;exitY=0.25;exitDx=0;exitDy=0;fillColor=#e3c800;strokeColor=#B09500;" parent="4H7qlk7V3E9ICv7X_ewr-1" source="-Hu_KarzQUF6cEsmlc-b-0" edge="1">
          <mxGeometry width="50" height="50" relative="1" as="geometry">
            <mxPoint x="-40" y="612" as="sourcePoint" />
            <mxPoint x="161" y="350" as="targetPoint" />
          </mxGeometry>
        </mxCell>
      </root>
    </mxGraphModel>
  </diagram>
  <diagram name="Copy of egeria-overview" id="6ietRn8E1kpSs_psO1ID">
    <mxGraphModel dx="1933" dy="789" grid="1" gridSize="10" guides="1" tooltips="1" connect="1" arrows="1" fold="1" page="1" pageScale="1" pageWidth="827" pageHeight="1169" math="0" shadow="0">
      <root>
        <mxCell id="9wfdvAxeRkV-qU15ELbO-0" />
        <mxCell id="9wfdvAxeRkV-qU15ELbO-1" parent="9wfdvAxeRkV-qU15ELbO-0" />
        <mxCell id="9wfdvAxeRkV-qU15ELbO-43" style="edgeStyle=none;rounded=0;orthogonalLoop=1;jettySize=auto;html=1;exitX=1;exitY=0;exitDx=0;exitDy=0;startArrow=classic;startFill=1;endArrow=classic;endFill=1;fontSize=20;strokeWidth=4;" parent="9wfdvAxeRkV-qU15ELbO-1" source="9wfdvAxeRkV-qU15ELbO-3" target="9wfdvAxeRkV-qU15ELbO-18" edge="1">
          <mxGeometry relative="1" as="geometry" />
        </mxCell>
        <mxCell id="9wfdvAxeRkV-qU15ELbO-3" value="ETL Engine" style="rounded=1;whiteSpace=wrap;html=1;fillColor=#647687;strokeColor=#314354;fontColor=#ffffff;strokeWidth=1;" parent="9wfdvAxeRkV-qU15ELbO-1" vertex="1">
          <mxGeometry x="100" y="480" width="120" height="60" as="geometry" />
        </mxCell>
        <mxCell id="9wfdvAxeRkV-qU15ELbO-32" style="edgeStyle=none;rounded=0;orthogonalLoop=1;jettySize=auto;html=1;exitX=0.5;exitY=1;exitDx=0;exitDy=0;startArrow=classic;startFill=1;endArrow=classic;endFill=1;fontSize=20;entryX=0.75;entryY=0;entryDx=0;entryDy=0;strokeWidth=4;" parent="9wfdvAxeRkV-qU15ELbO-1" source="9wfdvAxeRkV-qU15ELbO-4" target="9wfdvAxeRkV-qU15ELbO-18" edge="1">
          <mxGeometry relative="1" as="geometry" />
        </mxCell>
        <mxCell id="9wfdvAxeRkV-qU15ELbO-4" value="Data Science Tool" style="rounded=1;whiteSpace=wrap;html=1;fillColor=#647687;strokeColor=#314354;fontColor=#ffffff;strokeWidth=1;" parent="9wfdvAxeRkV-qU15ELbO-1" vertex="1">
          <mxGeometry x="630" y="80" width="120" height="60" as="geometry" />
        </mxCell>
        <mxCell id="9wfdvAxeRkV-qU15ELbO-47" style="edgeStyle=none;rounded=0;orthogonalLoop=1;jettySize=auto;html=1;exitX=1;exitY=0.5;exitDx=0;exitDy=0;startArrow=classic;startFill=1;endArrow=classic;endFill=1;fontSize=20;strokeWidth=4;" parent="9wfdvAxeRkV-qU15ELbO-1" source="9wfdvAxeRkV-qU15ELbO-5" target="9wfdvAxeRkV-qU15ELbO-18" edge="1">
          <mxGeometry relative="1" as="geometry" />
        </mxCell>
        <mxCell id="9wfdvAxeRkV-qU15ELbO-48" style="edgeStyle=none;rounded=0;orthogonalLoop=1;jettySize=auto;html=1;exitX=0;exitY=0.5;exitDx=0;exitDy=0;entryX=1;entryY=0.5;entryDx=0;entryDy=0;startArrow=classic;startFill=1;endArrow=classic;endFill=1;fontSize=20;strokeWidth=4;" parent="9wfdvAxeRkV-qU15ELbO-1" source="9wfdvAxeRkV-qU15ELbO-5" target="9wfdvAxeRkV-qU15ELbO-3" edge="1">
          <mxGeometry relative="1" as="geometry" />
        </mxCell>
        <mxCell id="9wfdvAxeRkV-qU15ELbO-5" value="BI Platform" style="rounded=1;whiteSpace=wrap;html=1;fillColor=#647687;strokeColor=#314354;fontColor=#ffffff;strokeWidth=1;" parent="9wfdvAxeRkV-qU15ELbO-1" vertex="1">
          <mxGeometry x="280" y="530" width="120" height="60" as="geometry" />
        </mxCell>
        <mxCell id="9wfdvAxeRkV-qU15ELbO-41" style="edgeStyle=none;rounded=0;orthogonalLoop=1;jettySize=auto;html=1;exitX=1;exitY=0.5;exitDx=0;exitDy=0;startArrow=classic;startFill=1;endArrow=classic;endFill=1;fontSize=20;strokeWidth=4;" parent="9wfdvAxeRkV-qU15ELbO-1" source="9wfdvAxeRkV-qU15ELbO-6" target="9wfdvAxeRkV-qU15ELbO-4" edge="1">
          <mxGeometry relative="1" as="geometry" />
        </mxCell>
        <mxCell id="9wfdvAxeRkV-qU15ELbO-6" value="Governance&lt;br&gt;Tool" style="rounded=1;whiteSpace=wrap;html=1;fillColor=#647687;strokeColor=#314354;fontColor=#ffffff;strokeWidth=1;" parent="9wfdvAxeRkV-qU15ELbO-1" vertex="1">
          <mxGeometry x="430" y="30" width="120" height="60" as="geometry" />
        </mxCell>
        <mxCell id="9wfdvAxeRkV-qU15ELbO-27" style="edgeStyle=none;rounded=0;orthogonalLoop=1;jettySize=auto;html=1;exitX=1;exitY=1;exitDx=0;exitDy=0;startArrow=classic;startFill=1;endArrow=classic;endFill=1;fontSize=20;entryX=0.5;entryY=0;entryDx=0;entryDy=0;strokeWidth=4;" parent="9wfdvAxeRkV-qU15ELbO-1" source="9wfdvAxeRkV-qU15ELbO-7" target="9wfdvAxeRkV-qU15ELbO-18" edge="1">
          <mxGeometry relative="1" as="geometry">
            <mxPoint x="500" y="460" as="targetPoint" />
          </mxGeometry>
        </mxCell>
        <mxCell id="9wfdvAxeRkV-qU15ELbO-33" style="edgeStyle=none;rounded=0;orthogonalLoop=1;jettySize=auto;html=1;exitX=0.75;exitY=1;exitDx=0;exitDy=0;entryX=0.5;entryY=0;entryDx=0;entryDy=0;startArrow=classic;startFill=1;endArrow=classic;endFill=1;fontSize=20;strokeWidth=4;" parent="9wfdvAxeRkV-qU15ELbO-1" source="9wfdvAxeRkV-qU15ELbO-7" target="9wfdvAxeRkV-qU15ELbO-5" edge="1">
          <mxGeometry relative="1" as="geometry" />
        </mxCell>
        <mxCell id="9wfdvAxeRkV-qU15ELbO-34" style="edgeStyle=none;rounded=0;orthogonalLoop=1;jettySize=auto;html=1;exitX=0.5;exitY=1;exitDx=0;exitDy=0;startArrow=classic;startFill=1;endArrow=classic;endFill=1;fontSize=20;strokeWidth=4;" parent="9wfdvAxeRkV-qU15ELbO-1" source="9wfdvAxeRkV-qU15ELbO-7" target="9wfdvAxeRkV-qU15ELbO-3" edge="1">
          <mxGeometry relative="1" as="geometry" />
        </mxCell>
        <mxCell id="9wfdvAxeRkV-qU15ELbO-50" style="edgeStyle=none;rounded=0;orthogonalLoop=1;jettySize=auto;html=1;exitX=0.75;exitY=0;exitDx=0;exitDy=0;entryX=0;entryY=0.5;entryDx=0;entryDy=0;startArrow=classic;startFill=1;endArrow=classic;endFill=1;fontSize=20;strokeWidth=4;" parent="9wfdvAxeRkV-qU15ELbO-1" source="9wfdvAxeRkV-qU15ELbO-7" target="9wfdvAxeRkV-qU15ELbO-11" edge="1">
          <mxGeometry relative="1" as="geometry" />
        </mxCell>
        <mxCell id="9wfdvAxeRkV-qU15ELbO-7" value="Data Catalog Tool" style="rounded=1;whiteSpace=wrap;html=1;fillColor=#647687;strokeColor=#314354;fontColor=#ffffff;strokeWidth=1;" parent="9wfdvAxeRkV-qU15ELbO-1" vertex="1">
          <mxGeometry x="50" y="100" width="120" height="60" as="geometry" />
        </mxCell>
        <mxCell id="9wfdvAxeRkV-qU15ELbO-31" style="edgeStyle=none;rounded=0;orthogonalLoop=1;jettySize=auto;html=1;exitX=0;exitY=0.75;exitDx=0;exitDy=0;entryX=0.75;entryY=0;entryDx=0;entryDy=0;startArrow=classic;startFill=1;endArrow=classic;endFill=1;fontSize=20;strokeWidth=4;" parent="9wfdvAxeRkV-qU15ELbO-1" source="9wfdvAxeRkV-qU15ELbO-8" target="9wfdvAxeRkV-qU15ELbO-5" edge="1">
          <mxGeometry relative="1" as="geometry" />
        </mxCell>
        <mxCell id="9wfdvAxeRkV-qU15ELbO-44" style="edgeStyle=none;rounded=0;orthogonalLoop=1;jettySize=auto;html=1;exitX=0;exitY=0.25;exitDx=0;exitDy=0;entryX=1;entryY=0.5;entryDx=0;entryDy=0;startArrow=classic;startFill=1;endArrow=classic;endFill=1;fontSize=20;strokeWidth=4;" parent="9wfdvAxeRkV-qU15ELbO-1" source="9wfdvAxeRkV-qU15ELbO-8" target="9wfdvAxeRkV-qU15ELbO-7" edge="1">
          <mxGeometry relative="1" as="geometry" />
        </mxCell>
        <mxCell id="9wfdvAxeRkV-qU15ELbO-45" style="edgeStyle=none;rounded=0;orthogonalLoop=1;jettySize=auto;html=1;exitX=0.5;exitY=1;exitDx=0;exitDy=0;startArrow=classic;startFill=1;endArrow=classic;endFill=1;fontSize=20;strokeWidth=4;" parent="9wfdvAxeRkV-qU15ELbO-1" source="9wfdvAxeRkV-qU15ELbO-8" target="9wfdvAxeRkV-qU15ELbO-9" edge="1">
          <mxGeometry relative="1" as="geometry" />
        </mxCell>
        <mxCell id="9wfdvAxeRkV-qU15ELbO-8" value="Enterprise&lt;br&gt;Architecture&lt;br&gt;Tool" style="rounded=1;whiteSpace=wrap;html=1;fillColor=#647687;strokeColor=#314354;fontColor=#ffffff;strokeWidth=1;" parent="9wfdvAxeRkV-qU15ELbO-1" vertex="1">
          <mxGeometry x="750" y="200" width="120" height="60" as="geometry" />
        </mxCell>
        <mxCell id="9wfdvAxeRkV-qU15ELbO-30" style="edgeStyle=none;rounded=0;orthogonalLoop=1;jettySize=auto;html=1;exitX=0.25;exitY=0;exitDx=0;exitDy=0;startArrow=classic;startFill=1;endArrow=classic;endFill=1;fontSize=20;strokeWidth=4;" parent="9wfdvAxeRkV-qU15ELbO-1" source="9wfdvAxeRkV-qU15ELbO-9" target="9wfdvAxeRkV-qU15ELbO-6" edge="1">
          <mxGeometry relative="1" as="geometry" />
        </mxCell>
        <mxCell id="9wfdvAxeRkV-qU15ELbO-9" value="DevOps Pipeline" style="rounded=1;whiteSpace=wrap;html=1;fillColor=#647687;strokeColor=#314354;fontColor=#ffffff;strokeWidth=1;" parent="9wfdvAxeRkV-qU15ELbO-1" vertex="1">
          <mxGeometry x="750" y="370" width="120" height="60" as="geometry" />
        </mxCell>
        <mxCell id="9wfdvAxeRkV-qU15ELbO-40" style="edgeStyle=none;rounded=0;orthogonalLoop=1;jettySize=auto;html=1;exitX=0.5;exitY=0;exitDx=0;exitDy=0;entryX=0.5;entryY=1;entryDx=0;entryDy=0;startArrow=classic;startFill=1;endArrow=classic;endFill=1;fontSize=20;strokeWidth=4;" parent="9wfdvAxeRkV-qU15ELbO-1" source="9wfdvAxeRkV-qU15ELbO-10" target="9wfdvAxeRkV-qU15ELbO-6" edge="1">
          <mxGeometry relative="1" as="geometry" />
        </mxCell>
        <mxCell id="9wfdvAxeRkV-qU15ELbO-46" style="edgeStyle=none;rounded=0;orthogonalLoop=1;jettySize=auto;html=1;exitX=0.75;exitY=0;exitDx=0;exitDy=0;entryX=0.5;entryY=1;entryDx=0;entryDy=0;startArrow=classic;startFill=1;endArrow=classic;endFill=1;fontSize=20;strokeWidth=4;" parent="9wfdvAxeRkV-qU15ELbO-1" source="9wfdvAxeRkV-qU15ELbO-10" target="9wfdvAxeRkV-qU15ELbO-9" edge="1">
          <mxGeometry relative="1" as="geometry" />
        </mxCell>
        <mxCell id="9wfdvAxeRkV-qU15ELbO-49" style="edgeStyle=none;rounded=0;orthogonalLoop=1;jettySize=auto;html=1;startArrow=classic;startFill=1;endArrow=classic;endFill=1;fontSize=20;strokeWidth=4;" parent="9wfdvAxeRkV-qU15ELbO-1" source="9wfdvAxeRkV-qU15ELbO-10" target="9wfdvAxeRkV-qU15ELbO-18" edge="1">
          <mxGeometry relative="1" as="geometry" />
        </mxCell>
        <mxCell id="9wfdvAxeRkV-qU15ELbO-10" value="ITIL Platform" style="rounded=1;whiteSpace=wrap;html=1;fillColor=#647687;strokeColor=#314354;fontColor=#ffffff;strokeWidth=1;" parent="9wfdvAxeRkV-qU15ELbO-1" vertex="1">
          <mxGeometry x="660" y="490" width="120" height="60" as="geometry" />
        </mxCell>
        <mxCell id="9wfdvAxeRkV-qU15ELbO-29" style="edgeStyle=none;rounded=0;orthogonalLoop=1;jettySize=auto;html=1;exitX=1;exitY=0.75;exitDx=0;exitDy=0;startArrow=classic;startFill=1;endArrow=classic;endFill=1;fontSize=20;strokeWidth=4;" parent="9wfdvAxeRkV-qU15ELbO-1" source="9wfdvAxeRkV-qU15ELbO-11" target="9wfdvAxeRkV-qU15ELbO-10" edge="1">
          <mxGeometry relative="1" as="geometry" />
        </mxCell>
        <mxCell id="9wfdvAxeRkV-qU15ELbO-37" style="edgeStyle=none;rounded=0;orthogonalLoop=1;jettySize=auto;html=1;exitX=0.25;exitY=1;exitDx=0;exitDy=0;entryX=1;entryY=0.25;entryDx=0;entryDy=0;startArrow=classic;startFill=1;endArrow=classic;endFill=1;fontSize=20;strokeWidth=4;" parent="9wfdvAxeRkV-qU15ELbO-1" source="9wfdvAxeRkV-qU15ELbO-11" target="9wfdvAxeRkV-qU15ELbO-23" edge="1">
          <mxGeometry relative="1" as="geometry" />
        </mxCell>
        <mxCell id="9wfdvAxeRkV-qU15ELbO-38" style="edgeStyle=none;rounded=0;orthogonalLoop=1;jettySize=auto;html=1;exitX=0.75;exitY=1;exitDx=0;exitDy=0;startArrow=classic;startFill=1;endArrow=classic;endFill=1;fontSize=20;strokeWidth=4;" parent="9wfdvAxeRkV-qU15ELbO-1" source="9wfdvAxeRkV-qU15ELbO-11" edge="1">
          <mxGeometry relative="1" as="geometry">
            <mxPoint x="550" y="510" as="targetPoint" />
          </mxGeometry>
        </mxCell>
        <mxCell id="9wfdvAxeRkV-qU15ELbO-42" style="edgeStyle=none;rounded=0;orthogonalLoop=1;jettySize=auto;html=1;exitX=1;exitY=0.5;exitDx=0;exitDy=0;startArrow=classic;startFill=1;endArrow=classic;endFill=1;fontSize=20;strokeWidth=4;" parent="9wfdvAxeRkV-qU15ELbO-1" source="9wfdvAxeRkV-qU15ELbO-11" target="9wfdvAxeRkV-qU15ELbO-6" edge="1">
          <mxGeometry relative="1" as="geometry" />
        </mxCell>
        <mxCell id="9wfdvAxeRkV-qU15ELbO-11" value="Ontology&lt;br&gt;Tool" style="rounded=1;whiteSpace=wrap;html=1;fillColor=#647687;strokeColor=#314354;fontColor=#ffffff;strokeWidth=1;" parent="9wfdvAxeRkV-qU15ELbO-1" vertex="1">
          <mxGeometry x="240" y="40" width="120" height="60" as="geometry" />
        </mxCell>
        <mxCell id="9wfdvAxeRkV-qU15ELbO-18" value="Data Platform" style="rounded=1;whiteSpace=wrap;html=1;fillColor=#647687;strokeColor=#314354;fontColor=#ffffff;strokeWidth=1;" parent="9wfdvAxeRkV-qU15ELbO-1" vertex="1">
          <mxGeometry x="470" y="510" width="120" height="60" as="geometry" />
        </mxCell>
        <mxCell id="9wfdvAxeRkV-qU15ELbO-28" style="edgeStyle=none;rounded=0;orthogonalLoop=1;jettySize=auto;html=1;exitX=1;exitY=0.5;exitDx=0;exitDy=0;startArrow=classic;startFill=1;endArrow=classic;endFill=1;fontSize=20;strokeWidth=4;" parent="9wfdvAxeRkV-qU15ELbO-1" source="9wfdvAxeRkV-qU15ELbO-23" target="9wfdvAxeRkV-qU15ELbO-6" edge="1">
          <mxGeometry relative="1" as="geometry" />
        </mxCell>
        <mxCell id="9wfdvAxeRkV-qU15ELbO-35" style="edgeStyle=none;rounded=0;orthogonalLoop=1;jettySize=auto;html=1;exitX=1;exitY=1;exitDx=0;exitDy=0;entryX=0.25;entryY=0;entryDx=0;entryDy=0;startArrow=classic;startFill=1;endArrow=classic;endFill=1;fontSize=20;strokeWidth=4;" parent="9wfdvAxeRkV-qU15ELbO-1" source="9wfdvAxeRkV-qU15ELbO-23" target="9wfdvAxeRkV-qU15ELbO-18" edge="1">
          <mxGeometry relative="1" as="geometry" />
        </mxCell>
        <mxCell id="9wfdvAxeRkV-qU15ELbO-39" style="edgeStyle=none;rounded=0;orthogonalLoop=1;jettySize=auto;html=1;exitX=1;exitY=0.75;exitDx=0;exitDy=0;entryX=0;entryY=0.5;entryDx=0;entryDy=0;startArrow=classic;startFill=1;endArrow=classic;endFill=1;fontSize=20;strokeWidth=4;" parent="9wfdvAxeRkV-qU15ELbO-1" source="9wfdvAxeRkV-qU15ELbO-23" target="9wfdvAxeRkV-qU15ELbO-9" edge="1">
          <mxGeometry relative="1" as="geometry" />
        </mxCell>
        <mxCell id="9wfdvAxeRkV-qU15ELbO-23" value="Discovery Tool" style="rounded=1;whiteSpace=wrap;html=1;fillColor=#647687;strokeColor=#314354;fontColor=#ffffff;strokeWidth=1;" parent="9wfdvAxeRkV-qU15ELbO-1" vertex="1">
          <mxGeometry x="-40" y="220" width="120" height="60" as="geometry" />
        </mxCell>
        <mxCell id="9wfdvAxeRkV-qU15ELbO-36" style="edgeStyle=none;rounded=0;orthogonalLoop=1;jettySize=auto;html=1;exitX=1;exitY=0.5;exitDx=0;exitDy=0;startArrow=classic;startFill=1;endArrow=classic;endFill=1;fontSize=20;strokeWidth=4;" parent="9wfdvAxeRkV-qU15ELbO-1" source="9wfdvAxeRkV-qU15ELbO-25" target="9wfdvAxeRkV-qU15ELbO-18" edge="1">
          <mxGeometry relative="1" as="geometry" />
        </mxCell>
        <mxCell id="9wfdvAxeRkV-qU15ELbO-51" style="edgeStyle=none;rounded=0;orthogonalLoop=1;jettySize=auto;html=1;exitX=1;exitY=1;exitDx=0;exitDy=0;startArrow=classic;startFill=1;endArrow=classic;endFill=1;fontSize=20;strokeWidth=4;" parent="9wfdvAxeRkV-qU15ELbO-1" source="9wfdvAxeRkV-qU15ELbO-25" target="9wfdvAxeRkV-qU15ELbO-3" edge="1">
          <mxGeometry relative="1" as="geometry" />
        </mxCell>
        <mxCell id="9wfdvAxeRkV-qU15ELbO-52" style="edgeStyle=none;rounded=0;orthogonalLoop=1;jettySize=auto;html=1;exitX=0.5;exitY=0;exitDx=0;exitDy=0;startArrow=classic;startFill=1;endArrow=classic;endFill=1;fontSize=20;strokeWidth=4;" parent="9wfdvAxeRkV-qU15ELbO-1" source="9wfdvAxeRkV-qU15ELbO-25" target="9wfdvAxeRkV-qU15ELbO-23" edge="1">
          <mxGeometry relative="1" as="geometry" />
        </mxCell>
        <mxCell id="9wfdvAxeRkV-qU15ELbO-25" value="Security&lt;br&gt;Enforcement&lt;br&gt;Engine" style="rounded=1;whiteSpace=wrap;html=1;fillColor=#647687;strokeColor=#314354;fontColor=#ffffff;strokeWidth=1;" parent="9wfdvAxeRkV-qU15ELbO-1" vertex="1">
          <mxGeometry x="-20" y="372" width="120" height="60" as="geometry" />
        </mxCell>
      </root>
    </mxGraphModel>
  </diagram>
  <diagram name="Copy of egeria-overview" id="Vil0w_42tBJCTSolNwWz">
    <mxGraphModel dx="1933" dy="789" grid="1" gridSize="10" guides="1" tooltips="1" connect="1" arrows="1" fold="1" page="1" pageScale="1" pageWidth="827" pageHeight="1169" math="0" shadow="0">
      <root>
        <mxCell id="UYc1pphcT6Xh1Dm5z1_N-0" />
        <mxCell id="UYc1pphcT6Xh1Dm5z1_N-1" parent="UYc1pphcT6Xh1Dm5z1_N-0" />
        <mxCell id="UYc1pphcT6Xh1Dm5z1_N-2" value="Egeria" style="ellipse;shape=cloud;whiteSpace=wrap;html=1;fillColor=#1ba1e2;strokeColor=#006EAF;fontSize=20;fontColor=#ffffff;" parent="UYc1pphcT6Xh1Dm5z1_N-1" vertex="1">
          <mxGeometry x="100" y="110" width="600" height="350" as="geometry" />
        </mxCell>
        <mxCell id="UYc1pphcT6Xh1Dm5z1_N-3" value="ETL Engine" style="rounded=1;whiteSpace=wrap;html=1;fillColor=#647687;strokeColor=#314354;fontColor=#ffffff;" parent="UYc1pphcT6Xh1Dm5z1_N-1" vertex="1">
          <mxGeometry x="100" y="480" width="120" height="60" as="geometry" />
        </mxCell>
        <mxCell id="UYc1pphcT6Xh1Dm5z1_N-4" value="Data Science Tool" style="rounded=1;whiteSpace=wrap;html=1;fillColor=#647687;strokeColor=#314354;fontColor=#ffffff;" parent="UYc1pphcT6Xh1Dm5z1_N-1" vertex="1">
          <mxGeometry x="600" y="60" width="120" height="60" as="geometry" />
        </mxCell>
        <mxCell id="UYc1pphcT6Xh1Dm5z1_N-5" value="BI Platform" style="rounded=1;whiteSpace=wrap;html=1;fillColor=#647687;strokeColor=#314354;fontColor=#ffffff;" parent="UYc1pphcT6Xh1Dm5z1_N-1" vertex="1">
          <mxGeometry x="290" y="510" width="120" height="60" as="geometry" />
        </mxCell>
        <mxCell id="UYc1pphcT6Xh1Dm5z1_N-6" value="Governance&lt;br&gt;Tool" style="rounded=1;whiteSpace=wrap;html=1;fillColor=#647687;strokeColor=#314354;fontColor=#ffffff;" parent="UYc1pphcT6Xh1Dm5z1_N-1" vertex="1">
          <mxGeometry x="430" y="30" width="120" height="60" as="geometry" />
        </mxCell>
        <mxCell id="UYc1pphcT6Xh1Dm5z1_N-7" value="Data Catalog Tool" style="rounded=1;whiteSpace=wrap;html=1;fillColor=#647687;strokeColor=#314354;fontColor=#ffffff;" parent="UYc1pphcT6Xh1Dm5z1_N-1" vertex="1">
          <mxGeometry x="50" y="100" width="120" height="60" as="geometry" />
        </mxCell>
        <mxCell id="UYc1pphcT6Xh1Dm5z1_N-8" value="Enterprise&lt;br&gt;Architecture&lt;br&gt;Tool" style="rounded=1;whiteSpace=wrap;html=1;fillColor=#647687;strokeColor=#314354;fontColor=#ffffff;" parent="UYc1pphcT6Xh1Dm5z1_N-1" vertex="1">
          <mxGeometry x="750" y="200" width="120" height="60" as="geometry" />
        </mxCell>
        <mxCell id="UYc1pphcT6Xh1Dm5z1_N-9" value="DevOps Pipeline" style="rounded=1;whiteSpace=wrap;html=1;fillColor=#647687;strokeColor=#314354;fontColor=#ffffff;" parent="UYc1pphcT6Xh1Dm5z1_N-1" vertex="1">
          <mxGeometry x="750" y="370" width="120" height="60" as="geometry" />
        </mxCell>
        <mxCell id="UYc1pphcT6Xh1Dm5z1_N-10" value="ITIL Platform" style="rounded=1;whiteSpace=wrap;html=1;fillColor=#647687;strokeColor=#314354;fontColor=#ffffff;" parent="UYc1pphcT6Xh1Dm5z1_N-1" vertex="1">
          <mxGeometry x="640" y="500" width="120" height="60" as="geometry" />
        </mxCell>
        <mxCell id="UYc1pphcT6Xh1Dm5z1_N-11" value="Ontology&lt;br&gt;Tool" style="rounded=1;whiteSpace=wrap;html=1;fillColor=#647687;strokeColor=#314354;fontColor=#ffffff;" parent="UYc1pphcT6Xh1Dm5z1_N-1" vertex="1">
          <mxGeometry x="220" y="30" width="120" height="60" as="geometry" />
        </mxCell>
        <mxCell id="UYc1pphcT6Xh1Dm5z1_N-12" value="" style="shape=flexArrow;endArrow=classic;startArrow=classic;html=1;entryX=0.228;entryY=0.82;entryDx=0;entryDy=0;entryPerimeter=0;exitX=0.667;exitY=-0.05;exitDx=0;exitDy=0;exitPerimeter=0;fillColor=#e3c800;strokeColor=#B09500;" parent="UYc1pphcT6Xh1Dm5z1_N-1" source="UYc1pphcT6Xh1Dm5z1_N-3" target="UYc1pphcT6Xh1Dm5z1_N-2" edge="1">
          <mxGeometry width="50" height="50" relative="1" as="geometry">
            <mxPoint x="20" y="650" as="sourcePoint" />
            <mxPoint x="70" y="600" as="targetPoint" />
          </mxGeometry>
        </mxCell>
        <mxCell id="UYc1pphcT6Xh1Dm5z1_N-13" value="" style="shape=flexArrow;endArrow=classic;startArrow=classic;html=1;entryX=0.142;entryY=0.286;entryDx=0;entryDy=0;entryPerimeter=0;exitX=0.75;exitY=1;exitDx=0;exitDy=0;fillColor=#e3c800;strokeColor=#B09500;" parent="UYc1pphcT6Xh1Dm5z1_N-1" source="UYc1pphcT6Xh1Dm5z1_N-7" target="UYc1pphcT6Xh1Dm5z1_N-2" edge="1">
          <mxGeometry width="50" height="50" relative="1" as="geometry">
            <mxPoint x="20" y="650" as="sourcePoint" />
            <mxPoint x="70" y="600" as="targetPoint" />
          </mxGeometry>
        </mxCell>
        <mxCell id="UYc1pphcT6Xh1Dm5z1_N-14" value="" style="shape=flexArrow;endArrow=classic;startArrow=classic;html=1;entryX=0.5;entryY=1;entryDx=0;entryDy=0;exitX=0.35;exitY=0.114;exitDx=0;exitDy=0;exitPerimeter=0;fillColor=#e3c800;strokeColor=#B09500;" parent="UYc1pphcT6Xh1Dm5z1_N-1" source="UYc1pphcT6Xh1Dm5z1_N-2" target="UYc1pphcT6Xh1Dm5z1_N-11" edge="1">
          <mxGeometry width="50" height="50" relative="1" as="geometry">
            <mxPoint x="50" y="650" as="sourcePoint" />
            <mxPoint x="100" y="600" as="targetPoint" />
          </mxGeometry>
        </mxCell>
        <mxCell id="UYc1pphcT6Xh1Dm5z1_N-15" value="" style="shape=flexArrow;endArrow=classic;startArrow=classic;html=1;entryX=0.5;entryY=1;entryDx=0;entryDy=0;fillColor=#e3c800;strokeColor=#B09500;" parent="UYc1pphcT6Xh1Dm5z1_N-1" target="UYc1pphcT6Xh1Dm5z1_N-6" edge="1">
          <mxGeometry width="50" height="50" relative="1" as="geometry">
            <mxPoint x="440" y="160" as="sourcePoint" />
            <mxPoint x="100" y="600" as="targetPoint" />
          </mxGeometry>
        </mxCell>
        <mxCell id="UYc1pphcT6Xh1Dm5z1_N-16" value="" style="shape=flexArrow;endArrow=classic;startArrow=classic;html=1;entryX=0.425;entryY=1;entryDx=0;entryDy=0;entryPerimeter=0;exitX=0.832;exitY=0.211;exitDx=0;exitDy=0;exitPerimeter=0;fillColor=#e3c800;strokeColor=#B09500;" parent="UYc1pphcT6Xh1Dm5z1_N-1" source="UYc1pphcT6Xh1Dm5z1_N-2" target="UYc1pphcT6Xh1Dm5z1_N-4" edge="1">
          <mxGeometry width="50" height="50" relative="1" as="geometry">
            <mxPoint x="50" y="650" as="sourcePoint" />
            <mxPoint x="100" y="600" as="targetPoint" />
          </mxGeometry>
        </mxCell>
        <mxCell id="UYc1pphcT6Xh1Dm5z1_N-17" value="" style="shape=flexArrow;endArrow=classic;startArrow=classic;html=1;entryX=0;entryY=0.5;entryDx=0;entryDy=0;exitX=0.915;exitY=0.354;exitDx=0;exitDy=0;exitPerimeter=0;fillColor=#e3c800;strokeColor=#B09500;" parent="UYc1pphcT6Xh1Dm5z1_N-1" source="UYc1pphcT6Xh1Dm5z1_N-2" target="UYc1pphcT6Xh1Dm5z1_N-8" edge="1">
          <mxGeometry width="50" height="50" relative="1" as="geometry">
            <mxPoint x="50" y="650" as="sourcePoint" />
            <mxPoint x="100" y="600" as="targetPoint" />
          </mxGeometry>
        </mxCell>
        <mxCell id="UYc1pphcT6Xh1Dm5z1_N-18" value="Data Platform" style="rounded=1;whiteSpace=wrap;html=1;fillColor=#647687;strokeColor=#314354;fontColor=#ffffff;" parent="UYc1pphcT6Xh1Dm5z1_N-1" vertex="1">
          <mxGeometry x="470" y="510" width="120" height="60" as="geometry" />
        </mxCell>
        <mxCell id="UYc1pphcT6Xh1Dm5z1_N-19" value="" style="shape=flexArrow;endArrow=classic;startArrow=classic;html=1;entryX=0.47;entryY=0.937;entryDx=0;entryDy=0;entryPerimeter=0;exitX=0.5;exitY=0;exitDx=0;exitDy=0;fillColor=#e3c800;strokeColor=#B09500;" parent="UYc1pphcT6Xh1Dm5z1_N-1" source="UYc1pphcT6Xh1Dm5z1_N-5" target="UYc1pphcT6Xh1Dm5z1_N-2" edge="1">
          <mxGeometry width="50" height="50" relative="1" as="geometry">
            <mxPoint x="50" y="640" as="sourcePoint" />
            <mxPoint x="100" y="590" as="targetPoint" />
          </mxGeometry>
        </mxCell>
        <mxCell id="UYc1pphcT6Xh1Dm5z1_N-20" value="" style="shape=flexArrow;endArrow=classic;startArrow=classic;html=1;entryX=0.685;entryY=0.92;entryDx=0;entryDy=0;entryPerimeter=0;exitX=0.5;exitY=0;exitDx=0;exitDy=0;fillColor=#e3c800;strokeColor=#B09500;" parent="UYc1pphcT6Xh1Dm5z1_N-1" source="UYc1pphcT6Xh1Dm5z1_N-18" target="UYc1pphcT6Xh1Dm5z1_N-2" edge="1">
          <mxGeometry width="50" height="50" relative="1" as="geometry">
            <mxPoint x="50" y="640" as="sourcePoint" />
            <mxPoint x="100" y="590" as="targetPoint" />
          </mxGeometry>
        </mxCell>
        <mxCell id="UYc1pphcT6Xh1Dm5z1_N-21" value="" style="shape=flexArrow;endArrow=classic;startArrow=classic;html=1;entryX=0.872;entryY=0.786;entryDx=0;entryDy=0;entryPerimeter=0;exitX=0.5;exitY=0;exitDx=0;exitDy=0;fillColor=#e3c800;strokeColor=#B09500;" parent="UYc1pphcT6Xh1Dm5z1_N-1" source="UYc1pphcT6Xh1Dm5z1_N-10" target="UYc1pphcT6Xh1Dm5z1_N-2" edge="1">
          <mxGeometry width="50" height="50" relative="1" as="geometry">
            <mxPoint x="50" y="640" as="sourcePoint" />
            <mxPoint x="100" y="590" as="targetPoint" />
          </mxGeometry>
        </mxCell>
        <mxCell id="UYc1pphcT6Xh1Dm5z1_N-22" value="" style="shape=flexArrow;endArrow=classic;startArrow=classic;html=1;entryX=0.96;entryY=0.7;entryDx=0;entryDy=0;entryPerimeter=0;fillColor=#e3c800;strokeColor=#B09500;" parent="UYc1pphcT6Xh1Dm5z1_N-1" source="UYc1pphcT6Xh1Dm5z1_N-9" target="UYc1pphcT6Xh1Dm5z1_N-2" edge="1">
          <mxGeometry width="50" height="50" relative="1" as="geometry">
            <mxPoint x="50" y="640" as="sourcePoint" />
            <mxPoint x="100" y="590" as="targetPoint" />
          </mxGeometry>
        </mxCell>
        <mxCell id="UYc1pphcT6Xh1Dm5z1_N-23" value="Discovery Tool" style="rounded=1;whiteSpace=wrap;html=1;fillColor=#647687;strokeColor=#314354;fontColor=#ffffff;" parent="UYc1pphcT6Xh1Dm5z1_N-1" vertex="1">
          <mxGeometry x="-40" y="220" width="120" height="60" as="geometry" />
        </mxCell>
        <mxCell id="UYc1pphcT6Xh1Dm5z1_N-24" value="" style="shape=flexArrow;endArrow=classic;startArrow=classic;html=1;entryX=0.07;entryY=0.4;entryDx=0;entryDy=0;entryPerimeter=0;exitX=1;exitY=0.5;exitDx=0;exitDy=0;fillColor=#e3c800;strokeColor=#B09500;" parent="UYc1pphcT6Xh1Dm5z1_N-1" source="UYc1pphcT6Xh1Dm5z1_N-23" target="UYc1pphcT6Xh1Dm5z1_N-2" edge="1">
          <mxGeometry width="50" height="50" relative="1" as="geometry">
            <mxPoint x="-40" y="640" as="sourcePoint" />
            <mxPoint x="10" y="590" as="targetPoint" />
          </mxGeometry>
        </mxCell>
        <mxCell id="UYc1pphcT6Xh1Dm5z1_N-25" value="Security&lt;br&gt;Enforcement&lt;br&gt;Engine" style="rounded=1;whiteSpace=wrap;html=1;fillColor=#647687;strokeColor=#314354;fontColor=#ffffff;" parent="UYc1pphcT6Xh1Dm5z1_N-1" vertex="1">
          <mxGeometry x="-20" y="372" width="120" height="60" as="geometry" />
        </mxCell>
        <mxCell id="UYc1pphcT6Xh1Dm5z1_N-26" value="" style="shape=flexArrow;endArrow=classic;startArrow=classic;html=1;entryX=0;entryY=0.7;entryDx=0;entryDy=0;entryPerimeter=0;exitX=1;exitY=0.25;exitDx=0;exitDy=0;fillColor=#e3c800;strokeColor=#B09500;" parent="UYc1pphcT6Xh1Dm5z1_N-1" source="UYc1pphcT6Xh1Dm5z1_N-25" edge="1">
          <mxGeometry width="50" height="50" relative="1" as="geometry">
            <mxPoint x="-40" y="612" as="sourcePoint" />
            <mxPoint x="161" y="350" as="targetPoint" />
          </mxGeometry>
        </mxCell>
        <mxCell id="wNyb-Qe7ZWCwvvCKGt7S-0" value="" style="ellipse;whiteSpace=wrap;html=1;aspect=fixed;fillColor=#f0a30a;strokeColor=#BD7000;fontColor=#ffffff;shadow=1;" parent="UYc1pphcT6Xh1Dm5z1_N-1" vertex="1">
          <mxGeometry x="140" y="234" width="40" height="40" as="geometry" />
        </mxCell>
        <mxCell id="wNyb-Qe7ZWCwvvCKGt7S-1" value="" style="ellipse;whiteSpace=wrap;html=1;aspect=fixed;fillColor=#f0a30a;strokeColor=#BD7000;fontColor=#ffffff;shadow=1;" parent="UYc1pphcT6Xh1Dm5z1_N-1" vertex="1">
          <mxGeometry x="178" y="205" width="40" height="40" as="geometry" />
        </mxCell>
        <mxCell id="wNyb-Qe7ZWCwvvCKGt7S-2" value="" style="ellipse;whiteSpace=wrap;html=1;aspect=fixed;fillColor=#f0a30a;strokeColor=#BD7000;fontColor=#ffffff;shadow=1;" parent="UYc1pphcT6Xh1Dm5z1_N-1" vertex="1">
          <mxGeometry x="610" y="217" width="40" height="40" as="geometry" />
        </mxCell>
        <mxCell id="wNyb-Qe7ZWCwvvCKGt7S-3" value="" style="ellipse;whiteSpace=wrap;html=1;aspect=fixed;fillColor=#f0a30a;strokeColor=#BD7000;fontColor=#ffffff;shadow=1;" parent="UYc1pphcT6Xh1Dm5z1_N-1" vertex="1">
          <mxGeometry x="570" y="180" width="40" height="40" as="geometry" />
        </mxCell>
        <mxCell id="wNyb-Qe7ZWCwvvCKGt7S-4" value="" style="ellipse;whiteSpace=wrap;html=1;aspect=fixed;fillColor=#f0a30a;strokeColor=#BD7000;fontColor=#ffffff;shadow=1;" parent="UYc1pphcT6Xh1Dm5z1_N-1" vertex="1">
          <mxGeometry x="410" y="159" width="40" height="40" as="geometry" />
        </mxCell>
        <mxCell id="wNyb-Qe7ZWCwvvCKGt7S-5" value="" style="ellipse;whiteSpace=wrap;html=1;aspect=fixed;fillColor=#f0a30a;strokeColor=#BD7000;fontColor=#ffffff;shadow=1;" parent="UYc1pphcT6Xh1Dm5z1_N-1" vertex="1">
          <mxGeometry x="297" y="148" width="40" height="40" as="geometry" />
        </mxCell>
        <mxCell id="wNyb-Qe7ZWCwvvCKGt7S-6" value="" style="ellipse;whiteSpace=wrap;html=1;aspect=fixed;fillColor=#f0a30a;strokeColor=#BD7000;fontColor=#ffffff;shadow=1;" parent="UYc1pphcT6Xh1Dm5z1_N-1" vertex="1">
          <mxGeometry x="597" y="347" width="40" height="40" as="geometry" />
        </mxCell>
        <mxCell id="wNyb-Qe7ZWCwvvCKGt7S-7" value="" style="ellipse;whiteSpace=wrap;html=1;aspect=fixed;fillColor=#f0a30a;strokeColor=#BD7000;fontColor=#ffffff;shadow=1;" parent="UYc1pphcT6Xh1Dm5z1_N-1" vertex="1">
          <mxGeometry x="484" y="392" width="40" height="40" as="geometry" />
        </mxCell>
        <mxCell id="wNyb-Qe7ZWCwvvCKGt7S-8" value="" style="ellipse;whiteSpace=wrap;html=1;aspect=fixed;fillColor=#f0a30a;strokeColor=#BD7000;fontColor=#ffffff;shadow=1;" parent="UYc1pphcT6Xh1Dm5z1_N-1" vertex="1">
          <mxGeometry x="370" y="400" width="40" height="40" as="geometry" />
        </mxCell>
        <mxCell id="wNyb-Qe7ZWCwvvCKGt7S-9" value="" style="ellipse;whiteSpace=wrap;html=1;aspect=fixed;fillColor=#f0a30a;strokeColor=#BD7000;fontColor=#ffffff;shadow=1;" parent="UYc1pphcT6Xh1Dm5z1_N-1" vertex="1">
          <mxGeometry x="221" y="360" width="40" height="40" as="geometry" />
        </mxCell>
        <mxCell id="wNyb-Qe7ZWCwvvCKGt7S-10" value="" style="ellipse;whiteSpace=wrap;html=1;aspect=fixed;fillColor=#f0a30a;strokeColor=#BD7000;fontColor=#ffffff;shadow=1;" parent="UYc1pphcT6Xh1Dm5z1_N-1" vertex="1">
          <mxGeometry x="637" y="330" width="40" height="40" as="geometry" />
        </mxCell>
        <mxCell id="wNyb-Qe7ZWCwvvCKGt7S-11" value="" style="ellipse;whiteSpace=wrap;html=1;aspect=fixed;fillColor=#f0a30a;strokeColor=#BD7000;fontColor=#ffffff;shadow=1;" parent="UYc1pphcT6Xh1Dm5z1_N-1" vertex="1">
          <mxGeometry x="161" y="322" width="40" height="40" as="geometry" />
        </mxCell>
      </root>
    </mxGraphModel>
  </diagram>
  <diagram name="Copy of Copy of egeria-overview" id="aj34Mw-Cwi56GuHE8WMd">
    <mxGraphModel dx="1933" dy="789" grid="1" gridSize="10" guides="1" tooltips="1" connect="1" arrows="1" fold="1" page="1" pageScale="1" pageWidth="827" pageHeight="1169" math="0" shadow="0">
      <root>
        <mxCell id="lzNyFd3GJfGGw7Io9bFU-0" />
        <mxCell id="lzNyFd3GJfGGw7Io9bFU-1" parent="lzNyFd3GJfGGw7Io9bFU-0" />
        <mxCell id="lzNyFd3GJfGGw7Io9bFU-2" value="Egeria" style="ellipse;shape=cloud;whiteSpace=wrap;html=1;fillColor=#1ba1e2;strokeColor=#006EAF;fontSize=20;fontColor=#ffffff;" parent="lzNyFd3GJfGGw7Io9bFU-1" vertex="1">
          <mxGeometry x="100" y="110" width="600" height="350" as="geometry" />
        </mxCell>
        <mxCell id="lzNyFd3GJfGGw7Io9bFU-3" value="ETL Engine" style="rounded=1;whiteSpace=wrap;html=1;fillColor=#647687;strokeColor=#314354;fontColor=#ffffff;" parent="lzNyFd3GJfGGw7Io9bFU-1" vertex="1">
          <mxGeometry x="100" y="480" width="120" height="60" as="geometry" />
        </mxCell>
        <mxCell id="lzNyFd3GJfGGw7Io9bFU-4" value="Data Science Tool" style="rounded=1;whiteSpace=wrap;html=1;fillColor=#647687;strokeColor=#314354;fontColor=#ffffff;" parent="lzNyFd3GJfGGw7Io9bFU-1" vertex="1">
          <mxGeometry x="600" y="60" width="120" height="60" as="geometry" />
        </mxCell>
        <mxCell id="lzNyFd3GJfGGw7Io9bFU-5" value="BI Platform" style="rounded=1;whiteSpace=wrap;html=1;fillColor=#647687;strokeColor=#314354;fontColor=#ffffff;" parent="lzNyFd3GJfGGw7Io9bFU-1" vertex="1">
          <mxGeometry x="290" y="510" width="120" height="60" as="geometry" />
        </mxCell>
        <mxCell id="lzNyFd3GJfGGw7Io9bFU-6" value="Governance&lt;br&gt;Tool" style="rounded=1;whiteSpace=wrap;html=1;fillColor=#647687;strokeColor=#314354;fontColor=#ffffff;" parent="lzNyFd3GJfGGw7Io9bFU-1" vertex="1">
          <mxGeometry x="430" y="30" width="120" height="60" as="geometry" />
        </mxCell>
        <mxCell id="lzNyFd3GJfGGw7Io9bFU-7" value="Data Catalog Tool" style="rounded=1;whiteSpace=wrap;html=1;fillColor=#647687;strokeColor=#314354;fontColor=#ffffff;" parent="lzNyFd3GJfGGw7Io9bFU-1" vertex="1">
          <mxGeometry x="50" y="100" width="120" height="60" as="geometry" />
        </mxCell>
        <mxCell id="lzNyFd3GJfGGw7Io9bFU-8" value="Enterprise&lt;br&gt;Architecture&lt;br&gt;Tool" style="rounded=1;whiteSpace=wrap;html=1;fillColor=#647687;strokeColor=#314354;fontColor=#ffffff;" parent="lzNyFd3GJfGGw7Io9bFU-1" vertex="1">
          <mxGeometry x="750" y="200" width="120" height="60" as="geometry" />
        </mxCell>
        <mxCell id="lzNyFd3GJfGGw7Io9bFU-9" value="DevOps Pipeline" style="rounded=1;whiteSpace=wrap;html=1;fillColor=#647687;strokeColor=#314354;fontColor=#ffffff;" parent="lzNyFd3GJfGGw7Io9bFU-1" vertex="1">
          <mxGeometry x="750" y="370" width="120" height="60" as="geometry" />
        </mxCell>
        <mxCell id="lzNyFd3GJfGGw7Io9bFU-10" value="ITIL Platform" style="rounded=1;whiteSpace=wrap;html=1;fillColor=#647687;strokeColor=#314354;fontColor=#ffffff;" parent="lzNyFd3GJfGGw7Io9bFU-1" vertex="1">
          <mxGeometry x="640" y="500" width="120" height="60" as="geometry" />
        </mxCell>
        <mxCell id="lzNyFd3GJfGGw7Io9bFU-11" value="Ontology&lt;br&gt;Tool" style="rounded=1;whiteSpace=wrap;html=1;fillColor=#647687;strokeColor=#314354;fontColor=#ffffff;" parent="lzNyFd3GJfGGw7Io9bFU-1" vertex="1">
          <mxGeometry x="220" y="30" width="120" height="60" as="geometry" />
        </mxCell>
        <mxCell id="lzNyFd3GJfGGw7Io9bFU-12" value="" style="shape=flexArrow;endArrow=classic;startArrow=classic;html=1;entryX=0.228;entryY=0.82;entryDx=0;entryDy=0;entryPerimeter=0;exitX=0.667;exitY=-0.05;exitDx=0;exitDy=0;exitPerimeter=0;fillColor=#e3c800;strokeColor=#B09500;" parent="lzNyFd3GJfGGw7Io9bFU-1" source="lzNyFd3GJfGGw7Io9bFU-3" target="lzNyFd3GJfGGw7Io9bFU-2" edge="1">
          <mxGeometry width="50" height="50" relative="1" as="geometry">
            <mxPoint x="20" y="650" as="sourcePoint" />
            <mxPoint x="70" y="600" as="targetPoint" />
          </mxGeometry>
        </mxCell>
        <mxCell id="lzNyFd3GJfGGw7Io9bFU-13" value="" style="shape=flexArrow;endArrow=classic;startArrow=classic;html=1;entryX=0.142;entryY=0.286;entryDx=0;entryDy=0;entryPerimeter=0;exitX=0.75;exitY=1;exitDx=0;exitDy=0;fillColor=#e3c800;strokeColor=#B09500;" parent="lzNyFd3GJfGGw7Io9bFU-1" source="lzNyFd3GJfGGw7Io9bFU-7" target="lzNyFd3GJfGGw7Io9bFU-2" edge="1">
          <mxGeometry width="50" height="50" relative="1" as="geometry">
            <mxPoint x="20" y="650" as="sourcePoint" />
            <mxPoint x="70" y="600" as="targetPoint" />
          </mxGeometry>
        </mxCell>
        <mxCell id="lzNyFd3GJfGGw7Io9bFU-14" value="" style="shape=flexArrow;endArrow=classic;startArrow=classic;html=1;entryX=0.5;entryY=1;entryDx=0;entryDy=0;exitX=0.35;exitY=0.114;exitDx=0;exitDy=0;exitPerimeter=0;fillColor=#e3c800;strokeColor=#B09500;" parent="lzNyFd3GJfGGw7Io9bFU-1" source="lzNyFd3GJfGGw7Io9bFU-2" target="lzNyFd3GJfGGw7Io9bFU-11" edge="1">
          <mxGeometry width="50" height="50" relative="1" as="geometry">
            <mxPoint x="50" y="650" as="sourcePoint" />
            <mxPoint x="100" y="600" as="targetPoint" />
          </mxGeometry>
        </mxCell>
        <mxCell id="lzNyFd3GJfGGw7Io9bFU-15" value="" style="shape=flexArrow;endArrow=classic;startArrow=classic;html=1;entryX=0.5;entryY=1;entryDx=0;entryDy=0;fillColor=#e3c800;strokeColor=#B09500;" parent="lzNyFd3GJfGGw7Io9bFU-1" target="lzNyFd3GJfGGw7Io9bFU-6" edge="1">
          <mxGeometry width="50" height="50" relative="1" as="geometry">
            <mxPoint x="440" y="160" as="sourcePoint" />
            <mxPoint x="100" y="600" as="targetPoint" />
          </mxGeometry>
        </mxCell>
        <mxCell id="lzNyFd3GJfGGw7Io9bFU-16" value="" style="shape=flexArrow;endArrow=classic;startArrow=classic;html=1;entryX=0.425;entryY=1;entryDx=0;entryDy=0;entryPerimeter=0;exitX=0.832;exitY=0.211;exitDx=0;exitDy=0;exitPerimeter=0;fillColor=#e3c800;strokeColor=#B09500;" parent="lzNyFd3GJfGGw7Io9bFU-1" source="lzNyFd3GJfGGw7Io9bFU-2" target="lzNyFd3GJfGGw7Io9bFU-4" edge="1">
          <mxGeometry width="50" height="50" relative="1" as="geometry">
            <mxPoint x="50" y="650" as="sourcePoint" />
            <mxPoint x="100" y="600" as="targetPoint" />
          </mxGeometry>
        </mxCell>
        <mxCell id="lzNyFd3GJfGGw7Io9bFU-17" value="" style="shape=flexArrow;endArrow=classic;startArrow=classic;html=1;entryX=0;entryY=0.5;entryDx=0;entryDy=0;exitX=0.915;exitY=0.354;exitDx=0;exitDy=0;exitPerimeter=0;fillColor=#e3c800;strokeColor=#B09500;" parent="lzNyFd3GJfGGw7Io9bFU-1" source="lzNyFd3GJfGGw7Io9bFU-2" target="lzNyFd3GJfGGw7Io9bFU-8" edge="1">
          <mxGeometry width="50" height="50" relative="1" as="geometry">
            <mxPoint x="50" y="650" as="sourcePoint" />
            <mxPoint x="100" y="600" as="targetPoint" />
          </mxGeometry>
        </mxCell>
        <mxCell id="lzNyFd3GJfGGw7Io9bFU-18" value="Data Platform" style="rounded=1;whiteSpace=wrap;html=1;fillColor=#647687;strokeColor=#314354;fontColor=#ffffff;" parent="lzNyFd3GJfGGw7Io9bFU-1" vertex="1">
          <mxGeometry x="470" y="510" width="120" height="60" as="geometry" />
        </mxCell>
        <mxCell id="lzNyFd3GJfGGw7Io9bFU-19" value="" style="shape=flexArrow;endArrow=classic;startArrow=classic;html=1;entryX=0.47;entryY=0.937;entryDx=0;entryDy=0;entryPerimeter=0;exitX=0.5;exitY=0;exitDx=0;exitDy=0;fillColor=#e3c800;strokeColor=#B09500;" parent="lzNyFd3GJfGGw7Io9bFU-1" source="lzNyFd3GJfGGw7Io9bFU-5" target="lzNyFd3GJfGGw7Io9bFU-2" edge="1">
          <mxGeometry width="50" height="50" relative="1" as="geometry">
            <mxPoint x="50" y="640" as="sourcePoint" />
            <mxPoint x="100" y="590" as="targetPoint" />
          </mxGeometry>
        </mxCell>
        <mxCell id="lzNyFd3GJfGGw7Io9bFU-20" value="" style="shape=flexArrow;endArrow=classic;startArrow=classic;html=1;entryX=0.685;entryY=0.92;entryDx=0;entryDy=0;entryPerimeter=0;exitX=0.5;exitY=0;exitDx=0;exitDy=0;fillColor=#e3c800;strokeColor=#B09500;" parent="lzNyFd3GJfGGw7Io9bFU-1" source="lzNyFd3GJfGGw7Io9bFU-18" target="lzNyFd3GJfGGw7Io9bFU-2" edge="1">
          <mxGeometry width="50" height="50" relative="1" as="geometry">
            <mxPoint x="50" y="640" as="sourcePoint" />
            <mxPoint x="100" y="590" as="targetPoint" />
          </mxGeometry>
        </mxCell>
        <mxCell id="lzNyFd3GJfGGw7Io9bFU-21" value="" style="shape=flexArrow;endArrow=classic;startArrow=classic;html=1;entryX=0.872;entryY=0.786;entryDx=0;entryDy=0;entryPerimeter=0;exitX=0.5;exitY=0;exitDx=0;exitDy=0;fillColor=#e3c800;strokeColor=#B09500;" parent="lzNyFd3GJfGGw7Io9bFU-1" source="lzNyFd3GJfGGw7Io9bFU-10" target="lzNyFd3GJfGGw7Io9bFU-2" edge="1">
          <mxGeometry width="50" height="50" relative="1" as="geometry">
            <mxPoint x="50" y="640" as="sourcePoint" />
            <mxPoint x="100" y="590" as="targetPoint" />
          </mxGeometry>
        </mxCell>
        <mxCell id="lzNyFd3GJfGGw7Io9bFU-22" value="" style="shape=flexArrow;endArrow=classic;startArrow=classic;html=1;entryX=0.96;entryY=0.7;entryDx=0;entryDy=0;entryPerimeter=0;fillColor=#e3c800;strokeColor=#B09500;" parent="lzNyFd3GJfGGw7Io9bFU-1" source="lzNyFd3GJfGGw7Io9bFU-9" target="lzNyFd3GJfGGw7Io9bFU-2" edge="1">
          <mxGeometry width="50" height="50" relative="1" as="geometry">
            <mxPoint x="50" y="640" as="sourcePoint" />
            <mxPoint x="100" y="590" as="targetPoint" />
          </mxGeometry>
        </mxCell>
        <mxCell id="lzNyFd3GJfGGw7Io9bFU-23" value="Discovery Tool" style="rounded=1;whiteSpace=wrap;html=1;fillColor=#647687;strokeColor=#314354;fontColor=#ffffff;" parent="lzNyFd3GJfGGw7Io9bFU-1" vertex="1">
          <mxGeometry x="-40" y="220" width="120" height="60" as="geometry" />
        </mxCell>
        <mxCell id="lzNyFd3GJfGGw7Io9bFU-24" value="" style="shape=flexArrow;endArrow=classic;startArrow=classic;html=1;entryX=0.07;entryY=0.4;entryDx=0;entryDy=0;entryPerimeter=0;exitX=1;exitY=0.5;exitDx=0;exitDy=0;fillColor=#e3c800;strokeColor=#B09500;" parent="lzNyFd3GJfGGw7Io9bFU-1" source="lzNyFd3GJfGGw7Io9bFU-23" target="lzNyFd3GJfGGw7Io9bFU-2" edge="1">
          <mxGeometry width="50" height="50" relative="1" as="geometry">
            <mxPoint x="-40" y="640" as="sourcePoint" />
            <mxPoint x="10" y="590" as="targetPoint" />
          </mxGeometry>
        </mxCell>
        <mxCell id="lzNyFd3GJfGGw7Io9bFU-25" value="Security&lt;br&gt;Enforcement&lt;br&gt;Engine" style="rounded=1;whiteSpace=wrap;html=1;fillColor=#647687;strokeColor=#314354;fontColor=#ffffff;" parent="lzNyFd3GJfGGw7Io9bFU-1" vertex="1">
          <mxGeometry x="-20" y="372" width="120" height="60" as="geometry" />
        </mxCell>
        <mxCell id="lzNyFd3GJfGGw7Io9bFU-26" value="" style="shape=flexArrow;endArrow=classic;startArrow=classic;html=1;entryX=0;entryY=0.7;entryDx=0;entryDy=0;entryPerimeter=0;exitX=1;exitY=0.25;exitDx=0;exitDy=0;fillColor=#e3c800;strokeColor=#B09500;" parent="lzNyFd3GJfGGw7Io9bFU-1" source="lzNyFd3GJfGGw7Io9bFU-25" edge="1">
          <mxGeometry width="50" height="50" relative="1" as="geometry">
            <mxPoint x="-40" y="612" as="sourcePoint" />
            <mxPoint x="161" y="350" as="targetPoint" />
          </mxGeometry>
        </mxCell>
        <mxCell id="lzNyFd3GJfGGw7Io9bFU-27" value="" style="ellipse;whiteSpace=wrap;html=1;aspect=fixed;fillColor=#f0a30a;strokeColor=#BD7000;fontColor=#ffffff;shadow=1;" parent="lzNyFd3GJfGGw7Io9bFU-1" vertex="1">
          <mxGeometry x="140" y="234" width="40" height="40" as="geometry" />
        </mxCell>
        <mxCell id="lzNyFd3GJfGGw7Io9bFU-28" style="edgeStyle=none;rounded=0;orthogonalLoop=1;jettySize=auto;html=1;exitX=1;exitY=0.5;exitDx=0;exitDy=0;entryX=0;entryY=0.5;entryDx=0;entryDy=0;startArrow=classic;startFill=1;endArrow=classic;endFill=1;fontSize=20;" parent="lzNyFd3GJfGGw7Io9bFU-1" source="lzNyFd3GJfGGw7Io9bFU-30" target="lzNyFd3GJfGGw7Io9bFU-43" edge="1">
          <mxGeometry relative="1" as="geometry" />
        </mxCell>
        <mxCell id="lzNyFd3GJfGGw7Io9bFU-29" style="edgeStyle=none;rounded=0;orthogonalLoop=1;jettySize=auto;html=1;exitX=1;exitY=1;exitDx=0;exitDy=0;entryX=0;entryY=0;entryDx=0;entryDy=0;startArrow=classic;startFill=1;endArrow=classic;endFill=1;fontSize=20;" parent="lzNyFd3GJfGGw7Io9bFU-1" source="lzNyFd3GJfGGw7Io9bFU-30" target="lzNyFd3GJfGGw7Io9bFU-45" edge="1">
          <mxGeometry relative="1" as="geometry" />
        </mxCell>
        <mxCell id="lzNyFd3GJfGGw7Io9bFU-30" value="" style="ellipse;whiteSpace=wrap;html=1;aspect=fixed;fillColor=#f0a30a;strokeColor=#BD7000;fontColor=#ffffff;shadow=1;" parent="lzNyFd3GJfGGw7Io9bFU-1" vertex="1">
          <mxGeometry x="178" y="205" width="40" height="40" as="geometry" />
        </mxCell>
        <mxCell id="lzNyFd3GJfGGw7Io9bFU-31" style="edgeStyle=none;rounded=0;orthogonalLoop=1;jettySize=auto;html=1;exitX=0.5;exitY=1;exitDx=0;exitDy=0;startArrow=classic;startFill=1;endArrow=classic;endFill=1;fontSize=20;" parent="lzNyFd3GJfGGw7Io9bFU-1" source="lzNyFd3GJfGGw7Io9bFU-32" target="lzNyFd3GJfGGw7Io9bFU-49" edge="1">
          <mxGeometry relative="1" as="geometry" />
        </mxCell>
        <mxCell id="lzNyFd3GJfGGw7Io9bFU-32" value="" style="ellipse;whiteSpace=wrap;html=1;aspect=fixed;fillColor=#f0a30a;strokeColor=#BD7000;fontColor=#ffffff;shadow=1;" parent="lzNyFd3GJfGGw7Io9bFU-1" vertex="1">
          <mxGeometry x="610" y="217" width="40" height="40" as="geometry" />
        </mxCell>
        <mxCell id="lzNyFd3GJfGGw7Io9bFU-33" style="edgeStyle=none;rounded=0;orthogonalLoop=1;jettySize=auto;html=1;exitX=0;exitY=1;exitDx=0;exitDy=0;entryX=1;entryY=0;entryDx=0;entryDy=0;startArrow=classic;startFill=1;endArrow=classic;endFill=1;fontSize=20;" parent="lzNyFd3GJfGGw7Io9bFU-1" source="lzNyFd3GJfGGw7Io9bFU-36" target="lzNyFd3GJfGGw7Io9bFU-30" edge="1">
          <mxGeometry relative="1" as="geometry" />
        </mxCell>
        <mxCell id="lzNyFd3GJfGGw7Io9bFU-34" style="edgeStyle=none;rounded=0;orthogonalLoop=1;jettySize=auto;html=1;exitX=0.5;exitY=1;exitDx=0;exitDy=0;entryX=0;entryY=0;entryDx=0;entryDy=0;startArrow=classic;startFill=1;endArrow=classic;endFill=1;fontSize=20;" parent="lzNyFd3GJfGGw7Io9bFU-1" source="lzNyFd3GJfGGw7Io9bFU-36" target="lzNyFd3GJfGGw7Io9bFU-42" edge="1">
          <mxGeometry relative="1" as="geometry" />
        </mxCell>
        <mxCell id="lzNyFd3GJfGGw7Io9bFU-35" style="edgeStyle=none;rounded=0;orthogonalLoop=1;jettySize=auto;html=1;entryX=1;entryY=0.5;entryDx=0;entryDy=0;startArrow=classic;startFill=1;endArrow=classic;endFill=1;fontSize=20;" parent="lzNyFd3GJfGGw7Io9bFU-1" target="lzNyFd3GJfGGw7Io9bFU-38" edge="1">
          <mxGeometry relative="1" as="geometry">
            <mxPoint x="576" y="200" as="sourcePoint" />
          </mxGeometry>
        </mxCell>
        <mxCell id="lzNyFd3GJfGGw7Io9bFU-36" value="" style="ellipse;whiteSpace=wrap;html=1;aspect=fixed;fillColor=#f0a30a;strokeColor=#BD7000;fontColor=#ffffff;shadow=1;" parent="lzNyFd3GJfGGw7Io9bFU-1" vertex="1">
          <mxGeometry x="570" y="180" width="40" height="40" as="geometry" />
        </mxCell>
        <mxCell id="lzNyFd3GJfGGw7Io9bFU-37" style="edgeStyle=none;rounded=0;orthogonalLoop=1;jettySize=auto;html=1;exitX=0;exitY=1;exitDx=0;exitDy=0;startArrow=classic;startFill=1;endArrow=classic;endFill=1;fontSize=20;" parent="lzNyFd3GJfGGw7Io9bFU-1" source="lzNyFd3GJfGGw7Io9bFU-38" target="lzNyFd3GJfGGw7Io9bFU-50" edge="1">
          <mxGeometry relative="1" as="geometry" />
        </mxCell>
        <mxCell id="lzNyFd3GJfGGw7Io9bFU-38" value="" style="ellipse;whiteSpace=wrap;html=1;aspect=fixed;fillColor=#f0a30a;strokeColor=#BD7000;fontColor=#ffffff;shadow=1;" parent="lzNyFd3GJfGGw7Io9bFU-1" vertex="1">
          <mxGeometry x="410" y="159" width="40" height="40" as="geometry" />
        </mxCell>
        <mxCell id="lzNyFd3GJfGGw7Io9bFU-39" style="edgeStyle=none;rounded=0;orthogonalLoop=1;jettySize=auto;html=1;exitX=1;exitY=1;exitDx=0;exitDy=0;entryX=0;entryY=0;entryDx=0;entryDy=0;startArrow=classic;startFill=1;endArrow=classic;endFill=1;fontSize=20;" parent="lzNyFd3GJfGGw7Io9bFU-1" source="lzNyFd3GJfGGw7Io9bFU-41" target="lzNyFd3GJfGGw7Io9bFU-43" edge="1">
          <mxGeometry relative="1" as="geometry" />
        </mxCell>
        <mxCell id="lzNyFd3GJfGGw7Io9bFU-40" style="edgeStyle=none;rounded=0;orthogonalLoop=1;jettySize=auto;html=1;exitX=1;exitY=0.5;exitDx=0;exitDy=0;entryX=0;entryY=0.5;entryDx=0;entryDy=0;startArrow=classic;startFill=1;endArrow=classic;endFill=1;fontSize=20;" parent="lzNyFd3GJfGGw7Io9bFU-1" source="lzNyFd3GJfGGw7Io9bFU-41" target="lzNyFd3GJfGGw7Io9bFU-42" edge="1">
          <mxGeometry relative="1" as="geometry" />
        </mxCell>
        <mxCell id="lzNyFd3GJfGGw7Io9bFU-41" value="" style="ellipse;whiteSpace=wrap;html=1;aspect=fixed;fillColor=#f0a30a;strokeColor=#BD7000;fontColor=#ffffff;shadow=1;" parent="lzNyFd3GJfGGw7Io9bFU-1" vertex="1">
          <mxGeometry x="297" y="148" width="40" height="40" as="geometry" />
        </mxCell>
        <mxCell id="lzNyFd3GJfGGw7Io9bFU-42" value="" style="ellipse;whiteSpace=wrap;html=1;aspect=fixed;fillColor=#f0a30a;strokeColor=#BD7000;fontColor=#ffffff;shadow=1;" parent="lzNyFd3GJfGGw7Io9bFU-1" vertex="1">
          <mxGeometry x="597" y="347" width="40" height="40" as="geometry" />
        </mxCell>
        <mxCell id="lzNyFd3GJfGGw7Io9bFU-43" value="" style="ellipse;whiteSpace=wrap;html=1;aspect=fixed;fillColor=#f0a30a;strokeColor=#BD7000;fontColor=#ffffff;shadow=1;" parent="lzNyFd3GJfGGw7Io9bFU-1" vertex="1">
          <mxGeometry x="484" y="392" width="40" height="40" as="geometry" />
        </mxCell>
        <mxCell id="lzNyFd3GJfGGw7Io9bFU-44" style="edgeStyle=none;rounded=0;orthogonalLoop=1;jettySize=auto;html=1;exitX=1;exitY=0;exitDx=0;exitDy=0;entryX=0.5;entryY=1;entryDx=0;entryDy=0;startArrow=classic;startFill=1;endArrow=classic;endFill=1;fontSize=20;" parent="lzNyFd3GJfGGw7Io9bFU-1" source="lzNyFd3GJfGGw7Io9bFU-45" target="lzNyFd3GJfGGw7Io9bFU-36" edge="1">
          <mxGeometry relative="1" as="geometry" />
        </mxCell>
        <mxCell id="lzNyFd3GJfGGw7Io9bFU-45" value="" style="ellipse;whiteSpace=wrap;html=1;aspect=fixed;fillColor=#f0a30a;strokeColor=#BD7000;fontColor=#ffffff;shadow=1;" parent="lzNyFd3GJfGGw7Io9bFU-1" vertex="1">
          <mxGeometry x="370" y="400" width="40" height="40" as="geometry" />
        </mxCell>
        <mxCell id="lzNyFd3GJfGGw7Io9bFU-46" style="edgeStyle=none;rounded=0;orthogonalLoop=1;jettySize=auto;html=1;exitX=1;exitY=0;exitDx=0;exitDy=0;entryX=0;entryY=1;entryDx=0;entryDy=0;startArrow=classic;startFill=1;endArrow=classic;endFill=1;fontSize=20;" parent="lzNyFd3GJfGGw7Io9bFU-1" source="lzNyFd3GJfGGw7Io9bFU-47" target="lzNyFd3GJfGGw7Io9bFU-36" edge="1">
          <mxGeometry relative="1" as="geometry" />
        </mxCell>
        <mxCell id="lzNyFd3GJfGGw7Io9bFU-47" value="" style="ellipse;whiteSpace=wrap;html=1;aspect=fixed;fillColor=#f0a30a;strokeColor=#BD7000;fontColor=#ffffff;shadow=1;" parent="lzNyFd3GJfGGw7Io9bFU-1" vertex="1">
          <mxGeometry x="221" y="360" width="40" height="40" as="geometry" />
        </mxCell>
        <mxCell id="lzNyFd3GJfGGw7Io9bFU-48" style="edgeStyle=none;rounded=0;orthogonalLoop=1;jettySize=auto;html=1;exitX=0;exitY=0.5;exitDx=0;exitDy=0;entryX=1;entryY=0.5;entryDx=0;entryDy=0;startArrow=classic;startFill=1;endArrow=classic;endFill=1;fontSize=20;" parent="lzNyFd3GJfGGw7Io9bFU-1" source="lzNyFd3GJfGGw7Io9bFU-49" target="lzNyFd3GJfGGw7Io9bFU-27" edge="1">
          <mxGeometry relative="1" as="geometry" />
        </mxCell>
        <mxCell id="lzNyFd3GJfGGw7Io9bFU-49" value="" style="ellipse;whiteSpace=wrap;html=1;aspect=fixed;fillColor=#f0a30a;strokeColor=#BD7000;fontColor=#ffffff;shadow=1;" parent="lzNyFd3GJfGGw7Io9bFU-1" vertex="1">
          <mxGeometry x="637" y="330" width="40" height="40" as="geometry" />
        </mxCell>
        <mxCell id="lzNyFd3GJfGGw7Io9bFU-50" value="" style="ellipse;whiteSpace=wrap;html=1;aspect=fixed;fillColor=#f0a30a;strokeColor=#BD7000;fontColor=#ffffff;shadow=1;" parent="lzNyFd3GJfGGw7Io9bFU-1" vertex="1">
          <mxGeometry x="161" y="322" width="40" height="40" as="geometry" />
        </mxCell>
      </root>
    </mxGraphModel>
  </diagram>
  <diagram id="Ly2_H56sypgs_ULqHsZ0" name="pattern-summaries">
    <mxGraphModel dx="1106" dy="789" grid="1" gridSize="10" guides="1" tooltips="1" connect="1" arrows="1" fold="1" page="1" pageScale="1" pageWidth="827" pageHeight="1169" math="0" shadow="0">
      <root>
        <mxCell id="Ga0Yiie_iEQ3RKzZwgJ9-0" />
        <mxCell id="Ga0Yiie_iEQ3RKzZwgJ9-1" parent="Ga0Yiie_iEQ3RKzZwgJ9-0" />
        <mxCell id="Ga0Yiie_iEQ3RKzZwgJ9-2" value="" style="strokeWidth=2;html=1;shape=mxgraph.flowchart.annotation_1;align=left;" parent="Ga0Yiie_iEQ3RKzZwgJ9-1" vertex="1">
          <mxGeometry x="80" y="80" width="20" height="100" as="geometry" />
        </mxCell>
        <mxCell id="Ga0Yiie_iEQ3RKzZwgJ9-3" value="" style="strokeWidth=2;html=1;shape=mxgraph.flowchart.annotation_1;align=left;flipH=1;" parent="Ga0Yiie_iEQ3RKzZwgJ9-1" vertex="1">
          <mxGeometry x="200" y="80" width="20" height="100" as="geometry" />
        </mxCell>
        <mxCell id="Ga0Yiie_iEQ3RKzZwgJ9-4" value="Closed&lt;br&gt;Technology&lt;br style=&quot;font-size: 16px&quot;&gt;" style="text;html=1;resizable=0;points=[];autosize=1;align=center;verticalAlign=top;spacingTop=-4;fontSize=16;fontStyle=1" parent="Ga0Yiie_iEQ3RKzZwgJ9-1" vertex="1">
          <mxGeometry x="100" y="110" width="100" height="40" as="geometry" />
        </mxCell>
        <mxCell id="Ga0Yiie_iEQ3RKzZwgJ9-5" value="" style="strokeWidth=2;html=1;shape=mxgraph.flowchart.annotation_1;align=left;" parent="Ga0Yiie_iEQ3RKzZwgJ9-1" vertex="1">
          <mxGeometry x="80" y="200" width="20" height="100" as="geometry" />
        </mxCell>
        <mxCell id="Ga0Yiie_iEQ3RKzZwgJ9-6" value="" style="strokeWidth=2;html=1;shape=mxgraph.flowchart.annotation_1;align=left;flipH=1;" parent="Ga0Yiie_iEQ3RKzZwgJ9-1" vertex="1">
          <mxGeometry x="200" y="200" width="20" height="100" as="geometry" />
        </mxCell>
        <mxCell id="Ga0Yiie_iEQ3RKzZwgJ9-7" value="Passive&lt;br&gt;Open&lt;br style=&quot;font-size: 16px&quot;&gt;Technology&lt;br style=&quot;font-size: 16px&quot;&gt;" style="text;html=1;resizable=0;points=[];autosize=1;align=center;verticalAlign=top;spacingTop=-4;fontSize=16;fontStyle=1" parent="Ga0Yiie_iEQ3RKzZwgJ9-1" vertex="1">
          <mxGeometry x="100" y="220" width="100" height="60" as="geometry" />
        </mxCell>
        <mxCell id="Ga0Yiie_iEQ3RKzZwgJ9-8" value="" style="strokeWidth=2;html=1;shape=mxgraph.flowchart.annotation_1;align=left;" parent="Ga0Yiie_iEQ3RKzZwgJ9-1" vertex="1">
          <mxGeometry x="80" y="320" width="20" height="100" as="geometry" />
        </mxCell>
        <mxCell id="Ga0Yiie_iEQ3RKzZwgJ9-9" value="" style="strokeWidth=2;html=1;shape=mxgraph.flowchart.annotation_1;align=left;flipH=1;" parent="Ga0Yiie_iEQ3RKzZwgJ9-1" vertex="1">
          <mxGeometry x="200" y="320" width="20" height="100" as="geometry" />
        </mxCell>
        <mxCell id="Ga0Yiie_iEQ3RKzZwgJ9-10" value="Active&lt;br&gt;Open&lt;br style=&quot;font-size: 16px&quot;&gt;Technology&lt;br style=&quot;font-size: 16px&quot;&gt;" style="text;html=1;resizable=0;points=[];autosize=1;align=center;verticalAlign=top;spacingTop=-4;fontSize=16;fontStyle=1" parent="Ga0Yiie_iEQ3RKzZwgJ9-1" vertex="1">
          <mxGeometry x="102" y="340" width="100" height="60" as="geometry" />
        </mxCell>
        <mxCell id="Ga0Yiie_iEQ3RKzZwgJ9-11" value="" style="strokeWidth=2;html=1;shape=mxgraph.flowchart.annotation_1;align=left;" parent="Ga0Yiie_iEQ3RKzZwgJ9-1" vertex="1">
          <mxGeometry x="80" y="440" width="20" height="100" as="geometry" />
        </mxCell>
        <mxCell id="Ga0Yiie_iEQ3RKzZwgJ9-12" value="" style="strokeWidth=2;html=1;shape=mxgraph.flowchart.annotation_1;align=left;flipH=1;" parent="Ga0Yiie_iEQ3RKzZwgJ9-1" vertex="1">
          <mxGeometry x="200" y="440" width="20" height="100" as="geometry" />
        </mxCell>
        <mxCell id="Ga0Yiie_iEQ3RKzZwgJ9-13" value="Integrated&lt;br style=&quot;font-size: 16px&quot;&gt;Technology&lt;br style=&quot;font-size: 16px&quot;&gt;" style="text;html=1;resizable=0;points=[];autosize=1;align=center;verticalAlign=top;spacingTop=-4;fontSize=16;fontStyle=1" parent="Ga0Yiie_iEQ3RKzZwgJ9-1" vertex="1">
          <mxGeometry x="100" y="470" width="100" height="40" as="geometry" />
        </mxCell>
        <mxCell id="Ga0Yiie_iEQ3RKzZwgJ9-14" value="Technology integrates with open metadata APIs to events &quot;out of the box&quot;.&lt;br&gt;Where an Egeria conformance test exists, this technology has a&lt;br&gt;conformance mark.&lt;br&gt;" style="text;html=1;resizable=0;points=[];autosize=1;align=left;verticalAlign=top;spacingTop=-4;fontSize=16;" parent="Ga0Yiie_iEQ3RKzZwgJ9-1" vertex="1">
          <mxGeometry x="280" y="460" width="540" height="60" as="geometry" />
        </mxCell>
        <mxCell id="Ga0Yiie_iEQ3RKzZwgJ9-15" value="The technology is only accessible through a user Interface.&lt;br&gt;" style="text;html=1;resizable=0;points=[];autosize=1;align=left;verticalAlign=top;spacingTop=-4;fontSize=16;" parent="Ga0Yiie_iEQ3RKzZwgJ9-1" vertex="1">
          <mxGeometry x="280" y="120" width="430" height="20" as="geometry" />
        </mxCell>
        <mxCell id="Ga0Yiie_iEQ3RKzZwgJ9-16" value="The technology offers open APIs that can be called to configure and&lt;br&gt;operate the technology." style="text;html=1;resizable=0;points=[];autosize=1;align=left;verticalAlign=top;spacingTop=-4;fontSize=16;" parent="Ga0Yiie_iEQ3RKzZwgJ9-1" vertex="1">
          <mxGeometry x="280" y="230" width="500" height="40" as="geometry" />
        </mxCell>
        <mxCell id="Ga0Yiie_iEQ3RKzZwgJ9-17" value="The technology provides active, on-going exchange of information&lt;br&gt;with another technology that covers its operation and specific situations&lt;br&gt;it has detected." style="text;html=1;resizable=0;points=[];autosize=1;align=left;verticalAlign=top;spacingTop=-4;fontSize=16;" parent="Ga0Yiie_iEQ3RKzZwgJ9-1" vertex="1">
          <mxGeometry x="280" y="343" width="520" height="60" as="geometry" />
        </mxCell>
      </root>
    </mxGraphModel>
  </diagram>
  <diagram id="GMvvsU9k0yCYxfbHejC2" name="server-choices">
    <mxGraphModel dx="1050" dy="1092" grid="1" gridSize="10" guides="1" tooltips="1" connect="1" arrows="1" fold="1" page="1" pageScale="1" pageWidth="1169" pageHeight="827" math="0" shadow="0">
      <root>
        <mxCell id="0" />
        <mxCell id="1" parent="0" />
        <mxCell id="74L_0oyxRFO4OucVp1ci-1" value="OMAG Server Platform" style="rounded=0;whiteSpace=wrap;html=1;verticalAlign=top;fillColor=#fff2cc;strokeColor=#d6b656;" parent="1" vertex="1">
          <mxGeometry x="190" y="170" width="150" height="360" as="geometry" />
        </mxCell>
        <mxCell id="74L_0oyxRFO4OucVp1ci-2" value="OMAG Server" style="rounded=0;whiteSpace=wrap;html=1;" parent="1" vertex="1">
          <mxGeometry x="205" y="210" width="120" height="60" as="geometry" />
        </mxCell>
        <mxCell id="74L_0oyxRFO4OucVp1ci-3" value="OMAG Server" style="rounded=0;whiteSpace=wrap;html=1;" parent="1" vertex="1">
          <mxGeometry x="205" y="390" width="120" height="60" as="geometry" />
        </mxCell>
        <mxCell id="74L_0oyxRFO4OucVp1ci-4" value="OMAG Server" style="rounded=0;whiteSpace=wrap;html=1;" parent="1" vertex="1">
          <mxGeometry x="205" y="460" width="120" height="60" as="geometry" />
        </mxCell>
        <mxCell id="74L_0oyxRFO4OucVp1ci-5" value="OMAG Server" style="rounded=0;whiteSpace=wrap;html=1;" parent="1" vertex="1">
          <mxGeometry x="205" y="280" width="120" height="60" as="geometry" />
        </mxCell>
        <mxCell id="74L_0oyxRFO4OucVp1ci-6" value=":&lt;br style=&quot;font-size: 17px;&quot;&gt;:&lt;br style=&quot;font-size: 17px;&quot;&gt;" style="text;html=1;resizable=0;points=[];autosize=1;align=left;verticalAlign=top;spacingTop=-4;fontStyle=1;fontSize=17;" parent="1" vertex="1">
          <mxGeometry x="265" y="340" width="20" height="30" as="geometry" />
        </mxCell>
        <mxCell id="74L_0oyxRFO4OucVp1ci-7" value="OMAG Server Platform" style="rounded=0;whiteSpace=wrap;html=1;verticalAlign=top;fillColor=#fff2cc;strokeColor=#d6b656;" parent="1" vertex="1">
          <mxGeometry x="405" y="170" width="150" height="120" as="geometry" />
        </mxCell>
        <mxCell id="74L_0oyxRFO4OucVp1ci-8" value="OMAG Server" style="rounded=0;whiteSpace=wrap;html=1;" parent="1" vertex="1">
          <mxGeometry x="420" y="210" width="120" height="60" as="geometry" />
        </mxCell>
        <mxCell id="74L_0oyxRFO4OucVp1ci-13" value="OMAG Server Platform" style="rounded=0;whiteSpace=wrap;html=1;verticalAlign=top;fillColor=#fff2cc;strokeColor=#d6b656;" parent="1" vertex="1">
          <mxGeometry x="405" y="310" width="150" height="120" as="geometry" />
        </mxCell>
        <mxCell id="74L_0oyxRFO4OucVp1ci-14" value="OMAG Server" style="rounded=0;whiteSpace=wrap;html=1;" parent="1" vertex="1">
          <mxGeometry x="420" y="350" width="120" height="60" as="geometry" />
        </mxCell>
        <mxCell id="74L_0oyxRFO4OucVp1ci-15" value="Microservices" style="rounded=0;whiteSpace=wrap;html=1;verticalAlign=top;fillColor=#d5e8d4;strokeColor=#82b366;" parent="1" vertex="1">
          <mxGeometry x="640" y="170" width="150" height="120" as="geometry" />
        </mxCell>
        <mxCell id="74L_0oyxRFO4OucVp1ci-16" value="OMAG Server" style="rounded=0;whiteSpace=wrap;html=1;" parent="1" vertex="1">
          <mxGeometry x="655" y="210" width="120" height="60" as="geometry" />
        </mxCell>
        <mxCell id="74L_0oyxRFO4OucVp1ci-17" value="Microservices" style="rounded=0;whiteSpace=wrap;html=1;verticalAlign=top;fillColor=#d5e8d4;strokeColor=#82b366;" parent="1" vertex="1">
          <mxGeometry x="809" y="170" width="150" height="120" as="geometry" />
        </mxCell>
        <mxCell id="74L_0oyxRFO4OucVp1ci-18" value="OMAG Server" style="rounded=0;whiteSpace=wrap;html=1;" parent="1" vertex="1">
          <mxGeometry x="824" y="210" width="120" height="60" as="geometry" />
        </mxCell>
        <mxCell id="74L_0oyxRFO4OucVp1ci-19" value="&lt;font style=&quot;font-size: 12px&quot;&gt;Multiple copies of same type&lt;br&gt;of server (multi-tenant operation)&lt;br&gt;or&lt;br&gt;Consolidation of different server&lt;br&gt;types into a single platform&lt;br&gt;&lt;/font&gt;" style="text;html=1;resizable=0;points=[];autosize=1;align=center;verticalAlign=top;spacingTop=-4;fontSize=17;" parent="1" vertex="1">
          <mxGeometry x="170" y="560" width="190" height="110" as="geometry" />
        </mxCell>
        <mxCell id="74L_0oyxRFO4OucVp1ci-20" value="&lt;font style=&quot;font-size: 12px&quot;&gt;Each server operating&lt;br&gt;in its own platform.&lt;/font&gt;" style="text;html=1;resizable=0;points=[];autosize=1;align=center;verticalAlign=top;spacingTop=-4;fontSize=12;" parent="1" vertex="1">
          <mxGeometry x="410" y="460" width="130" height="30" as="geometry" />
        </mxCell>
        <mxCell id="74L_0oyxRFO4OucVp1ci-22" value="Each server hosted as a microservice." style="text;html=1;resizable=0;points=[];autosize=1;align=left;verticalAlign=top;spacingTop=-4;fontSize=12;" parent="1" vertex="1">
          <mxGeometry x="690" y="318" width="220" height="20" as="geometry" />
        </mxCell>
      </root>
    </mxGraphModel>
  </diagram>
</mxfile>
